<svg width="421" height="320" viewBox="0 0 421 320" fill="none" xmlns="http://www.w3.org/2000/svg">
<path d="M329.403 0H91.5969L0 96.6667L91.5969 193.333H329.403L421 96.6667L375.202 48.3333L329.403 0Z" fill="#849E33"/>
<path d="M421 96.6667L329.403 193.333V227.018L421 134.035V96.6667Z" fill="#6B802A"/>
<path d="M91.5969 193.333L0 96.6667V134.035L91.5969 227.018V193.333Z" fill="#6B802A"/>
<path d="M91.5969 227.018L0 134.035L0 227.018L91.5969 320V227.018Z" fill="#C29B65"/>
<path d="M421 134.035L329.403 227.018V320L421 227.018V134.035Z" fill="#C29B65"/>
<path d="M329.403 227.018H91.5969V320H329.403V227.018Z" fill="#DCB175"/>
<path d="M329.403 193.333H91.5969V227.018H329.403V193.333Z" fill="#7C952F"/>
<path d="M320.422 7.19298H100.578L15.8998 93.8596L100.578 180.526H320.422L405.1 93.8596L320.422 7.19298Z" fill="#B3D744"/>
</svg>
