<svg width="2544" height="2348" viewBox="0 0 2544 2348" fill="none" xmlns="http://www.w3.org/2000/svg">
<path d="M42 40V41H2502V40V39H42V40ZM2504 42H2503V2306H2504H2505V42H2504ZM2502 2308V2307H42V2308V2309H2502V2308ZM40 2306H41V42H40H39V2306H40ZM42 2308V2307C41.4477 2307 41 2306.55 41 2306H40H39C39 2307.66 40.3432 2309 42 2309V2308ZM2504 2306H2503C2503 2306.55 2502.55 2307 2502 2307V2308V2309C2503.66 2309 2505 2307.66 2505 2306H2504ZM2502 40V41C2502.55 41 2503 41.4477 2503 42H2504H2505C2505 40.3431 2503.66 39 2502 39V40ZM42 40V39C40.3431 39 39 40.3432 39 42H40H41C41 41.4477 41.4477 41 42 41V40Z" fill="white" fill-opacity="0.1"/>
<g opacity="0.86">
<path d="M1786.94 1039.25L1796.79 1040.99C1796.79 1040.99 1746.25 1126.88 1711.95 1346.49C1668.64 1623.76 1582.7 1927.43 1586.35 1963.33C1591.42 2013.07 1598.33 2090.28 1598.33 2090.28L1576.96 2086.51C1576.96 2086.51 1563.72 2016.66 1565.33 1971.78C1566.61 1936.26 1672.45 1560.05 1697.61 1343.96C1716.97 1177.63 1786.94 1039.25 1786.94 1039.25Z" fill="url(#paint0_linear_0_1)" stroke="#7D8B44" stroke-width="6.3774"/>
<path d="M1585.42 1723.73C1595.71 1799.93 1616.7 1827.7 1616.7 1827.7C1616.7 1827.7 1641.84 1844.15 1628.11 1677.3C1619.96 1578.27 1585.22 974.034 1585.22 974.034C1585.22 974.034 1563.76 1563.43 1585.42 1723.73Z" fill="url(#paint1_linear_0_1)"/>
<path d="M1619.48 1825.65C1619.48 1825.65 1619.48 1825.66 1619.48 1825.65C1619.48 1825.65 1619.48 1825.65 1619.48 1825.65L1619.48 1825.65L1619.48 1825.65ZM1585.71 1068.82C1584.04 1126.57 1582.03 1205.24 1580.7 1288.91C1578.04 1456.41 1578.1 1643.53 1588.89 1723.35C1594 1761.19 1601.75 1786.9 1608.17 1803.08C1611.38 1811.17 1614.26 1816.88 1616.31 1820.53C1617.33 1822.35 1618.15 1823.67 1618.7 1824.51C1618.71 1824.52 1618.72 1824.54 1618.73 1824.56C1618.75 1824.55 1618.77 1824.54 1618.79 1824.53C1619.58 1824.14 1621.95 1822.21 1624.17 1814.07C1628.57 1797.97 1631.48 1760.92 1624.62 1677.5C1620.54 1627.94 1609.81 1452.06 1600.11 1288.65C1595.26 1206.93 1590.66 1128.3 1587.28 1070.11C1586.91 1063.73 1586.55 1057.6 1586.21 1051.73C1586.05 1057.2 1585.88 1062.9 1585.71 1068.82Z" stroke="black" stroke-opacity="0.33" stroke-width="6.99457"/>
<path d="M1613.54 1744.29C1588.93 1791.09 1591.61 1815.41 1591.61 1815.41C1591.61 1815.41 1601.78 1835.16 1661.6 1736.4C1697.11 1677.77 1923.9 1326.4 1923.9 1326.4C1923.9 1326.4 1665.3 1645.83 1613.54 1744.29Z" fill="url(#paint2_linear_0_1)"/>
<path d="M1884.17 1381.57C1859.26 1412.89 1825.89 1455.19 1790.96 1500.45C1719.77 1592.72 1642.4 1696.91 1616.7 1745.81C1604.53 1768.94 1599.17 1786.42 1596.83 1798C1595.66 1803.8 1595.25 1808.13 1595.12 1810.97C1595.07 1812.06 1595.07 1812.93 1595.08 1813.58C1595.89 1813.58 1598.02 1813.2 1602.05 1810.22C1611.44 1803.27 1628.63 1784.07 1658.54 1734.69C1676.33 1705.33 1741.94 1602.78 1803.06 1507.63C1833.29 1460.58 1862.43 1415.31 1884.17 1381.57Z" stroke="black" stroke-opacity="0.33" stroke-width="6.99457"/>
<path d="M1730.49 1241.16C1719.3 1278.05 1704.69 1289.58 1704.69 1289.58C1704.69 1289.58 1708.89 1271.62 1718.76 1189.58C1724.31 1143.42 1719.19 992.717 1719.19 992.717C1719.19 992.717 1754.04 1163.57 1730.49 1241.16Z" fill="url(#paint3_linear_0_1)"/>
<path d="M1723.98 1041.03C1726.09 1054.95 1728.3 1071.07 1730.19 1088.24C1733.07 1114.37 1735.2 1142.87 1735.16 1169.62C1735.11 1196.43 1732.88 1221.25 1727.14 1240.16C1721.64 1258.29 1715.34 1270.08 1710.49 1277.27C1710.48 1277.28 1710.47 1277.3 1710.45 1277.32C1710.76 1275.42 1711.11 1273.28 1711.48 1270.86C1713.78 1256.07 1717.3 1231.02 1722.23 1189.98C1725.04 1166.62 1725.14 1117.14 1724.56 1073.77C1724.4 1062.26 1724.2 1051.14 1723.98 1041.03Z" stroke="black" stroke-opacity="0.33" stroke-width="6.99457"/>
<path d="M1605.29 1765.77C1604.96 1795.45 1596.65 1806.89 1596.65 1806.89C1596.65 1806.89 1595.89 1792.68 1585.54 1729.56C1579.71 1694.05 1543.52 1582.62 1543.52 1582.62C1543.52 1582.62 1605.99 1703.32 1605.29 1765.77Z" fill="url(#paint4_linear_0_1)"/>
<path d="M1562.12 1630.13C1565.14 1636.98 1568.29 1644.35 1571.43 1652.03C1579.17 1670.95 1586.86 1691.77 1592.57 1711.7C1598.3 1731.68 1601.96 1750.54 1601.79 1765.65C1601.66 1777.57 1600.21 1786.39 1598.59 1792.62C1598.54 1792.26 1598.5 1791.9 1598.45 1791.53C1596.96 1780.03 1594.17 1760.66 1588.99 1729.08C1586.03 1711.04 1575.45 1674.06 1565.69 1641.84C1564.49 1637.85 1563.29 1633.93 1562.12 1630.13Z" stroke="black" stroke-opacity="0.33" stroke-width="6.99457"/>
<path fill-rule="evenodd" clip-rule="evenodd" d="M1620.53 1815.82C1620.53 1815.82 1609.95 1766.27 1616.97 1690.69C1618.09 1678.55 1622.18 1663.65 1626.9 1646.45C1630.29 1634.1 1634.01 1620.57 1637.18 1606.04C1640.14 1636.6 1639.95 1663.55 1639.82 1682.56C1639.77 1689.65 1639.73 1695.64 1639.86 1700.3C1643.53 1829.4 1620.53 1815.82 1620.53 1815.82Z" fill="url(#paint5_linear_0_1)"/>
<path d="M1623.84 1533.42C1589.69 1422.25 1677.86 1195.24 1677.86 1195.24C1677.86 1195.24 1620.21 1388.26 1644.54 1554.99C1643.63 1572.09 1640.63 1590.23 1637.18 1606.04C1634.96 1583.15 1631.15 1557.23 1623.84 1533.42Z" fill="url(#paint6_linear_0_1)"/>
<path d="M1635.38 1628.52C1633.66 1635.11 1631.93 1641.43 1630.28 1647.44C1625.53 1664.74 1621.54 1679.32 1620.45 1691.09C1616.96 1728.65 1617.85 1759.73 1619.6 1781.39C1620.48 1792.22 1621.57 1800.69 1622.44 1806.44C1622.82 1808.93 1623.15 1810.9 1623.41 1812.34C1624.46 1811.7 1626.32 1809.93 1628.34 1805.07C1633.32 1793.07 1638.2 1764.87 1636.36 1700.33C1636.23 1695.59 1636.27 1689.53 1636.32 1682.46C1636.42 1668.25 1636.55 1649.68 1635.38 1628.52ZM1656.3 1270.07C1651.39 1286.31 1646.25 1304.42 1641.44 1323.56C1632.58 1358.78 1624.8 1397.4 1621.36 1434.08C1617.91 1470.82 1618.84 1505.32 1627.18 1532.46C1632.22 1548.88 1635.61 1566.25 1637.97 1582.92C1639.42 1573.67 1640.53 1564.21 1641.03 1555.07C1628.86 1471.29 1637.25 1381.1 1648.63 1311.95C1651.1 1296.91 1653.72 1282.86 1656.3 1270.07Z" stroke="black" stroke-opacity="0.33" stroke-width="6.99457"/>
<path fill-rule="evenodd" clip-rule="evenodd" d="M1746.92 1352.09C1745.8 1370.76 1742.15 1389.12 1737.61 1405.9C1744.33 1395.51 1750.79 1384.32 1756.03 1372.4C1783.2 1248.19 1876.38 1125.13 1876.38 1125.13C1876.38 1125.13 1752.14 1264.94 1746.92 1352.09Z" fill="#8BC162"/>
<path d="M1668.88 1551.72C1668.88 1551.72 1674.54 1514 1699.84 1462.05C1706.82 1447.71 1722.84 1428.74 1737.61 1405.9C1729.29 1436.66 1717.98 1462.12 1713.74 1474.4C1681.79 1566.91 1668.88 1551.72 1668.88 1551.72Z" fill="url(#paint7_linear_0_1)"/>
<path d="M1727.73 1426.51C1724.58 1430.94 1721.53 1435.16 1718.66 1439.15C1711.91 1448.58 1706.34 1456.67 1703 1463.53C1690.45 1489.3 1682.78 1511.52 1678.25 1527.28C1675.99 1535.15 1674.51 1541.41 1673.6 1545.69C1673.36 1546.79 1673.17 1547.76 1673 1548.59C1673.89 1548.09 1675.14 1547.15 1676.76 1545.41C1683.42 1538.25 1694.44 1519.56 1710.41 1473.31C1713.72 1463.73 1720.86 1447.21 1727.73 1426.51ZM1830.76 1187.88C1826.09 1194.24 1821.3 1200.93 1816.5 1207.87C1800.7 1230.71 1784.79 1256.2 1772.51 1281.35C1760.21 1306.55 1751.69 1331.14 1750.43 1352.26C1749.77 1363.25 1748.25 1374.12 1746.19 1384.61C1748.5 1380.3 1750.68 1375.88 1752.68 1371.36C1766.41 1308.86 1796.63 1246.83 1823.35 1200.49C1825.86 1196.15 1828.33 1191.94 1830.76 1187.88Z" stroke="black" stroke-opacity="0.33" stroke-width="6.99457"/>
<g clip-path="url(#paint8_diamond_0_1_clip_path)" data-figma-skip-parse="true"><g transform="matrix(-0.058355 0.243779 0.0339106 0.0101829 1825.65 936.037)"><rect x="0" y="0" width="579.597" height="816.694" fill="url(#paint8_diamond_0_1)" opacity="1" shape-rendering="crispEdges"/><rect x="0" y="0" width="579.597" height="816.694" transform="scale(1 -1)" fill="url(#paint8_diamond_0_1)" opacity="1" shape-rendering="crispEdges"/><rect x="0" y="0" width="579.597" height="816.694" transform="scale(-1 1)" fill="url(#paint8_diamond_0_1)" opacity="1" shape-rendering="crispEdges"/><rect x="0" y="0" width="579.597" height="816.694" transform="scale(-1)" fill="url(#paint8_diamond_0_1)" opacity="1" shape-rendering="crispEdges"/></g></g><path d="M1866.44 808.164C1860.12 788.042 1774.85 1067.94 1782.41 1064.18C1789.97 1060.42 1786.96 1066.32 1800.43 1047.28C1813.9 1028.24 1872.76 828.287 1866.44 808.164Z" data-figma-gradient-fill="{&#34;type&#34;:&#34;GRADIENT_DIAMOND&#34;,&#34;stops&#34;:[{&#34;color&#34;:{&#34;r&#34;:0.66923069953918457,&#34;g&#34;:0.48840966820716858,&#34;b&#34;:0.48840966820716858,&#34;a&#34;:1.0},&#34;position&#34;:0.0},{&#34;color&#34;:{&#34;r&#34;:1.0,&#34;g&#34;:1.0,&#34;b&#34;:1.0,&#34;a&#34;:1.0},&#34;position&#34;:1.0}],&#34;stopsVar&#34;:[{&#34;color&#34;:{&#34;r&#34;:0.66923069953918457,&#34;g&#34;:0.48840966820716858,&#34;b&#34;:0.48840966820716858,&#34;a&#34;:1.0},&#34;position&#34;:0.0},{&#34;color&#34;:{&#34;r&#34;:1.0,&#34;g&#34;:1.0,&#34;b&#34;:1.0,&#34;a&#34;:1.0},&#34;position&#34;:1.0}],&#34;transform&#34;:{&#34;m00&#34;:-116.71009063720703,&#34;m01&#34;:67.821105957031250,&#34;m02&#34;:1850.0933837890625,&#34;m10&#34;:487.55850219726562,&#34;m11&#34;:20.365760803222656,&#34;m12&#34;:682.07513427734375},&#34;opacity&#34;:1.0,&#34;blendMode&#34;:&#34;NORMAL&#34;,&#34;visible&#34;:true}" stroke="#B8A3A6" stroke-width="9"/>
</g>
<g opacity="0.86">
<path d="M1558.37 786.77L1548.43 785.689C1548.43 785.689 1572.61 885.742 1543.37 1114.45C1506.45 1403.22 1502.97 1730.48 1489.3 1765.22C1470.36 1813.36 1441.87 1888.35 1441.87 1888.35L1463.45 1890.69C1463.45 1890.69 1495.93 1824.84 1507.08 1779.65C1515.91 1743.87 1520.83 1338.62 1557.85 1116.03C1586.34 944.69 1558.37 786.77 1558.37 786.77Z" fill="url(#paint9_linear_0_1)" stroke="#7D8B44" stroke-width="6.3774"/>
<path d="M1558.01 1526.64C1526.57 1599.66 1498.57 1621.35 1498.57 1621.35C1498.57 1621.35 1469.79 1630.57 1530.19 1468.17C1566.04 1371.78 1770.39 779.347 1770.39 779.347C1770.39 779.347 1624.16 1373.03 1558.01 1526.64Z" fill="url(#paint10_linear_0_1)"/>
<path d="M1743.11 873.676C1728.37 931.725 1708.03 1010.72 1685.62 1094.51C1640.77 1262.23 1587.74 1448.77 1554.79 1525.29C1539.17 1561.56 1524.44 1585 1513.69 1599.3C1508.32 1606.46 1503.94 1611.33 1500.93 1614.39C1499.43 1615.93 1498.27 1617 1497.5 1617.69C1497.49 1617.7 1497.47 1617.72 1497.45 1617.73L1497.45 1617.73C1496.8 1617.11 1495.06 1614.49 1495.23 1605.7C1495.57 1588.36 1503.27 1550.56 1533.47 1469.36C1551.42 1421.12 1611.49 1248.86 1667.05 1088.73C1694.83 1008.65 1721.5 931.582 1741.22 874.534C1743.4 868.22 1745.49 862.15 1747.5 856.349C1746.1 861.889 1744.63 867.67 1743.11 873.676Z" stroke="black" stroke-opacity="0.33" stroke-width="6.99457"/>
<path d="M1525.21 1539.1C1535.57 1592.79 1526.12 1616.26 1526.12 1616.26C1526.12 1616.26 1510.77 1633.05 1481.32 1517.52C1463.84 1448.94 1345.67 1033.91 1345.67 1033.91C1345.67 1033.91 1503.4 1426.18 1525.21 1539.1Z" fill="url(#paint11_linear_0_1)"/>
<path d="M1522.86 1614.95L1522.86 1614.95C1522.86 1614.95 1522.86 1614.95 1522.86 1614.94L1522.86 1614.95ZM1368.08 1099.96C1383.13 1138.32 1403.23 1190.12 1423.98 1245.35C1466.18 1357.64 1510.93 1483.62 1521.76 1539.73C1526.89 1566.28 1527.1 1585.25 1526.06 1597.48C1525.54 1603.6 1524.71 1608.05 1524.03 1610.92C1523.76 1612.02 1523.52 1612.89 1523.33 1613.54C1522.52 1613.28 1520.58 1612.25 1517.59 1608.18C1510.52 1598.54 1499.45 1574.46 1484.72 1516.69C1475.97 1482.35 1442.04 1361.39 1410.32 1249.09C1394.59 1193.41 1379.4 1139.83 1368.08 1099.96Z" stroke="black" stroke-opacity="0.33" stroke-width="6.99457"/>
<path d="M1555.38 1004.16C1555.68 1044.12 1566.44 1059.8 1566.44 1059.8C1566.44 1059.8 1567.49 1040.69 1581.24 956.091C1588.98 908.487 1636.54 759.72 1636.54 759.72C1636.54 759.72 1554.75 920.09 1555.38 1004.16Z" fill="url(#paint12_linear_0_1)"/>
<path d="M1618.34 806.328C1612.36 819.623 1605.66 835.107 1598.97 851.726C1588.82 876.958 1578.7 904.76 1571.16 931.455C1563.62 958.199 1558.73 983.613 1558.88 1004.14C1559.03 1023.81 1561.75 1037.38 1564.37 1045.95C1564.37 1045.95 1564.37 1045.96 1564.37 1045.97C1564.62 1043.98 1564.89 1041.74 1565.22 1039.22C1567.21 1023.81 1570.91 997.848 1577.79 955.523C1581.71 931.452 1595.61 882.12 1608.45 839.048C1611.88 827.518 1615.25 816.413 1618.34 806.328Z" stroke="black" stroke-opacity="0.33" stroke-width="6.99457"/>
<path d="M1527.04 1562.87C1518.96 1592.55 1523.69 1606.33 1523.69 1606.33C1523.69 1606.33 1528.44 1592.38 1556.25 1532.42C1571.89 1498.68 1638.15 1397.93 1638.15 1397.93C1638.15 1397.93 1544.05 1500.42 1527.04 1562.87Z" fill="url(#paint13_linear_0_1)"/>
<path d="M1607.02 1439.75C1602.14 1445.77 1596.99 1452.26 1591.75 1459.09C1578.97 1475.74 1565.7 1494.3 1554.57 1512.55C1543.42 1530.84 1534.55 1548.62 1530.42 1563.76C1527.18 1575.69 1526.06 1584.92 1525.86 1591.6C1526.01 1591.25 1526.16 1590.89 1526.31 1590.52C1531 1579.49 1539.15 1560.97 1553.06 1530.97C1561 1513.86 1581.62 1480.03 1600.1 1450.68C1602.44 1446.96 1604.76 1443.3 1607.02 1439.75Z" stroke="black" stroke-opacity="0.33" stroke-width="6.99457"/>
<path fill-rule="evenodd" clip-rule="evenodd" d="M1498.26 1608.41C1498.26 1608.41 1522.43 1562.04 1537.09 1484.7C1539.44 1472.27 1539.74 1456.24 1540.08 1437.76C1540.32 1424.48 1540.58 1409.93 1541.65 1394.53C1530.16 1424.15 1522.72 1451.07 1517.46 1470.06C1515.5 1477.15 1513.85 1483.13 1512.4 1487.73C1472.34 1615.38 1498.26 1608.41 1498.26 1608.41Z" fill="url(#paint14_linear_0_1)"/>
<path d="M1575.01 1325.96C1639.24 1224.88 1618.89 973.408 1618.89 973.408C1618.89 973.408 1619.57 1182.28 1549.04 1341.54C1545.07 1358.86 1542.82 1377.79 1541.65 1394.53C1550.26 1372.35 1561.26 1347.6 1575.01 1325.96Z" fill="url(#paint15_linear_0_1)"/>
<path d="M1537.03 1417.41C1536.81 1424.46 1536.69 1431.25 1536.57 1437.71C1536.23 1456.31 1535.93 1472 1533.65 1484.07C1526.36 1522.52 1516.71 1553.26 1508.89 1574.37C1504.98 1584.92 1501.53 1593.06 1499.07 1598.55C1497.99 1600.95 1497.09 1602.85 1496.44 1604.22C1495.61 1603.26 1494.35 1600.94 1493.79 1595.56C1492.4 1582.13 1495.71 1552.57 1515.75 1488.76C1517.21 1484.08 1518.89 1478.03 1520.84 1470.97C1524.77 1456.76 1529.91 1438.19 1537.03 1417.41ZM1618.41 1053.88C1618.53 1071.53 1618.33 1091.13 1617.53 1111.66C1616.07 1149.31 1612.6 1190.04 1605.52 1227.6C1598.43 1265.22 1587.76 1299.38 1572.05 1324.1C1562.57 1339.02 1554.4 1355.37 1547.43 1371.31C1548.65 1361.66 1550.27 1351.9 1552.38 1342.62C1587.76 1262.6 1605.24 1170.33 1613.89 1098.15C1615.79 1082.32 1617.26 1067.45 1618.41 1053.88Z" stroke="black" stroke-opacity="0.33" stroke-width="6.99457"/>
<path fill-rule="evenodd" clip-rule="evenodd" d="M1508.23 1110.06C1504.02 1128.98 1502.32 1148.32 1501.92 1166.35C1498.42 1154.07 1495.38 1141.07 1493.73 1127.7C1502.81 996.121 1448.23 846.835 1448.23 846.835C1448.23 846.835 1527.88 1021.69 1508.23 1110.06Z" fill="#8BC162"/>
<path d="M1526.61 1331.33C1526.61 1331.33 1531.85 1292.12 1522.28 1233.11C1519.64 1216.82 1509.64 1193.34 1501.92 1166.35C1501.2 1199.39 1504.86 1228 1505.45 1241.45C1509.92 1342.8 1526.61 1331.33 1526.61 1331.33Z" fill="url(#paint16_linear_0_1)"/>
<path d="M1505.57 1189.67C1507.33 1194.97 1509.07 1200.04 1510.69 1204.84C1514.5 1216.17 1517.56 1225.84 1518.82 1233.65C1523.57 1262.94 1524.65 1287.29 1524.54 1304.31C1524.48 1312.81 1524.13 1319.48 1523.79 1324.01C1523.7 1325.19 1523.61 1326.23 1523.53 1327.12C1522.83 1326.35 1521.9 1325.06 1520.85 1322.89C1516.47 1313.8 1511.18 1291.98 1508.94 1241.32C1508.48 1230.84 1506.3 1212.29 1505.57 1189.67ZM1474.18 922.182C1476.88 929.904 1479.6 937.999 1482.27 946.352C1490.96 973.637 1499.02 1003.6 1503.69 1032.19C1508.37 1060.84 1509.58 1087.83 1504.81 1109.28C1502.33 1120.42 1500.72 1131.68 1499.72 1142.72C1498.73 1137.74 1497.88 1132.7 1497.24 1127.61C1501.76 1061.42 1490.32 990.969 1477.8 937.151C1476.6 932.005 1475.39 927.009 1474.18 922.182Z" stroke="black" stroke-opacity="0.33" stroke-width="6.99457"/>
<g clip-path="url(#paint17_diamond_0_1_clip_path)" data-figma-skip-parse="true"><g transform="matrix(-0.0130022 0.259676 -0.0354218 0.000469187 1550.44 672.824)"><rect x="0" y="0" width="578.307" height="816.467" fill="url(#paint17_diamond_0_1)" opacity="1" shape-rendering="crispEdges"/><rect x="0" y="0" width="578.307" height="816.467" transform="scale(1 -1)" fill="url(#paint17_diamond_0_1)" opacity="1" shape-rendering="crispEdges"/><rect x="0" y="0" width="578.307" height="816.467" transform="scale(-1 1)" fill="url(#paint17_diamond_0_1)" opacity="1" shape-rendering="crispEdges"/><rect x="0" y="0" width="578.307" height="816.467" transform="scale(-1)" fill="url(#paint17_diamond_0_1)" opacity="1" shape-rendering="crispEdges"/></g></g><path d="M1547.49 533.706C1559.25 515.45 1561.85 818.814 1555.66 812.907C1549.47 807 1550.69 813.742 1543.15 790.92C1535.62 768.097 1535.73 551.961 1547.49 533.706Z" data-figma-gradient-fill="{&#34;type&#34;:&#34;GRADIENT_DIAMOND&#34;,&#34;stops&#34;:[{&#34;color&#34;:{&#34;r&#34;:0.66923069953918457,&#34;g&#34;:0.48840966820716858,&#34;b&#34;:0.48840966820716858,&#34;a&#34;:1.0},&#34;position&#34;:0.0},{&#34;color&#34;:{&#34;r&#34;:1.0,&#34;g&#34;:1.0,&#34;b&#34;:1.0,&#34;a&#34;:1.0},&#34;position&#34;:1.0}],&#34;stopsVar&#34;:[{&#34;color&#34;:{&#34;r&#34;:0.66923069953918457,&#34;g&#34;:0.48840966820716858,&#34;b&#34;:0.48840966820716858,&#34;a&#34;:1.0},&#34;position&#34;:0.0},{&#34;color&#34;:{&#34;r&#34;:1.0,&#34;g&#34;:1.0,&#34;b&#34;:1.0,&#34;a&#34;:1.0},&#34;position&#34;:1.0}],&#34;transform&#34;:{&#34;m00&#34;:-26.004371643066406,&#34;m01&#34;:-70.843528747558594,&#34;m02&#34;:1598.8604736328125,&#34;m10&#34;:519.35284423828125,&#34;m11&#34;:0.93837451934814453,&#34;m12&#34;:412.6784667968750},&#34;opacity&#34;:1.0,&#34;blendMode&#34;:&#34;NORMAL&#34;,&#34;visible&#34;:true}" stroke="#B8A3A6" stroke-width="9"/>
</g>
<g opacity="0.89">
<path d="M1163.3 771.24L1173.04 773.489C1173.04 773.489 1116.8 862.17 1068 1092.89C1006.39 1384.2 900.363 1701.63 901.658 1739.73C903.453 1792.53 905.29 1874.44 905.29 1874.44L884.143 1869.56C884.143 1869.56 875.487 1795.16 880.059 1747.78C883.677 1710.28 1014.4 1317.01 1053.81 1089.62C1084.15 914.591 1163.3 771.24 1163.3 771.24Z" fill="url(#paint18_linear_0_1)" stroke="#7D8B44" stroke-width="6.3774"/>
<path d="M916.499 1486.39C921.784 1567.38 940.967 1597.62 940.967 1597.62C940.967 1597.62 965.053 1616.06 962.293 1439.1C960.655 1334.07 965.676 693.816 965.676 693.816C965.676 693.816 905.381 1316.02 916.499 1486.39Z" fill="url(#paint19_linear_0_1)"/>
<path d="M959.911 794.004C954.433 854.988 947.245 938.072 940.405 1026.48C926.713 1203.42 914.449 1401.28 919.988 1486.16C922.615 1526.41 928.688 1553.94 934.057 1571.34C936.741 1580.04 939.25 1586.21 941.066 1590.17C941.974 1592.15 942.709 1593.58 943.206 1594.49C943.218 1594.51 943.231 1594.53 943.242 1594.55C944.094 1594.14 946.597 1592.11 949.339 1583.65C954.817 1566.75 960.177 1527.65 958.796 1439.17C957.976 1386.6 958.823 1200.22 959.873 1027.06C960.398 940.459 960.975 857.144 961.42 795.478C961.47 788.606 961.52 782.003 961.566 775.694C961.036 781.545 960.482 787.654 959.911 794.004Z" stroke="black" stroke-opacity="0.33" stroke-width="6.99457"/>
<path d="M943.296 1509.31C915.582 1557.75 916.658 1583.57 916.658 1583.57C916.658 1583.57 925.537 1604.89 991.925 1502.98C1031.33 1442.5 1281.49 1080.56 1281.49 1080.56C1281.49 1080.56 1001.6 1407.4 943.296 1509.31Z" fill="url(#paint20_linear_0_1)"/>
<path d="M1238.4 1136.8C1211.37 1168.9 1175.05 1212.37 1136.96 1258.94C1059.62 1353.48 975.3 1460.41 946.327 1511.05C932.614 1535.02 926.079 1553.3 922.968 1565.48C921.412 1571.57 920.711 1576.14 920.396 1579.15C920.276 1580.31 920.214 1581.23 920.181 1581.92C921.044 1581.93 923.229 1581.55 927.385 1578.63C937.302 1571.64 955.807 1552.02 989 1501.07C1008.73 1470.78 1081.16 1365.12 1148.61 1267.1C1182.11 1218.42 1214.39 1171.61 1238.4 1136.8Z" stroke="black" stroke-opacity="0.33" stroke-width="6.99457"/>
<path d="M1093.5 982.321C1079.87 1020.84 1064.48 1032.43 1064.48 1032.43C1064.48 1032.43 1069.87 1013.62 1085.15 927.298C1093.75 878.728 1098.55 719.195 1098.55 719.195C1098.55 719.195 1122.18 901.283 1093.5 982.321Z" fill="url(#paint21_linear_0_1)"/>
<path d="M1100.17 770.144C1101.37 784.991 1102.53 802.204 1103.29 820.513C1105.61 876.213 1104.29 941.353 1090.21 981.153C1083.5 1000.12 1076.39 1012.35 1071.05 1019.77C1071.48 1017.77 1071.97 1015.51 1072.51 1012.95C1075.78 997.413 1080.95 971.091 1088.6 927.908C1092.94 903.36 1096.3 851.089 1098.57 805.207C1099.18 792.863 1099.71 780.957 1100.17 770.144Z" stroke="black" stroke-opacity="0.33" stroke-width="6.99457"/>
<path d="M933.628 1531.67C931.342 1563.04 922.273 1574.78 922.273 1574.78C922.273 1574.78 922.448 1559.72 916.236 1492.56C912.741 1454.77 883.858 1335.45 883.858 1335.45C883.858 1335.45 938.437 1465.68 933.628 1531.67Z" fill="url(#paint22_linear_0_1)"/>
<path d="M899.229 1386.01C901.833 1393.48 904.538 1401.51 907.215 1409.89C920.274 1450.74 932.489 1499.19 930.14 1531.42C929.221 1544.03 927.186 1553.33 925.145 1559.87C925.121 1559.47 925.1 1559.06 925.075 1558.64C924.34 1546.43 922.828 1525.84 919.719 1492.24C917.947 1473.07 909.794 1433.56 902.152 1399.08C901.165 1394.63 900.186 1390.25 899.229 1386.01Z" stroke="black" stroke-opacity="0.33" stroke-width="6.99457"/>
<path fill-rule="evenodd" clip-rule="evenodd" d="M945.581 1585.22C945.581 1585.22 938.255 1532.39 950.257 1452.79C952.185 1440 957.262 1424.41 963.118 1406.44C967.325 1393.52 971.933 1379.37 976.066 1364.14C977.016 1396.57 975.054 1425.06 973.669 1445.15C973.153 1452.65 972.717 1458.98 972.543 1463.91C967.718 1600.54 945.581 1585.22 945.581 1585.22Z" fill="url(#paint23_linear_0_1)"/>
<path d="M967.491 1286.82C940.635 1167.85 1043.84 931.562 1043.84 931.562C1043.84 931.562 973.424 1133.2 986.796 1310.49C984.757 1328.53 980.561 1347.57 976.066 1364.14C975.354 1339.85 973.242 1312.29 967.491 1286.82Z" fill="url(#paint24_linear_0_1)"/>
<path d="M972.788 1387.74C970.641 1394.63 968.491 1401.23 966.444 1407.51C960.554 1425.6 955.591 1440.87 953.715 1453.31C947.747 1492.89 946.587 1525.81 946.915 1548.8C947.08 1560.3 947.617 1569.31 948.11 1575.43C948.328 1578.14 948.54 1580.29 948.705 1581.83C949.805 1581.16 951.767 1579.33 954.079 1574.34C959.891 1561.79 966.635 1532.1 969.047 1463.79C969.224 1458.79 969.665 1452.39 970.18 1444.91C971.216 1429.87 972.57 1410.21 972.788 1387.74ZM1017.47 1009.31C1011.44 1026.36 1005.06 1045.42 998.943 1065.59C987.749 1102.46 977.414 1142.98 971.549 1181.64C965.675 1220.35 964.33 1256.92 970.903 1286.04C974.867 1303.6 977.115 1322.1 978.373 1339.81C980.443 1330.08 982.177 1320.1 983.284 1310.42C976.622 1221.38 990.944 1126.42 1006.89 1053.8C1010.4 1037.79 1014 1022.87 1017.47 1009.31Z" stroke="black" stroke-opacity="0.33" stroke-width="6.99457"/>
<path fill-rule="evenodd" clip-rule="evenodd" d="M1102.64 1100.29C1100.29 1119.97 1095.43 1139.23 1089.78 1156.78C1097.19 1146.08 1104.4 1134.52 1110.43 1122.14C1145.8 991.971 1247.18 865.781 1247.18 865.781C1247.18 865.781 1113.61 1008.38 1102.64 1100.29Z" fill="#8BC162"/>
<path d="M1011.37 1308.05C1011.37 1308.05 1019.53 1268.41 1048.27 1214.56C1056.21 1199.69 1073.49 1180.31 1089.78 1156.78C1079.43 1188.95 1066.42 1215.39 1061.37 1228.2C1023.3 1324.66 1011.37 1308.05 1011.37 1308.05Z" fill="url(#paint25_linear_0_1)"/>
<path d="M1078.57 1178.08C1075.13 1182.61 1071.8 1186.94 1068.67 1191.04C1061.3 1200.72 1055.17 1209.07 1051.36 1216.21C1037.09 1242.94 1027.94 1266.14 1022.36 1282.62C1019.57 1290.87 1017.67 1297.43 1016.48 1301.92C1016.16 1303.11 1015.89 1304.15 1015.67 1305.04C1016.6 1304.53 1017.89 1303.58 1019.6 1301.84C1026.8 1294.49 1039.08 1275.13 1058.12 1226.91C1062.05 1216.95 1070.31 1199.72 1078.57 1178.08ZM1197.6 929.884C1192.46 936.477 1187.16 943.427 1181.84 950.647C1164.51 974.138 1146.89 1000.43 1132.93 1026.52C1118.95 1052.67 1108.78 1078.37 1106.11 1100.71C1104.73 1112.28 1102.49 1123.7 1099.75 1134.69C1102.35 1130.21 1104.84 1125.61 1107.14 1120.89C1124.99 1055.44 1159.31 991.157 1189.1 943.295C1191.99 938.668 1194.83 934.194 1197.6 929.884Z" stroke="black" stroke-opacity="0.33" stroke-width="6.99457"/>
<g clip-path="url(#paint26_diamond_0_1_clip_path)" data-figma-skip-parse="true"><g transform="matrix(-0.0744681 0.255268 0.0332743 0.0121898 1208.85 663.748)"><rect x="0" y="0" width="577.538" height="816.331" fill="url(#paint26_diamond_0_1)" opacity="1" shape-rendering="crispEdges"/><rect x="0" y="0" width="577.538" height="816.331" transform="scale(1 -1)" fill="url(#paint26_diamond_0_1)" opacity="1" shape-rendering="crispEdges"/><rect x="0" y="0" width="577.538" height="816.331" transform="scale(-1 1)" fill="url(#paint26_diamond_0_1)" opacity="1" shape-rendering="crispEdges"/><rect x="0" y="0" width="577.538" height="816.331" transform="scale(-1)" fill="url(#paint26_diamond_0_1)" opacity="1" shape-rendering="crispEdges"/></g></g><path d="M1258.1 530.276C1253.1 508.738 1149.31 801.057 1157.13 797.399C1164.94 793.74 1161.54 799.851 1176.28 780.292C1191.01 760.733 1263.1 551.815 1258.1 530.276Z" data-figma-gradient-fill="{&#34;type&#34;:&#34;GRADIENT_DIAMOND&#34;,&#34;stops&#34;:[{&#34;color&#34;:{&#34;r&#34;:0.66923069953918457,&#34;g&#34;:0.48840966820716858,&#34;b&#34;:0.48840966820716858,&#34;a&#34;:1.0},&#34;position&#34;:0.0},{&#34;color&#34;:{&#34;r&#34;:1.0,&#34;g&#34;:1.0,&#34;b&#34;:1.0,&#34;a&#34;:1.0},&#34;position&#34;:1.0}],&#34;stopsVar&#34;:[{&#34;color&#34;:{&#34;r&#34;:0.66923069953918457,&#34;g&#34;:0.48840966820716858,&#34;b&#34;:0.48840966820716858,&#34;a&#34;:1.0},&#34;position&#34;:0.0},{&#34;color&#34;:{&#34;r&#34;:1.0,&#34;g&#34;:1.0,&#34;b&#34;:1.0,&#34;a&#34;:1.0},&#34;position&#34;:1.0}],&#34;transform&#34;:{&#34;m00&#34;:-148.93620300292969,&#34;m01&#34;:66.548645019531250,&#34;m02&#34;:1250.0435791015625,&#34;m10&#34;:510.53610229492188,&#34;m11&#34;:24.379608154296875,&#34;m12&#34;:396.29010009765625},&#34;opacity&#34;:1.0,&#34;blendMode&#34;:&#34;NORMAL&#34;,&#34;visible&#34;:true}" stroke="#B8A3A6" stroke-width="9"/>
</g>
<g opacity="0.76">
<path d="M1271.02 1122.85L1261.03 1122.51C1261.03 1122.51 1292.49 1220.3 1280.11 1450.03C1264.48 1740.09 1285.02 2066 1273.94 2101.58C1258.59 2150.86 1235.68 2227.57 1235.68 2227.57L1257.37 2228.33C1257.37 2228.33 1284.93 2160.42 1292.73 2114.63C1298.91 2078.39 1274.08 1674.75 1294.66 1450.54C1310.51 1277.96 1271.02 1122.85 1271.02 1122.85Z" fill="url(#paint27_linear_0_1)" stroke="#7D8B44" stroke-width="6.3774"/>
<path d="M1324.96 1859.14C1298.96 1934.1 1272.63 1957.73 1272.63 1957.73C1272.63 1957.73 1244.6 1969 1292.92 1802.99C1321.6 1704.44 1481.93 1099.98 1481.93 1099.98C1481.93 1099.98 1379.66 1701.44 1324.96 1859.14Z" fill="url(#paint28_linear_0_1)"/>
<path d="M1461.64 1195.84C1451.2 1254.68 1436.71 1334.78 1420.51 1419.8C1388.09 1589.98 1348.89 1779.47 1321.65 1858.02C1308.73 1895.27 1295.76 1919.66 1286.1 1934.68C1281.26 1942.19 1277.25 1947.37 1274.48 1950.63C1273.09 1952.26 1272.01 1953.42 1271.3 1954.16C1271.28 1954.17 1271.27 1954.19 1271.25 1954.2C1271.25 1954.2 1271.25 1954.2 1271.25 1954.2C1270.55 1953.63 1268.63 1951.15 1268.15 1942.4C1267.22 1925.12 1272.12 1886.94 1296.29 1803.93C1310.64 1754.61 1357.91 1578.81 1401.57 1415.4C1423.4 1333.68 1444.34 1255.04 1459.82 1196.83C1461.53 1190.39 1463.17 1184.2 1464.74 1178.29C1463.75 1183.9 1462.72 1189.76 1461.64 1195.84Z" stroke="black" stroke-opacity="0.33" stroke-width="6.99457"/>
<path d="M1293.16 1873.94C1307.44 1926.6 1299.74 1950.65 1299.74 1950.65C1299.74 1950.65 1285.66 1968.48 1247.81 1855.66C1225.34 1788.7 1077.04 1384.33 1077.04 1384.33C1077.04 1384.33 1263.13 1763.16 1293.16 1873.94Z" fill="url(#paint29_linear_0_1)"/>
<path d="M1296.39 1949.57C1296.39 1949.58 1296.39 1949.58 1296.39 1949.58L1296.39 1949.58L1296.39 1949.57ZM1104.24 1448.44C1122.06 1485.51 1145.9 1535.59 1170.65 1589.02C1220.97 1697.68 1274.85 1819.77 1289.77 1874.81C1296.83 1900.86 1298.43 1919.72 1298.29 1931.97C1298.22 1938.1 1297.72 1942.58 1297.25 1945.48C1297.07 1946.6 1296.89 1947.49 1296.74 1948.14C1295.93 1947.95 1293.92 1947.07 1290.63 1943.23C1282.87 1934.16 1270.06 1911 1251.14 1854.59C1239.89 1821.06 1197.17 1703.16 1157.3 1593.73C1137.53 1539.48 1118.45 1487.29 1104.24 1448.44Z" stroke="black" stroke-opacity="0.33" stroke-width="6.99457"/>
<path d="M1284 1339.4C1287.23 1379.15 1299.11 1393.96 1299.11 1393.96C1299.11 1393.96 1298.75 1374.87 1306.26 1289.68C1310.48 1241.74 1347 1090.22 1347 1090.22C1347 1090.22 1277.2 1255.79 1284 1339.4Z" fill="url(#paint30_linear_0_1)"/>
<path d="M1332.26 1137.95C1327.28 1151.61 1321.73 1167.51 1316.28 1184.53C1308 1210.38 1299.95 1238.79 1294.4 1265.9C1288.84 1293.07 1285.82 1318.71 1287.48 1339.13C1289.07 1358.69 1292.78 1371.99 1296.02 1380.32C1296.03 1380.33 1296.03 1380.34 1296.03 1380.35C1296.13 1378.35 1296.24 1376.1 1296.38 1373.57C1297.23 1358.1 1299.02 1331.98 1302.78 1289.36C1304.91 1265.12 1315.16 1215.02 1324.8 1171.22C1327.38 1159.5 1329.92 1148.2 1332.26 1137.95Z" stroke="black" stroke-opacity="0.33" stroke-width="6.99457"/>
<path d="M1296.73 1897.45C1290.85 1927.59 1296.58 1940.95 1296.58 1940.95C1296.58 1940.95 1300.3 1926.72 1323.62 1865.02C1336.75 1830.3 1395.44 1725.2 1395.44 1725.2C1395.44 1725.2 1309.11 1834.07 1296.73 1897.45Z" fill="url(#paint31_linear_0_1)"/>
<path d="M1367.45 1769.1C1363.03 1775.45 1358.37 1782.29 1353.65 1789.46C1342.13 1806.96 1330.25 1826.4 1320.49 1845.37C1310.71 1864.39 1303.17 1882.73 1300.17 1898.09C1297.81 1910.2 1297.38 1919.47 1297.66 1926.13C1297.78 1925.77 1297.91 1925.4 1298.04 1925.02C1301.9 1913.7 1308.67 1894.68 1320.34 1863.81C1327 1846.2 1345.08 1811.02 1361.36 1780.47C1363.42 1776.6 1365.46 1772.79 1367.45 1769.1Z" stroke="black" stroke-opacity="0.33" stroke-width="6.99457"/>
<path fill-rule="evenodd" clip-rule="evenodd" d="M1271.37 1944.88C1271.37 1944.88 1292.07 1896.97 1301.02 1818.93C1302.45 1806.39 1301.57 1790.42 1300.55 1772C1299.82 1758.77 1299.01 1744.27 1298.95 1728.87C1289.67 1759.19 1284.21 1786.52 1280.37 1805.8C1278.93 1813 1277.72 1819.07 1276.62 1823.76C1246.03 1953.71 1271.37 1944.88 1271.37 1944.88Z" fill="url(#paint32_linear_0_1)"/>
<path d="M1327.18 1658.19C1383.82 1552.92 1345.07 1304.16 1345.07 1304.16C1345.07 1304.16 1361.09 1511.96 1302.43 1675.6C1299.74 1693.12 1298.88 1712.12 1298.95 1728.87C1305.91 1706.17 1315.06 1680.74 1327.18 1658.19Z" fill="url(#paint33_linear_0_1)"/>
<path d="M1296.02 1751.98C1296.32 1759.01 1296.69 1765.78 1297.05 1772.22C1298.08 1790.75 1298.93 1806.38 1297.54 1818.56C1293.09 1857.36 1285.72 1888.65 1279.47 1910.22C1276.35 1921.01 1273.51 1929.36 1271.45 1935C1270.55 1937.47 1269.8 1939.42 1269.24 1940.83C1268.35 1939.94 1266.92 1937.73 1265.97 1932.41C1263.6 1919.15 1264.73 1889.5 1280.03 1824.53C1281.15 1819.77 1282.37 1813.63 1283.8 1806.46C1286.68 1792.03 1290.44 1773.18 1296.02 1751.98ZM1350.5 1384.28C1351.92 1401.83 1353.16 1421.35 1353.87 1441.84C1355.17 1479.42 1354.7 1520.2 1350.39 1558.09C1346.08 1596.05 1337.95 1630.82 1324.1 1656.56C1315.74 1672.1 1308.79 1688.96 1303.01 1705.34C1303.52 1695.65 1304.42 1685.82 1305.84 1676.43C1335.25 1594.22 1345.92 1501.11 1349.25 1428.65C1349.98 1412.77 1350.35 1397.87 1350.5 1384.28Z" stroke="black" stroke-opacity="0.33" stroke-width="6.99457"/>
<path fill-rule="evenodd" clip-rule="evenodd" d="M1244.74 1448.23C1241.93 1467.37 1241.66 1486.74 1242.58 1504.7C1238.19 1492.75 1234.21 1480.03 1231.58 1466.84C1230.98 1335.24 1165.59 1190.67 1165.59 1190.67C1165.59 1190.67 1257.85 1358.85 1244.74 1448.23Z" fill="#8BC162"/>
<path d="M1279.31 1667.08C1279.31 1667.08 1281.66 1627.67 1267.78 1569.66C1263.95 1553.64 1252.26 1531 1242.58 1504.7C1244.29 1537.64 1250.03 1565.84 1251.61 1579.19C1263.51 1679.71 1279.31 1667.08 1279.31 1667.08Z" fill="url(#paint34_linear_0_1)"/>
<path d="M1247.93 1527.65C1250.08 1532.79 1252.19 1537.72 1254.15 1542.37C1258.78 1553.36 1262.54 1562.77 1264.38 1570.45C1271.27 1599.24 1274.12 1623.4 1275.26 1640.34C1275.83 1648.81 1275.96 1655.47 1275.96 1659.99C1275.96 1661.18 1275.95 1662.22 1275.93 1663.11C1275.17 1662.4 1274.16 1661.18 1272.95 1659.1C1267.91 1650.37 1261.03 1629.05 1255.09 1578.8C1253.86 1568.4 1250.32 1550.11 1247.93 1527.65ZM1197.01 1263.77C1200.26 1271.26 1203.57 1279.11 1206.84 1287.22C1217.51 1313.74 1227.75 1342.97 1234.5 1371.08C1241.27 1399.24 1244.46 1426.01 1241.28 1447.7C1239.62 1458.96 1238.84 1470.29 1238.65 1481.35C1237.29 1476.47 1236.08 1471.52 1235.07 1466.5C1234.72 1400.3 1218.14 1331.03 1201.7 1278.39C1200.13 1273.36 1198.56 1268.48 1197.01 1263.77Z" stroke="black" stroke-opacity="0.33" stroke-width="6.99457"/>
<g clip-path="url(#paint35_diamond_0_1_clip_path)" data-figma-skip-parse="true"><g transform="matrix(0.00608889 0.259359 -0.0352917 0.00305512 1254.75 1010.05)"><rect x="0" y="0" width="578.384" height="816.48" fill="url(#paint35_diamond_0_1)" opacity="1" shape-rendering="crispEdges"/><rect x="0" y="0" width="578.384" height="816.48" transform="scale(1 -1)" fill="url(#paint35_diamond_0_1)" opacity="1" shape-rendering="crispEdges"/><rect x="0" y="0" width="578.384" height="816.48" transform="scale(-1 1)" fill="url(#paint35_diamond_0_1)" opacity="1" shape-rendering="crispEdges"/><rect x="0" y="0" width="578.384" height="816.48" transform="scale(-1)" fill="url(#paint35_diamond_0_1)" opacity="1" shape-rendering="crispEdges"/></g></g><path d="M1241.6 871.822C1251.99 852.796 1276.84 1154.49 1270.24 1149.06C1263.63 1143.64 1265.34 1150.26 1256.15 1128.1C1246.96 1105.94 1231.21 890.848 1241.6 871.822Z" data-figma-gradient-fill="{&#34;type&#34;:&#34;GRADIENT_DIAMOND&#34;,&#34;stops&#34;:[{&#34;color&#34;:{&#34;r&#34;:0.66923069953918457,&#34;g&#34;:0.48840966820716858,&#34;b&#34;:0.48840966820716858,&#34;a&#34;:1.0},&#34;position&#34;:0.0},{&#34;color&#34;:{&#34;r&#34;:1.0,&#34;g&#34;:1.0,&#34;b&#34;:1.0,&#34;a&#34;:1.0},&#34;position&#34;:1.0}],&#34;stopsVar&#34;:[{&#34;color&#34;:{&#34;r&#34;:0.66923069953918457,&#34;g&#34;:0.48840966820716858,&#34;b&#34;:0.48840966820716858,&#34;a&#34;:1.0},&#34;position&#34;:0.0},{&#34;color&#34;:{&#34;r&#34;:1.0,&#34;g&#34;:1.0,&#34;b&#34;:1.0,&#34;a&#34;:1.0},&#34;position&#34;:1.0}],&#34;transform&#34;:{&#34;m00&#34;:12.177789688110352,&#34;m01&#34;:-70.583465576171875,&#34;m02&#34;:1283.9515380859375,&#34;m10&#34;:518.71740722656250,&#34;m11&#34;:6.1102452278137207,&#34;m12&#34;:747.63189697265625},&#34;opacity&#34;:1.0,&#34;blendMode&#34;:&#34;NORMAL&#34;,&#34;visible&#34;:true}" stroke="#B8A3A6" stroke-width="9"/>
</g>
<g opacity="0.48">
<path d="M934.931 767.364L925.271 769.952C925.271 769.952 984.671 856.96 1041.71 1086.66C1113.72 1376.67 1231.08 1691.36 1231.15 1729.62C1231.24 1782.62 1232.34 1864.82 1232.34 1864.82L1253.3 1859.21C1253.3 1859.21 1259.29 1784.3 1253.03 1736.95C1248.07 1699.47 1103.31 1309.56 1055.77 1082.89C1019.18 908.412 934.931 767.364 934.931 767.364Z" fill="url(#paint36_linear_0_1)" stroke="#7D8B44" stroke-width="6.3774"/>
<path d="M1207.24 1476.08C1204.86 1557.48 1186.76 1588.45 1186.76 1588.45C1186.76 1588.45 1163.35 1607.77 1159.77 1430.22C1157.65 1324.84 1129.7 682.983 1129.7 682.983C1129.7 682.983 1212.25 1304.85 1207.24 1476.08Z" fill="url(#paint37_linear_0_1)"/>
<path d="M1139.05 783.25C1146.71 844.216 1156.87 927.286 1166.88 1015.7C1186.9 1192.67 1206.24 1390.66 1203.74 1475.97C1202.56 1516.42 1197.48 1544.24 1192.73 1561.87C1190.36 1570.69 1188.07 1576.96 1186.4 1580.99C1185.56 1583.01 1184.88 1584.46 1184.41 1585.4C1184.4 1585.42 1184.39 1585.44 1184.38 1585.46C1183.51 1585.07 1180.94 1583.11 1177.9 1574.73C1171.81 1557.97 1165.06 1518.94 1163.27 1430.17C1162.21 1377.43 1154.69 1190.56 1147.44 1016.95C1143.81 930.131 1140.25 846.604 1137.6 784.783C1137.3 777.89 1137.02 771.267 1136.74 764.939C1137.48 770.79 1138.26 776.9 1139.05 783.25Z" stroke="black" stroke-opacity="0.33" stroke-width="6.99457"/>
<path d="M1181.27 1499.97C1210.71 1547.61 1210.56 1573.54 1210.56 1573.54C1210.56 1573.54 1202.45 1595.21 1132.44 1495.29C1090.88 1435.98 827.863 1081.57 827.863 1081.57C827.863 1081.57 1119.35 1399.77 1181.27 1499.97Z" fill="url(#paint38_linear_0_1)"/>
<path d="M872.924 1136.48C901.098 1167.75 938.971 1210.11 978.725 1255.51C1059.41 1347.68 1147.53 1452.03 1178.31 1501.83C1192.88 1525.4 1200.06 1543.5 1203.61 1555.61C1205.38 1561.67 1206.25 1566.23 1206.67 1569.24C1206.83 1570.39 1206.93 1571.32 1206.99 1572.01C1206.12 1572.05 1203.92 1571.74 1199.66 1568.95C1189.5 1562.28 1170.3 1543.23 1135.29 1493.27C1114.48 1463.57 1038.3 1360.09 967.37 1264.1C932.135 1216.42 898.18 1170.56 872.924 1136.48Z" stroke="black" stroke-opacity="0.33" stroke-width="6.99457"/>
<path d="M1012.26 976.65C1027.26 1014.82 1043.06 1025.91 1043.06 1025.91C1043.06 1025.91 1037 1007.23 1018.63 921.189C1008.3 872.778 997.788 712.967 997.788 712.967C997.788 712.967 980.692 896.365 1012.26 976.65Z" fill="url(#paint39_linear_0_1)"/>
<path d="M998 764.102C997.329 779.032 996.79 796.332 996.682 814.72C996.353 870.653 1000.01 935.932 1015.51 975.368C1022.9 994.158 1030.44 1006.18 1036.05 1013.44C1035.54 1011.45 1034.97 1009.2 1034.34 1006.65C1030.52 991.182 1024.4 964.963 1015.22 921.921C1009.99 897.455 1004.77 845.155 1000.85 799.223C999.799 786.859 998.841 774.934 998 764.102Z" stroke="black" stroke-opacity="0.33" stroke-width="6.99457"/>
<path d="M1191.74 1522.07C1195.15 1553.44 1204.63 1564.91 1204.63 1564.91C1204.63 1564.91 1203.92 1549.82 1207.72 1482.26C1209.86 1444.25 1234.46 1323.61 1234.46 1323.61C1234.46 1323.61 1184.57 1456.06 1191.74 1522.07Z" fill="url(#paint40_linear_0_1)"/>
<path d="M1220.92 1374.81C1218.58 1382.39 1216.16 1390.54 1213.78 1399.04C1202.19 1440.45 1191.71 1489.45 1195.22 1521.7C1196.59 1534.32 1198.95 1543.58 1201.23 1550.06C1201.24 1549.66 1201.25 1549.25 1201.26 1548.82C1201.55 1536.56 1202.33 1515.86 1204.23 1482.05C1205.32 1462.78 1212.05 1422.88 1218.46 1388.04C1219.29 1383.53 1220.11 1379.1 1220.92 1374.81Z" stroke="black" stroke-opacity="0.33" stroke-width="6.99457"/>
<path fill-rule="evenodd" clip-rule="evenodd" d="M1181.71 1576.17C1181.71 1576.17 1187.14 1522.95 1172.29 1443.54C1169.91 1430.78 1164.28 1415.32 1157.78 1397.49C1153.11 1384.69 1148 1370.66 1143.32 1355.52C1143.53 1388.08 1146.51 1416.57 1148.62 1436.67C1149.4 1444.17 1150.06 1450.51 1150.41 1455.44C1160.13 1592.29 1181.71 1576.17 1181.71 1576.17Z" fill="url(#paint41_linear_0_1)"/>
<path d="M1149.12 1277.69C1171.71 1157.47 1060.08 924.056 1060.08 924.056C1060.08 924.056 1137.69 1123.85 1130.67 1302.08C1133.36 1320.11 1138.23 1339.06 1143.32 1355.52C1143.16 1331.14 1144.29 1303.43 1149.12 1277.69Z" fill="url(#paint42_linear_0_1)"/>
<path d="M1147.44 1379.07C1149.83 1385.9 1152.22 1392.45 1154.49 1398.68C1161.03 1416.61 1166.53 1431.76 1168.86 1444.17C1176.24 1483.66 1178.58 1516.63 1179.07 1539.7C1179.32 1551.23 1179.11 1560.29 1178.83 1566.45C1178.71 1569.18 1178.58 1571.34 1178.47 1572.89C1177.34 1572.25 1175.31 1570.48 1172.83 1565.56C1166.57 1553.17 1158.76 1523.63 1153.9 1455.21C1153.55 1450.2 1152.88 1443.8 1152.1 1436.32C1150.52 1421.27 1148.46 1401.59 1147.44 1379.07ZM1089.22 1001.1C1095.86 1017.99 1102.92 1036.89 1109.76 1056.91C1122.27 1093.51 1134.05 1133.79 1141.3 1172.35C1148.56 1210.98 1151.21 1247.61 1145.69 1277.03C1142.35 1294.78 1140.77 1313.4 1140.14 1331.21C1137.73 1321.52 1135.63 1311.56 1134.18 1301.89C1137.65 1212.39 1119.94 1117.65 1101.4 1045.37C1097.31 1029.43 1093.18 1014.58 1089.22 1001.1Z" stroke="black" stroke-opacity="0.33" stroke-width="6.99457"/>
<path fill-rule="evenodd" clip-rule="evenodd" d="M1007.35 1095.26C1010.4 1114.91 1015.95 1134.06 1022.22 1151.46C1014.43 1140.99 1006.82 1129.64 1000.35 1117.43C960.324 988.11 854.466 865.029 854.466 865.029C854.466 865.029 993.093 1003.46 1007.35 1095.26Z" fill="#8BC162"/>
<path d="M1106.02 1300.48C1106.02 1300.48 1096.45 1261.01 1065.79 1207.99C1057.32 1193.35 1039.35 1174.5 1022.22 1151.46C1033.73 1183.37 1047.67 1209.44 1053.18 1222.11C1094.69 1317.54 1106.02 1300.48 1106.02 1300.48Z" fill="url(#paint43_linear_0_1)"/>
<path d="M1034.2 1172.44C1037.79 1176.87 1041.28 1181.09 1044.55 1185.1C1052.27 1194.55 1058.69 1202.71 1062.76 1209.75C1077.98 1236.07 1087.96 1259.02 1094.13 1275.36C1097.21 1283.53 1099.34 1290.05 1100.7 1294.51C1101.06 1295.69 1101.36 1296.73 1101.62 1297.61C1100.67 1297.13 1099.34 1296.23 1097.58 1294.54C1090.12 1287.41 1077.14 1268.42 1056.39 1220.71C1052.1 1210.85 1043.22 1193.86 1034.2 1172.44ZM906.307 927.6C911.69 934.04 917.236 940.832 922.821 947.895C940.98 970.861 959.537 996.627 974.425 1022.32C989.342 1048.06 1000.43 1073.48 1003.9 1095.8C1005.69 1107.36 1008.34 1118.73 1011.47 1129.66C1008.71 1125.25 1006.06 1120.72 1003.58 1116.07C983.406 1051.05 946.796 987.758 915.3 940.781C912.25 936.231 909.244 931.834 906.307 927.6Z" stroke="black" stroke-opacity="0.33" stroke-width="6.99457"/>
<g clip-path="url(#paint44_diamond_0_1_clip_path)" data-figma-skip-parse="true"><g transform="matrix(0.0835785 0.253435 -0.0328246 0.0133589 885.551 661.128)"><rect x="0" y="0" width="577.417" height="816.31" fill="url(#paint44_diamond_0_1)" opacity="1" shape-rendering="crispEdges"/><rect x="0" y="0" width="577.417" height="816.31" transform="scale(1 -1)" fill="url(#paint44_diamond_0_1)" opacity="1" shape-rendering="crispEdges"/><rect x="0" y="0" width="577.417" height="816.31" transform="scale(-1 1)" fill="url(#paint44_diamond_0_1)" opacity="1" shape-rendering="crispEdges"/><rect x="0" y="0" width="577.417" height="816.31" transform="scale(-1)" fill="url(#paint44_diamond_0_1)" opacity="1" shape-rendering="crispEdges"/></g></g><path d="M831.54 528.966C835.766 507.197 949.98 796.786 942.037 793.385C934.094 789.983 937.717 795.995 922.285 776.884C906.854 757.773 827.313 550.735 831.54 528.966Z" data-figma-gradient-fill="{&#34;type&#34;:&#34;GRADIENT_DIAMOND&#34;,&#34;stops&#34;:[{&#34;color&#34;:{&#34;r&#34;:0.66923069953918457,&#34;g&#34;:0.48840966820716858,&#34;b&#34;:0.48840966820716858,&#34;a&#34;:1.0},&#34;position&#34;:0.0},{&#34;color&#34;:{&#34;r&#34;:1.0,&#34;g&#34;:1.0,&#34;b&#34;:1.0,&#34;a&#34;:1.0},&#34;position&#34;:1.0}],&#34;stopsVar&#34;:[{&#34;color&#34;:{&#34;r&#34;:0.66923069953918457,&#34;g&#34;:0.48840966820716858,&#34;b&#34;:0.48840966820716858,&#34;a&#34;:1.0},&#34;position&#34;:0.0},{&#34;color&#34;:{&#34;r&#34;:1.0,&#34;g&#34;:1.0,&#34;b&#34;:1.0,&#34;a&#34;:1.0},&#34;position&#34;:1.0}],&#34;transform&#34;:{&#34;m00&#34;:167.15692138671875,&#34;m01&#34;:-65.649101257324219,&#34;m02&#34;:834.79748535156250,&#34;m10&#34;:506.87078857421875,&#34;m11&#34;:26.71777343750,&#34;m12&#34;:394.33355712890625},&#34;opacity&#34;:1.0,&#34;blendMode&#34;:&#34;NORMAL&#34;,&#34;visible&#34;:true}" stroke="#B8A3A6" stroke-width="9"/>
</g>
<g opacity="0.75">
<path d="M1614.12 1011.2L1623.78 1013.79C1623.78 1013.79 1565.52 1096.53 1511.2 1316.08C1442.62 1593.27 1329.11 1893.62 1329.47 1930.29C1329.96 1981.1 1329.78 2059.88 1329.78 2059.88L1308.81 2054.26C1308.81 2054.26 1302.01 1982.4 1307.73 1937.08C1312.26 1901.21 1452.25 1529.06 1497.14 1312.31C1531.68 1145.47 1614.12 1011.2 1614.12 1011.2Z" fill="url(#paint45_linear_0_1)" stroke="#7D8B44" stroke-width="6.3774"/>
<path d="M1350.48 1687.52C1353.76 1765.57 1372.15 1795.47 1372.15 1795.47C1372.15 1795.47 1395.71 1814.24 1397.3 1644.09C1398.25 1543.1 1418.98 928.152 1418.98 928.152C1418.98 928.152 1343.59 1523.34 1350.48 1687.52Z" fill="url(#paint46_linear_0_1)"/>
<path d="M1410.78 1024.19C1403.82 1082.55 1394.62 1162.06 1385.62 1246.7C1367.63 1416.12 1350.54 1605.66 1353.98 1687.44C1355.61 1726.21 1360.98 1752.91 1365.9 1769.84C1368.36 1778.31 1370.71 1784.34 1372.42 1788.21C1373.27 1790.15 1373.97 1791.55 1374.44 1792.45C1374.45 1792.47 1374.46 1792.49 1374.47 1792.5C1374.48 1792.5 1374.49 1792.5 1374.5 1792.49C1375.33 1792.16 1377.88 1790.4 1380.84 1782.33C1386.7 1766.37 1393.01 1729.08 1393.81 1644C1394.28 1593.45 1399.7 1414.41 1405 1248.08C1407.66 1164.9 1410.28 1084.87 1412.24 1025.64C1412.45 1019.12 1412.66 1012.84 1412.86 1006.85C1412.19 1012.39 1411.5 1018.18 1410.78 1024.19Z" stroke="black" stroke-opacity="0.33" stroke-width="6.99457"/>
<path d="M1376.64 1710.72C1347.82 1756.05 1348.26 1780.9 1348.26 1780.9C1348.26 1780.9 1356.59 1801.77 1425.28 1706.77C1466.05 1650.38 1724.35 1313.58 1724.35 1313.58C1724.35 1313.58 1437.27 1615.35 1376.64 1710.72Z" fill="url(#paint47_linear_0_1)"/>
<path d="M1679.78 1366.01C1652.06 1395.65 1614.88 1435.71 1575.87 1478.67C1496.44 1566.12 1409.76 1665.15 1379.64 1712.52C1365.39 1734.94 1358.43 1752.19 1355.04 1763.74C1353.34 1769.51 1352.53 1773.87 1352.15 1776.74C1352 1777.84 1351.91 1778.72 1351.86 1779.38C1352.69 1779.44 1354.86 1779.22 1359.12 1776.55C1369.14 1770.3 1388.05 1752.29 1422.39 1704.79C1442.82 1676.55 1517.62 1578.2 1587.28 1486.97C1621.76 1441.81 1655 1398.37 1679.78 1366.01Z" stroke="black" stroke-opacity="0.33" stroke-width="6.99457"/>
<path d="M1539.34 1210.95C1524.8 1247.37 1509.18 1257.83 1509.18 1257.83C1509.18 1257.83 1515.01 1239.99 1532.37 1157.72C1542.13 1111.43 1550.84 958.358 1550.84 958.358C1550.84 958.358 1569.92 1134.35 1539.34 1210.95Z" fill="url(#paint48_linear_0_1)"/>
<path d="M1551.19 1007.61C1552.02 1021.89 1552.75 1038.43 1553.06 1056C1553.53 1082.71 1553.05 1111.76 1550.55 1138.86C1548.05 1166.01 1543.55 1190.98 1536.09 1209.67C1528.94 1227.58 1521.57 1239 1516.07 1245.88C1516.06 1245.89 1516.05 1245.9 1516.05 1245.91C1516.53 1244.01 1517.07 1241.87 1517.66 1239.45C1521.3 1224.66 1527.11 1199.59 1535.79 1158.43C1540.73 1135.01 1545.37 1084.92 1548.76 1040.94C1549.66 1029.21 1550.48 1017.9 1551.19 1007.61Z" stroke="black" stroke-opacity="0.33" stroke-width="6.99457"/>
<path d="M1366.45 1731.77C1363.4 1761.81 1354.07 1772.7 1354.07 1772.7C1354.07 1772.7 1354.61 1758.24 1350.07 1693.44C1347.51 1656.98 1321.65 1541.07 1321.65 1541.07C1321.65 1541.07 1372.87 1668.58 1366.45 1731.77Z" fill="url(#paint49_linear_0_1)"/>
<path d="M1335.81 1590.63C1338.2 1597.85 1340.67 1605.61 1343.11 1613.69C1349.09 1633.51 1354.85 1655.24 1358.72 1675.91C1362.6 1696.63 1364.53 1716.06 1362.97 1731.37C1361.75 1743.43 1359.49 1752.26 1357.3 1758.43C1357.29 1758.06 1357.28 1757.69 1357.27 1757.3C1356.83 1745.53 1355.83 1725.68 1353.56 1693.25C1352.26 1674.74 1345.1 1636.4 1338.33 1602.94C1337.48 1598.75 1336.64 1594.63 1335.81 1590.63Z" stroke="black" stroke-opacity="0.33" stroke-width="6.99457"/>
<path fill-rule="evenodd" clip-rule="evenodd" d="M1377.05 1783.75C1377.05 1783.75 1371.05 1732.68 1384.97 1656.72C1387.2 1644.51 1392.65 1629.76 1398.93 1612.74C1403.44 1600.52 1408.38 1587.13 1412.88 1572.67C1413.03 1603.87 1410.37 1631.16 1408.5 1650.4C1407.8 1657.58 1407.21 1663.65 1406.91 1668.37C1398.75 1799.45 1377.05 1783.75 1377.05 1783.75Z" fill="url(#paint50_linear_0_1)"/>
<path d="M1406.23 1498C1382.37 1382.52 1491.08 1160.01 1491.08 1160.01C1491.08 1160.01 1415.91 1350.66 1424.89 1521.59C1422.42 1538.83 1417.76 1556.95 1412.88 1572.67C1412.76 1549.3 1411.33 1522.73 1406.23 1498Z" fill="url(#paint51_linear_0_1)"/>
<path d="M1409.02 1595.27C1406.71 1601.8 1404.4 1608.05 1402.21 1614C1395.89 1631.12 1390.57 1645.55 1388.4 1657.4C1381.48 1695.15 1379.52 1726.71 1379.28 1748.81C1379.16 1759.85 1379.48 1768.53 1379.82 1774.43C1379.97 1777 1380.12 1779.04 1380.25 1780.52C1381.35 1779.95 1383.36 1778.31 1385.81 1773.57C1391.89 1761.82 1399.34 1733.63 1403.43 1668.11C1403.72 1663.3 1404.32 1657.17 1405.02 1650.01C1406.42 1635.62 1408.25 1616.81 1409.02 1595.27ZM1462.77 1233.86C1456.37 1249.91 1449.58 1267.87 1443.01 1286.88C1430.94 1321.82 1419.65 1360.28 1412.86 1397.15C1406.05 1434.08 1403.82 1469.12 1409.65 1497.34C1413.17 1514.39 1414.96 1532.26 1415.78 1549.34C1418.08 1540.1 1420.05 1530.6 1421.39 1521.37C1416.93 1435.5 1433.55 1344.86 1451.23 1275.79C1455.09 1260.7 1459.01 1246.63 1462.77 1233.86Z" stroke="black" stroke-opacity="0.33" stroke-width="6.99457"/>
<path fill-rule="evenodd" clip-rule="evenodd" d="M1545.55 1324.7C1542.73 1343.51 1537.41 1361.8 1531.35 1378.41C1539 1368.46 1546.46 1357.67 1552.78 1346.04C1591.25 1222.52 1695.43 1105.71 1695.43 1105.71C1695.43 1105.71 1558.75 1236.87 1545.55 1324.7Z" fill="#8BC162"/>
<path d="M1449.46 1520.32C1449.46 1520.32 1458.56 1482.6 1488.54 1432.11C1496.82 1418.18 1514.52 1400.31 1531.35 1378.41C1520.23 1408.87 1506.62 1433.71 1501.26 1445.79C1460.94 1536.8 1449.46 1520.32 1449.46 1520.32Z" fill="url(#paint52_linear_0_1)"/>
<path d="M1519.62 1398.44C1516.08 1402.65 1512.64 1406.67 1509.42 1410.47C1501.83 1419.45 1495.53 1427.19 1491.56 1433.86C1476.69 1458.91 1467 1480.78 1461.04 1496.36C1458.06 1504.15 1456.01 1510.37 1454.71 1514.63C1454.37 1515.73 1454.08 1516.7 1453.85 1517.54C1454.78 1517.1 1456.1 1516.26 1457.86 1514.64C1465.18 1507.92 1477.89 1489.91 1498.05 1444.41C1502.22 1434.99 1510.87 1418.84 1519.62 1398.44ZM1644.25 1165.34C1639 1171.41 1633.6 1177.8 1628.16 1184.45C1610.31 1206.26 1592.11 1230.74 1577.56 1255.18C1562.98 1279.68 1552.23 1303.89 1549.03 1325.19C1547.36 1336.26 1544.85 1347.14 1541.84 1357.59C1544.54 1353.41 1547.12 1349.11 1549.53 1344.69C1568.94 1282.56 1604.76 1222.28 1635.64 1177.6C1638.56 1173.37 1641.44 1169.28 1644.25 1165.34Z" stroke="black" stroke-opacity="0.33" stroke-width="6.99457"/>
<g clip-path="url(#paint53_diamond_0_1_clip_path)" data-figma-skip-parse="true"><g transform="matrix(-0.0805159 0.242006 0.0328752 0.0131698 1662.17 909.913)"><rect x="0" y="0" width="578.98" height="816.585" fill="url(#paint53_diamond_0_1)" opacity="1" shape-rendering="crispEdges"/><rect x="0" y="0" width="578.98" height="816.585" transform="scale(1 -1)" fill="url(#paint53_diamond_0_1)" opacity="1" shape-rendering="crispEdges"/><rect x="0" y="0" width="578.98" height="816.585" transform="scale(-1 1)" fill="url(#paint53_diamond_0_1)" opacity="1" shape-rendering="crispEdges"/><rect x="0" y="0" width="578.98" height="816.585" transform="scale(-1)" fill="url(#paint53_diamond_0_1)" opacity="1" shape-rendering="crispEdges"/></g></g><path d="M1714.55 783.828C1710.1 762.914 1599.44 1039.23 1607.32 1036.06C1615.2 1032.89 1611.66 1038.61 1626.83 1020.47C1642 1002.32 1719.01 804.742 1714.55 783.828Z" data-figma-gradient-fill="{&#34;type&#34;:&#34;GRADIENT_DIAMOND&#34;,&#34;stops&#34;:[{&#34;color&#34;:{&#34;r&#34;:0.66923069953918457,&#34;g&#34;:0.48840966820716858,&#34;b&#34;:0.48840966820716858,&#34;a&#34;:1.0},&#34;position&#34;:0.0},{&#34;color&#34;:{&#34;r&#34;:1.0,&#34;g&#34;:1.0,&#34;b&#34;:1.0,&#34;a&#34;:1.0},&#34;position&#34;:1.0}],&#34;stopsVar&#34;:[{&#34;color&#34;:{&#34;r&#34;:0.66923069953918457,&#34;g&#34;:0.48840966820716858,&#34;b&#34;:0.48840966820716858,&#34;a&#34;:1.0},&#34;position&#34;:0.0},{&#34;color&#34;:{&#34;r&#34;:1.0,&#34;g&#34;:1.0,&#34;b&#34;:1.0,&#34;a&#34;:1.0},&#34;position&#34;:1.0}],&#34;transform&#34;:{&#34;m00&#34;:-161.031738281250,&#34;m01&#34;:65.750442504882812,&#34;m02&#34;:1709.8092041015625,&#34;m10&#34;:484.01135253906250,&#34;m11&#34;:26.339565277099609,&#34;m12&#34;:654.73785400390625},&#34;opacity&#34;:1.0,&#34;blendMode&#34;:&#34;NORMAL&#34;,&#34;visible&#34;:true}" stroke="#B8A3A6" stroke-width="9"/>
</g>
<g opacity="0.74">
<path d="M885.211 912.671L875.283 913.875C875.283 913.875 921.714 1007.24 945.544 1239.99C975.631 1533.85 1047.09 1858.11 1041.72 1895.58C1034.29 1947.48 1023.7 2028.12 1023.7 2028.12L1045.25 2025.51C1045.25 2025.51 1061.81 1953 1062.33 1905.78C1062.75 1868.4 974.859 1466.71 960 1238.24C948.563 1062.37 885.211 912.671 885.211 912.671Z" fill="url(#paint54_linear_0_1)" stroke="#7D8B44" stroke-width="6.3774"/>
<path d="M1054.07 1644.06C1040.15 1723.42 1017.84 1751.26 1017.84 1751.26C1017.84 1751.26 991.926 1766.94 1013.6 1592.62C1026.46 1489.15 1089.96 856.885 1089.96 856.885C1089.96 856.885 1083.35 1477.11 1054.07 1644.06Z" fill="url(#paint55_linear_0_1)"/>
<path d="M1084.97 956.347C1083.89 1017.09 1082.15 1099.82 1079.5 1187.76C1074.18 1363.79 1065.21 1560.29 1050.62 1643.46C1043.71 1682.9 1034.72 1709.43 1027.53 1726.03C1023.93 1734.34 1020.77 1740.16 1018.55 1743.87C1017.43 1745.73 1016.55 1747.06 1015.96 1747.91C1015.94 1747.93 1015.93 1747.95 1015.92 1747.97C1015.13 1747.48 1012.85 1745.25 1011.02 1736.58C1007.38 1719.34 1006.23 1680.21 1017.07 1593.05C1023.51 1541.26 1042.6 1357.28 1060.08 1186.3C1068.83 1100.8 1077.16 1018.53 1083.32 957.639C1084 950.869 1084.66 944.363 1085.28 938.146C1085.19 943.963 1085.08 950.037 1084.97 956.347Z" stroke="black" stroke-opacity="0.33" stroke-width="6.99457"/>
<path d="M1024.98 1663.88C1047.35 1714.57 1043.51 1739.93 1043.51 1739.93C1043.51 1739.93 1032.41 1760.04 977.308 1652.57C944.603 1588.78 734.624 1205.56 734.624 1205.56C734.624 1205.56 977.917 1557.24 1024.98 1663.88Z" fill="url(#paint56_linear_0_1)"/>
<path d="M771.484 1265.62C794.919 1300.1 826.361 1346.76 859.229 1396.64C925.999 1497.99 998.389 1612.29 1021.77 1665.28C1032.84 1690.36 1037.38 1709.07 1039.17 1721.41C1040.06 1727.58 1040.27 1732.16 1040.26 1735.16C1040.26 1736.31 1040.22 1737.23 1040.18 1737.92C1039.33 1737.84 1037.2 1737.25 1033.37 1733.92C1024.27 1726 1007.97 1704.71 980.423 1650.98C964.045 1619.03 903.344 1507.23 846.776 1403.47C818.701 1351.98 791.633 1302.45 771.484 1265.62Z" stroke="black" stroke-opacity="0.33" stroke-width="6.99457"/>
<path d="M932.02 1128.23C941.451 1167.66 955.51 1180.7 955.51 1180.7C955.51 1180.7 952.164 1161.57 946.207 1074.8C942.855 1025.98 955.146 868.07 955.146 868.07C955.146 868.07 912.18 1045.27 932.02 1128.23Z" fill="url(#paint57_linear_0_1)"/>
<path d="M948.086 918.219C945.304 932.737 942.317 949.59 939.601 967.565C931.332 1022.28 925.68 1086.69 935.421 1127.41C940.065 1146.83 945.82 1159.63 950.336 1167.51L950.337 1167.51C950.117 1165.49 949.873 1163.21 949.612 1160.64C948.026 1144.96 945.697 1118.45 942.717 1075.04C941.023 1050.36 943.278 998.433 945.927 952.925C946.639 940.703 947.382 928.921 948.086 918.219Z" stroke="black" stroke-opacity="0.33" stroke-width="6.99457"/>
<path d="M1032.2 1686.95C1031.11 1718.14 1038.87 1730.67 1038.87 1730.67C1038.87 1730.67 1040.31 1715.79 1053.67 1650.18C1061.19 1613.25 1102.66 1498.53 1102.66 1498.53C1102.66 1498.53 1034.47 1621.33 1032.2 1686.95Z" fill="url(#paint58_linear_0_1)"/>
<path d="M1081.95 1546.87C1078.57 1553.96 1075.03 1561.58 1071.48 1569.55C1054.13 1608.5 1036.8 1655.02 1035.69 1687.06C1035.26 1699.6 1036.28 1708.98 1037.61 1715.64C1037.68 1715.25 1037.74 1714.86 1037.81 1714.45C1039.85 1702.48 1043.56 1682.32 1050.24 1649.48C1054.05 1630.76 1066.39 1592.61 1077.67 1559.39C1079.12 1555.12 1080.55 1550.93 1081.95 1546.87Z" stroke="black" stroke-opacity="0.33" stroke-width="6.99457"/>
<path fill-rule="evenodd" clip-rule="evenodd" d="M1014.58 1738.54C1014.58 1738.54 1027.52 1687.18 1024.1 1607.38C1023.55 1594.56 1020.17 1578.65 1016.27 1560.3C1013.47 1547.12 1010.41 1532.68 1007.93 1517.22C1003.51 1549.12 1002.42 1577.43 1001.64 1597.4C1001.35 1604.85 1001.11 1611.14 1000.76 1616.03C990.937 1751.35 1014.58 1738.54 1014.58 1738.54Z" fill="url(#paint59_linear_0_1)"/>
<path d="M1024.72 1441.82C1064.15 1327.23 986.82 1083.32 986.82 1083.32C986.82 1083.32 1035.26 1289.62 1003 1463.16C1003.1 1481.17 1005.23 1500.4 1007.93 1517.22C1011.23 1493.33 1016.28 1466.35 1024.72 1441.82Z" fill="url(#paint60_linear_0_1)"/>
<path d="M1008.66 1540.86C1010.06 1547.88 1011.49 1554.62 1012.85 1561.03C1016.77 1579.49 1020.07 1595.07 1020.61 1607.54C1022.31 1647.22 1019.94 1679.81 1017.15 1702.46C1015.76 1713.79 1014.26 1722.62 1013.12 1728.61C1012.61 1731.26 1012.17 1733.34 1011.84 1734.85C1010.82 1734.08 1009.07 1732.07 1007.3 1726.89C1002.87 1713.92 999.335 1683.93 1004.24 1616.27C1004.6 1611.32 1004.85 1604.96 1005.14 1597.53C1005.72 1582.58 1006.47 1563.04 1008.66 1540.86ZM1004.73 1162.85C1008.9 1180.29 1013.2 1199.74 1017.12 1220.26C1024.3 1257.81 1030.24 1298.87 1031.94 1337.62C1033.64 1376.43 1031.06 1412.65 1021.41 1440.68C1015.6 1457.6 1011.38 1475.61 1008.24 1492.96C1007.22 1483.14 1006.56 1473.12 1006.5 1463.45C1022.65 1376.29 1018.57 1281.09 1010.48 1207.78C1008.7 1191.65 1006.73 1176.56 1004.73 1162.85Z" stroke="black" stroke-opacity="0.33" stroke-width="6.99457"/>
<path fill-rule="evenodd" clip-rule="evenodd" d="M910.319 1243.67C910.549 1263.34 913.319 1282.85 917.056 1300.75C910.835 1289.42 904.909 1277.27 900.24 1264.42C878.994 1132.29 791.705 997.209 791.705 997.209C791.705 997.209 909.245 1151.84 910.319 1243.67Z" fill="#8BC162"/>
<path d="M978.825 1458.19C978.825 1458.19 974.958 1418.23 952.144 1362.1C945.846 1346.6 930.738 1325.67 917.056 1300.75C923.908 1333.58 934.01 1361.02 937.665 1374.18C965.194 1473.33 978.825 1458.19 978.825 1458.19Z" fill="url(#paint61_linear_0_1)"/>
<path d="M925.933 1322.95C928.863 1327.78 931.714 1332.4 934.383 1336.77C940.68 1347.1 945.878 1355.97 948.903 1363.41C960.227 1391.27 966.843 1415.11 970.626 1431.95C972.517 1440.38 973.7 1447.05 974.408 1451.6C974.595 1452.8 974.748 1453.86 974.873 1454.75C974.009 1454.16 972.816 1453.09 971.305 1451.19C964.942 1443.19 954.799 1422.82 941.036 1373.25C938.192 1363.01 931.823 1345.16 925.933 1322.95ZM834.166 1065.68C838.569 1072.71 843.081 1080.11 847.595 1087.77C862.305 1112.76 877.008 1140.54 888.093 1167.74C899.199 1194.99 906.559 1221.4 906.82 1243.71C906.956 1255.28 907.958 1266.78 909.51 1277.91C907.402 1273.22 905.425 1268.42 903.637 1263.53C892.897 1197.09 865.651 1130.07 841.151 1079.74C838.793 1074.9 836.458 1070.2 834.166 1065.68Z" stroke="black" stroke-opacity="0.33" stroke-width="6.99457"/>
<g clip-path="url(#paint62_diamond_0_1_clip_path)" data-figma-skip-parse="true"><g transform="matrix(0.046726 0.259641 -0.0343835 0.00855806 851.428 801.859)"><rect x="0" y="0" width="577.807" height="816.379" fill="url(#paint62_diamond_0_1)" opacity="1" shape-rendering="crispEdges"/><rect x="0" y="0" width="577.807" height="816.379" transform="scale(1 -1)" fill="url(#paint62_diamond_0_1)" opacity="1" shape-rendering="crispEdges"/><rect x="0" y="0" width="577.807" height="816.379" transform="scale(-1 1)" fill="url(#paint62_diamond_0_1)" opacity="1" shape-rendering="crispEdges"/><rect x="0" y="0" width="577.807" height="816.379" transform="scale(-1)" fill="url(#paint62_diamond_0_1)" opacity="1" shape-rendering="crispEdges"/></g></g><path d="M816.741 665.025C824.015 644.294 895.927 943.551 888.549 939.127C881.171 934.702 883.903 941.087 871.344 920.251C858.786 899.415 809.467 685.756 816.741 665.025Z" data-figma-gradient-fill="{&#34;type&#34;:&#34;GRADIENT_DIAMOND&#34;,&#34;stops&#34;:[{&#34;color&#34;:{&#34;r&#34;:0.66923069953918457,&#34;g&#34;:0.48840966820716858,&#34;b&#34;:0.48840966820716858,&#34;a&#34;:1.0},&#34;position&#34;:0.0},{&#34;color&#34;:{&#34;r&#34;:1.0,&#34;g&#34;:1.0,&#34;b&#34;:1.0,&#34;a&#34;:1.0},&#34;position&#34;:1.0}],&#34;stopsVar&#34;:[{&#34;color&#34;:{&#34;r&#34;:0.66923069953918457,&#34;g&#34;:0.48840966820716858,&#34;b&#34;:0.48840966820716858,&#34;a&#34;:1.0},&#34;position&#34;:0.0},{&#34;color&#34;:{&#34;r&#34;:1.0,&#34;g&#34;:1.0,&#34;b&#34;:1.0,&#34;a&#34;:1.0},&#34;position&#34;:1.0}],&#34;transform&#34;:{&#34;m00&#34;:93.4519042968750,&#34;m01&#34;:-68.767074584960938,&#34;m02&#34;:839.08532714843750,&#34;m10&#34;:519.2829589843750,&#34;m11&#34;:17.116109848022461,&#34;m12&#34;:533.65917968750},&#34;opacity&#34;:1.0,&#34;blendMode&#34;:&#34;NORMAL&#34;,&#34;visible&#34;:true}" stroke="#B8A3A6" stroke-width="9"/>
</g>
<g opacity="0.51">
<path d="M1401.48 1145.57L1411.14 1142.98C1411.14 1142.98 1402.39 1245 1465.91 1465.24C1546.11 1743.31 1599.1 2064.34 1617.87 2096.38C1643.87 2140.77 1683.37 2210.08 1683.37 2210.08L1662.41 2215.7C1662.41 2215.7 1620.34 2155.98 1602.48 2113.29C1588.35 2079.49 1522.13 1682.05 1451.85 1469.01C1397.75 1305.03 1401.48 1145.57 1401.48 1145.57Z" fill="url(#paint63_linear_0_1)" stroke="#7D8B44" stroke-width="6.3774"/>
<path d="M1513.85 1872.5C1555.97 1939.43 1586.93 1956.44 1586.93 1956.44C1586.93 1956.44 1616.76 1961.08 1532.49 1810.78C1482.47 1721.57 1190.86 1170.83 1190.86 1170.83C1190.86 1170.83 1425.23 1731.72 1513.85 1872.5Z" fill="url(#paint64_linear_0_1)"/>
<path d="M1232.1 1259.33C1255.46 1314.1 1287.52 1388.6 1322.34 1467.49C1392.05 1625.41 1472.69 1800.55 1516.83 1870.68C1537.76 1903.92 1555.85 1924.68 1568.64 1937.09C1575.03 1943.29 1580.1 1947.41 1583.53 1949.96C1585.24 1951.23 1586.55 1952.11 1587.41 1952.66C1587.43 1952.67 1587.45 1952.68 1587.47 1952.7C1587.47 1952.69 1587.47 1952.69 1587.48 1952.69C1588.02 1951.98 1589.35 1949.14 1587.85 1940.54C1584.88 1923.56 1571.56 1887.61 1529.42 1812.45C1504.39 1767.81 1418.96 1607.77 1339.81 1458.96C1300.23 1384.54 1262.22 1312.9 1234.1 1259.88C1230.99 1254.02 1228 1248.38 1225.15 1242.99C1227.37 1248.22 1229.69 1253.67 1232.1 1259.33Z" stroke="black" stroke-opacity="0.33" stroke-width="6.99457"/>
<path d="M1548.15 1879.71C1546.04 1934.05 1558.93 1955.67 1558.93 1955.67C1558.93 1955.67 1576.64 1969.81 1588.24 1851.76C1595.13 1781.7 1649.06 1355.75 1649.06 1355.75C1649.06 1355.75 1552.6 1765.41 1548.15 1879.71Z" fill="url(#paint65_linear_0_1)"/>
<path d="M1636.91 1424.14C1627.85 1464.14 1615.84 1518.11 1603.7 1575.54C1579 1692.36 1553.86 1823.01 1551.65 1879.8C1550.6 1906.67 1553.27 1925.34 1556.15 1937.2C1557.59 1943.13 1559.08 1947.37 1560.19 1950.08C1560.62 1951.13 1560.99 1951.95 1561.28 1952.55C1562.03 1952.18 1563.79 1950.88 1566.13 1946.41C1571.66 1935.86 1578.95 1910.5 1584.76 1851.48C1588.21 1816.39 1603.42 1692.32 1617.76 1577.11C1624.86 1520.01 1631.76 1465.06 1636.91 1424.14Z" stroke="black" stroke-opacity="0.33" stroke-width="6.99457"/>
<path d="M1437.34 1358.72C1443.1 1398.03 1434.84 1415.08 1434.84 1415.08C1434.84 1415.08 1430.91 1396.47 1404.51 1315.45C1389.66 1269.87 1320.14 1130.99 1320.14 1130.99C1320.14 1130.99 1425.24 1276.01 1437.34 1358.72Z" fill="url(#paint66_linear_0_1)"/>
<path d="M1345.2 1174.02C1353.12 1186.17 1362.08 1200.34 1371.2 1215.64C1385.05 1238.87 1399.26 1264.64 1410.74 1289.71C1422.25 1314.83 1430.93 1339.04 1433.88 1359.23C1436.71 1378.58 1436.08 1392.33 1434.79 1401.14C1434.79 1401.15 1434.79 1401.16 1434.79 1401.17C1434.25 1399.26 1433.64 1397.1 1432.93 1394.67C1428.64 1379.84 1421.04 1354.89 1407.84 1314.36C1400.32 1291.31 1379.12 1244.97 1359.91 1204.62C1354.78 1193.83 1349.77 1183.45 1345.2 1174.02Z" stroke="black" stroke-opacity="0.33" stroke-width="6.99457"/>
<path d="M1549.94 1903.35C1562.42 1931.27 1559.83 1945.54 1559.83 1945.54C1559.83 1945.54 1553.02 1932.56 1516.47 1877.91C1495.9 1847.16 1415.18 1758.34 1415.18 1758.34C1415.18 1758.34 1523.68 1844.6 1549.94 1903.35Z" fill="url(#paint67_linear_0_1)"/>
<path d="M1452.31 1794.68C1458.03 1799.84 1464.09 1805.43 1470.29 1811.32C1485.44 1825.72 1501.37 1841.92 1515.12 1858.14C1528.91 1874.4 1540.36 1890.5 1546.73 1904.74C1551.74 1915.96 1554.24 1924.86 1555.45 1931.39C1555.25 1931.07 1555.05 1930.74 1554.84 1930.4C1548.54 1920.28 1537.68 1903.34 1519.39 1876C1508.96 1860.39 1483.47 1830.32 1460.76 1804.32C1457.89 1801.04 1455.06 1797.81 1452.31 1794.68Z" stroke="black" stroke-opacity="0.33" stroke-width="6.99457"/>
<path fill-rule="evenodd" clip-rule="evenodd" d="M1585.27 1943.68C1585.27 1943.68 1554.37 1901.83 1528.17 1828.08C1523.97 1816.23 1521.25 1800.53 1518.12 1782.41C1515.87 1769.4 1513.4 1755.15 1510.01 1740.19C1525.85 1767.53 1537.28 1792.83 1545.35 1810.68C1548.36 1817.35 1550.9 1822.97 1553.03 1827.27C1611.94 1946.55 1585.27 1943.68 1585.27 1943.68Z" fill="url(#paint68_linear_0_1)"/>
<path d="M1466.67 1677.92C1387.9 1588.47 1369.94 1338.25 1369.94 1338.25C1369.94 1338.25 1400.89 1543.59 1494.69 1689.25C1501.23 1705.65 1506.33 1723.91 1510.01 1740.19C1498.15 1719.71 1483.54 1697.08 1466.67 1677.92Z" fill="url(#paint69_linear_0_1)"/>
<path d="M1518.04 1761.96C1519.33 1768.86 1520.48 1775.51 1521.57 1781.84C1524.73 1800.07 1527.4 1815.43 1531.48 1826.94C1544.5 1863.6 1558.69 1892.32 1569.61 1911.85C1575.07 1921.62 1579.71 1929.09 1582.98 1934.1C1584.41 1936.3 1585.57 1938.02 1586.43 1939.26C1587.1 1938.2 1588 1935.73 1587.74 1930.35C1587.08 1916.95 1579.33 1888.42 1549.88 1828.79C1547.72 1824.42 1545.15 1818.74 1542.15 1812.1C1536.11 1798.74 1528.23 1781.29 1518.04 1761.96ZM1382.61 1417.28C1385.15 1434.64 1388.32 1453.85 1392.21 1473.9C1399.36 1510.67 1408.95 1550.15 1421.64 1585.97C1434.34 1621.85 1450.05 1653.77 1469.31 1675.64C1480.94 1688.85 1491.48 1703.65 1500.79 1718.25C1498.12 1708.96 1495.04 1699.62 1491.55 1690.82C1444.48 1617.63 1413.23 1529.64 1393.76 1460.04C1389.49 1444.8 1385.79 1430.43 1382.61 1417.28Z" stroke="black" stroke-opacity="0.33" stroke-width="6.99457"/>
<path fill-rule="evenodd" clip-rule="evenodd" d="M1499.97 1455.53C1506.99 1473.48 1511.6 1492.22 1514.72 1509.87C1516.33 1497.27 1517.35 1484.03 1516.96 1470.64C1488.07 1342.75 1519.4 1187.68 1519.4 1187.68C1519.4 1187.68 1467.17 1371.71 1499.97 1455.53Z" fill="#8BC162"/>
<path d="M1515.31 1675.78C1515.31 1675.78 1504.19 1638.05 1504.72 1578.6C1504.86 1562.19 1511.19 1537.58 1514.72 1509.87C1520.44 1542.23 1521.16 1570.9 1522.61 1584.21C1533.53 1684.48 1515.31 1675.78 1515.31 1675.78Z" fill="url(#paint70_linear_0_1)"/>
<path d="M1514.65 1533.36C1513.71 1538.83 1512.76 1544.09 1511.89 1549.05C1509.84 1560.76 1508.28 1570.74 1508.21 1578.61C1507.95 1608.11 1510.58 1632.2 1513.27 1648.9C1514.61 1657.25 1515.97 1663.74 1516.98 1668.14C1517.25 1669.29 1517.49 1670.29 1517.71 1671.15C1518.29 1670.29 1519.01 1668.88 1519.72 1666.58C1522.67 1656.98 1524.6 1634.74 1519.13 1584.62C1518 1574.25 1517.35 1555.69 1514.65 1533.36ZM1505.16 1265.74C1503.66 1273.73 1502.2 1282.09 1500.84 1290.7C1496.37 1318.84 1492.94 1349.52 1492.66 1378.33C1492.38 1407.19 1495.27 1433.89 1503.23 1454.23C1507.36 1464.79 1510.66 1475.61 1513.32 1486.31C1513.55 1481.27 1513.62 1476.19 1513.48 1471.09C1499 1406.74 1499.64 1335.76 1503.86 1280.95C1504.26 1275.73 1504.7 1270.65 1505.16 1265.74Z" stroke="black" stroke-opacity="0.33" stroke-width="6.99457"/>
<g clip-path="url(#paint71_diamond_0_1_clip_path)" data-figma-skip-parse="true"><g transform="matrix(0.0521632 0.253159 0.0350704 -0.00497734 1392.07 1032.39)"><rect x="0" y="0" width="578.512" height="816.503" fill="url(#paint71_diamond_0_1)" opacity="1" shape-rendering="crispEdges"/><rect x="0" y="0" width="578.512" height="816.503" transform="scale(1 -1)" fill="url(#paint71_diamond_0_1)" opacity="1" shape-rendering="crispEdges"/><rect x="0" y="0" width="578.512" height="816.503" transform="scale(-1 1)" fill="url(#paint71_diamond_0_1)" opacity="1" shape-rendering="crispEdges"/><rect x="0" y="0" width="578.512" height="816.503" transform="scale(-1)" fill="url(#paint71_diamond_0_1)" opacity="1" shape-rendering="crispEdges"/></g></g><path d="M1373.92 895.24C1359.53 879.108 1402.89 1177.59 1408.11 1170.84C1413.34 1164.08 1413.15 1170.89 1417.14 1147.31C1421.13 1123.73 1388.3 911.373 1373.92 895.24Z" data-figma-gradient-fill="{&#34;type&#34;:&#34;GRADIENT_DIAMOND&#34;,&#34;stops&#34;:[{&#34;color&#34;:{&#34;r&#34;:0.66923069953918457,&#34;g&#34;:0.48840966820716858,&#34;b&#34;:0.48840966820716858,&#34;a&#34;:1.0},&#34;position&#34;:0.0},{&#34;color&#34;:{&#34;r&#34;:1.0,&#34;g&#34;:1.0,&#34;b&#34;:1.0,&#34;a&#34;:1.0},&#34;position&#34;:1.0}],&#34;stopsVar&#34;:[{&#34;color&#34;:{&#34;r&#34;:0.66923069953918457,&#34;g&#34;:0.48840966820716858,&#34;b&#34;:0.48840966820716858,&#34;a&#34;:1.0},&#34;position&#34;:0.0},{&#34;color&#34;:{&#34;r&#34;:1.0,&#34;g&#34;:1.0,&#34;b&#34;:1.0,&#34;a&#34;:1.0},&#34;position&#34;:1.0}],&#34;transform&#34;:{&#34;m00&#34;:104.32639312744141,&#34;m01&#34;:70.140754699707031,&#34;m02&#34;:1304.832031250,&#34;m10&#34;:506.3186035156250,&#34;m11&#34;:-9.9546890258789062,&#34;m12&#34;:784.2072753906250},&#34;opacity&#34;:1.0,&#34;blendMode&#34;:&#34;NORMAL&#34;,&#34;visible&#34;:true}" stroke="#B8A3A6" stroke-width="9"/>
</g>
<defs>
<clipPath id="paint8_diamond_0_1_clip_path"><path d="M1866.44 808.164C1860.12 788.042 1774.85 1067.94 1782.41 1064.18C1789.97 1060.42 1786.96 1066.32 1800.43 1047.28C1813.9 1028.24 1872.76 828.287 1866.44 808.164Z"/></clipPath><clipPath id="paint17_diamond_0_1_clip_path"><path d="M1547.49 533.706C1559.25 515.45 1561.85 818.814 1555.66 812.907C1549.47 807 1550.69 813.742 1543.15 790.92C1535.62 768.097 1535.73 551.961 1547.49 533.706Z"/></clipPath><clipPath id="paint26_diamond_0_1_clip_path"><path d="M1258.1 530.276C1253.1 508.738 1149.31 801.057 1157.13 797.399C1164.94 793.74 1161.54 799.851 1176.28 780.292C1191.01 760.733 1263.1 551.815 1258.1 530.276Z"/></clipPath><clipPath id="paint35_diamond_0_1_clip_path"><path d="M1241.6 871.822C1251.99 852.796 1276.84 1154.49 1270.24 1149.06C1263.63 1143.64 1265.34 1150.26 1256.15 1128.1C1246.96 1105.94 1231.21 890.848 1241.6 871.822Z"/></clipPath><clipPath id="paint44_diamond_0_1_clip_path"><path d="M831.54 528.966C835.766 507.197 949.98 796.786 942.037 793.385C934.094 789.983 937.717 795.995 922.285 776.884C906.854 757.773 827.313 550.735 831.54 528.966Z"/></clipPath><clipPath id="paint53_diamond_0_1_clip_path"><path d="M1714.55 783.828C1710.1 762.914 1599.44 1039.23 1607.32 1036.06C1615.2 1032.89 1611.66 1038.61 1626.83 1020.47C1642 1002.32 1719.01 804.742 1714.55 783.828Z"/></clipPath><clipPath id="paint62_diamond_0_1_clip_path"><path d="M816.741 665.025C824.015 644.294 895.927 943.551 888.549 939.127C881.171 934.702 883.903 941.087 871.344 920.251C858.786 899.415 809.467 685.756 816.741 665.025Z"/></clipPath><clipPath id="paint71_diamond_0_1_clip_path"><path d="M1373.92 895.24C1359.53 879.108 1402.89 1177.59 1408.11 1170.84C1413.34 1164.08 1413.15 1170.89 1417.14 1147.31C1421.13 1123.73 1388.3 911.373 1373.92 895.24Z"/></clipPath><linearGradient id="paint0_linear_0_1" x1="1620.11" y1="1807.09" x2="1571.03" y2="2085.46" gradientUnits="userSpaceOnUse">
<stop stop-color="#5E6737"/>
<stop offset="0.504808" stop-color="#E6E6C5"/>
<stop offset="0.668269" stop-color="#71623D"/>
</linearGradient>
<linearGradient id="paint1_linear_0_1" x1="1554.25" y1="975.779" x2="1602.34" y2="1829.06" gradientUnits="userSpaceOnUse">
<stop offset="0.466346" stop-color="#8BC163"/>
<stop offset="0.754808" stop-color="#798451"/>
<stop offset="0.879808" stop-color="#9BAD53"/>
</linearGradient>
<linearGradient id="paint2_linear_0_1" x1="1902.26" y1="1314.33" x2="1615.14" y2="1828.97" gradientUnits="userSpaceOnUse">
<stop offset="0.600962" stop-color="#5F8343"/>
<stop offset="0.774038" stop-color="#717A50"/>
<stop offset="1" stop-color="#A1B454"/>
</linearGradient>
<linearGradient id="paint3_linear_0_1" x1="1752.29" y1="1000.26" x2="1687.25" y2="1285.61" gradientUnits="userSpaceOnUse">
<stop offset="0.466346" stop-color="#8BC163"/>
<stop offset="0.754808" stop-color="#798451"/>
<stop offset="0.879808" stop-color="#9BAD53"/>
</linearGradient>
<linearGradient id="paint4_linear_0_1" x1="1569.58" y1="1581.83" x2="1576.41" y2="1807.51" gradientUnits="userSpaceOnUse">
<stop offset="0.600962" stop-color="#5F8343"/>
<stop offset="0.774038" stop-color="#717A50"/>
<stop offset="1" stop-color="#A1B454"/>
</linearGradient>
<linearGradient id="paint5_linear_0_1" x1="1638.34" y1="1195.54" x2="1643.13" y2="1816.07" gradientUnits="userSpaceOnUse">
<stop offset="0.466346" stop-color="#8BC163"/>
<stop offset="0.754808" stop-color="#798451"/>
<stop offset="0.879808" stop-color="#9BAD53"/>
</linearGradient>
<linearGradient id="paint6_linear_0_1" x1="1638.34" y1="1195.54" x2="1643.13" y2="1816.07" gradientUnits="userSpaceOnUse">
<stop offset="0.600962" stop-color="#5F8343"/>
<stop offset="0.774038" stop-color="#717A50"/>
<stop offset="1" stop-color="#A1B454"/>
</linearGradient>
<linearGradient id="paint7_linear_0_1" x1="1847.87" y1="1115.8" x2="1701.62" y2="1562.77" gradientUnits="userSpaceOnUse">
<stop offset="0.600962" stop-color="#5F8343"/>
<stop offset="0.774038" stop-color="#717A50"/>
<stop offset="1" stop-color="#A1B454"/>
</linearGradient>
<linearGradient id="paint8_diamond_0_1" x1="0" y1="0" x2="500" y2="500" gradientUnits="userSpaceOnUse">
<stop stop-color="#AB7D7D"/>
<stop offset="1" stop-color="white"/>
</linearGradient>
<linearGradient id="paint9_linear_0_1" x1="1501.12" y1="1599.83" x2="1469.44" y2="1891.35" gradientUnits="userSpaceOnUse">
<stop stop-color="#5E6737"/>
<stop offset="0.504808" stop-color="#E6E6C5"/>
<stop offset="0.668269" stop-color="#71623D"/>
</linearGradient>
<linearGradient id="paint10_linear_0_1" x1="1799.61" y1="789.929" x2="1498.36" y2="1621.88" gradientUnits="userSpaceOnUse">
<stop offset="0.466346" stop-color="#8BC163"/>
<stop offset="0.754808" stop-color="#798451"/>
<stop offset="0.879808" stop-color="#9BAD53"/>
</linearGradient>
<linearGradient id="paint11_linear_0_1" x1="1369.85" y1="1028.05" x2="1513.17" y2="1619.8" gradientUnits="userSpaceOnUse">
<stop offset="0.600962" stop-color="#5F8343"/>
<stop offset="0.774038" stop-color="#717A50"/>
<stop offset="1" stop-color="#A1B454"/>
</linearGradient>
<linearGradient id="paint12_linear_0_1" x1="1602.66" y1="757.79" x2="1585.4" y2="1060.88" gradientUnits="userSpaceOnUse">
<stop offset="0.466346" stop-color="#8BC163"/>
<stop offset="0.754808" stop-color="#798451"/>
<stop offset="0.879808" stop-color="#9BAD53"/>
</linearGradient>
<linearGradient id="paint13_linear_0_1" x1="1613.37" y1="1389.71" x2="1539.7" y2="1611.65" gradientUnits="userSpaceOnUse">
<stop offset="0.600962" stop-color="#5F8343"/>
<stop offset="0.774038" stop-color="#717A50"/>
<stop offset="1" stop-color="#A1B454"/>
</linearGradient>
<linearGradient id="paint14_linear_0_1" x1="1656.73" y1="984.997" x2="1468.46" y2="1599.74" gradientUnits="userSpaceOnUse">
<stop offset="0.466346" stop-color="#8BC163"/>
<stop offset="0.754808" stop-color="#798451"/>
<stop offset="0.879808" stop-color="#9BAD53"/>
</linearGradient>
<linearGradient id="paint15_linear_0_1" x1="1656.73" y1="984.997" x2="1468.46" y2="1599.74" gradientUnits="userSpaceOnUse">
<stop offset="0.600962" stop-color="#5F8343"/>
<stop offset="0.774038" stop-color="#717A50"/>
<stop offset="1" stop-color="#A1B454"/>
</linearGradient>
<linearGradient id="paint16_linear_0_1" x1="1478.23" y1="845.676" x2="1497.06" y2="1332.81" gradientUnits="userSpaceOnUse">
<stop offset="0.600962" stop-color="#5F8343"/>
<stop offset="0.774038" stop-color="#717A50"/>
<stop offset="1" stop-color="#A1B454"/>
</linearGradient>
<linearGradient id="paint17_diamond_0_1" x1="0" y1="0" x2="500" y2="500" gradientUnits="userSpaceOnUse">
<stop stop-color="#AB7D7D"/>
<stop offset="1" stop-color="white"/>
</linearGradient>
<linearGradient id="paint18_linear_0_1" x1="945.742" y1="1575.98" x2="878.276" y2="1868.21" gradientUnits="userSpaceOnUse">
<stop stop-color="#5E6737"/>
<stop offset="0.504808" stop-color="#E6E6C5"/>
<stop offset="0.668269" stop-color="#71623D"/>
</linearGradient>
<linearGradient id="paint19_linear_0_1" x1="934.56" y1="694.36" x2="950.36" y2="1598.04" gradientUnits="userSpaceOnUse">
<stop offset="0.466346" stop-color="#8BC163"/>
<stop offset="0.754808" stop-color="#798451"/>
<stop offset="0.879808" stop-color="#9BAD53"/>
</linearGradient>
<linearGradient id="paint20_linear_0_1" x1="1260.63" y1="1066.89" x2="920.234" y2="1586.39" gradientUnits="userSpaceOnUse">
<stop offset="0.600962" stop-color="#5F8343"/>
<stop offset="0.774038" stop-color="#717A50"/>
<stop offset="1" stop-color="#A1B454"/>
</linearGradient>
<linearGradient id="paint21_linear_0_1" x1="1131.18" y1="728.559" x2="1045.54" y2="1026.99" gradientUnits="userSpaceOnUse">
<stop offset="0.466346" stop-color="#8BC163"/>
<stop offset="0.754808" stop-color="#798451"/>
<stop offset="0.879808" stop-color="#9BAD53"/>
</linearGradient>
<linearGradient id="paint22_linear_0_1" x1="909.989" y1="1335.71" x2="907.605" y2="1574.64" gradientUnits="userSpaceOnUse">
<stop offset="0.600962" stop-color="#5F8343"/>
<stop offset="0.774038" stop-color="#717A50"/>
<stop offset="1" stop-color="#A1B454"/>
</linearGradient>
<linearGradient id="paint23_linear_0_1" x1="1004.26" y1="930.225" x2="982.063" y2="1586.9" gradientUnits="userSpaceOnUse">
<stop offset="0.466346" stop-color="#8BC163"/>
<stop offset="0.754808" stop-color="#798451"/>
<stop offset="0.879808" stop-color="#9BAD53"/>
</linearGradient>
<linearGradient id="paint24_linear_0_1" x1="1004.26" y1="930.225" x2="982.063" y2="1586.9" gradientUnits="userSpaceOnUse">
<stop offset="0.600962" stop-color="#5F8343"/>
<stop offset="0.774038" stop-color="#717A50"/>
<stop offset="1" stop-color="#A1B454"/>
</linearGradient>
<linearGradient id="paint25_linear_0_1" x1="1219.26" y1="854.721" x2="1035.75" y2="1318.07" gradientUnits="userSpaceOnUse">
<stop offset="0.600962" stop-color="#5F8343"/>
<stop offset="0.774038" stop-color="#717A50"/>
<stop offset="1" stop-color="#A1B454"/>
</linearGradient>
<linearGradient id="paint26_diamond_0_1" x1="0" y1="0" x2="500" y2="500" gradientUnits="userSpaceOnUse">
<stop stop-color="#AB7D7D"/>
<stop offset="1" stop-color="white"/>
</linearGradient>
<linearGradient id="paint27_linear_0_1" x1="1273.6" y1="1936.13" x2="1263.39" y2="2228.54" gradientUnits="userSpaceOnUse">
<stop stop-color="#5E6737"/>
<stop offset="0.504808" stop-color="#E6E6C5"/>
<stop offset="0.668269" stop-color="#71623D"/>
</linearGradient>
<linearGradient id="paint28_linear_0_1" x1="1511.85" y1="1108.37" x2="1273.32" y2="1958.52" gradientUnits="userSpaceOnUse">
<stop offset="0.466346" stop-color="#8BC163"/>
<stop offset="0.754808" stop-color="#798451"/>
<stop offset="0.879808" stop-color="#9BAD53"/>
</linearGradient>
<linearGradient id="paint29_linear_0_1" x1="1100.72" y1="1376.74" x2="1286.26" y2="1955.39" gradientUnits="userSpaceOnUse">
<stop offset="0.600962" stop-color="#5F8343"/>
<stop offset="0.774038" stop-color="#717A50"/>
<stop offset="1" stop-color="#A1B454"/>
</linearGradient>
<linearGradient id="paint30_linear_0_1" x1="1313.06" y1="1090.78" x2="1318.03" y2="1393.65" gradientUnits="userSpaceOnUse">
<stop offset="0.466346" stop-color="#8BC163"/>
<stop offset="0.754808" stop-color="#798451"/>
<stop offset="0.879808" stop-color="#9BAD53"/>
</linearGradient>
<linearGradient id="paint31_linear_0_1" x1="1370.12" y1="1718.83" x2="1313.14" y2="1945.12" gradientUnits="userSpaceOnUse">
<stop offset="0.600962" stop-color="#5F8343"/>
<stop offset="0.774038" stop-color="#717A50"/>
<stop offset="1" stop-color="#A1B454"/>
</linearGradient>
<linearGradient id="paint32_linear_0_1" x1="1383.66" y1="1312.93" x2="1241.52" y2="1938.55" gradientUnits="userSpaceOnUse">
<stop offset="0.466346" stop-color="#8BC163"/>
<stop offset="0.754808" stop-color="#798451"/>
<stop offset="0.879808" stop-color="#9BAD53"/>
</linearGradient>
<linearGradient id="paint33_linear_0_1" x1="1383.66" y1="1312.93" x2="1241.52" y2="1938.55" gradientUnits="userSpaceOnUse">
<stop offset="0.600962" stop-color="#5F8343"/>
<stop offset="0.774038" stop-color="#717A50"/>
<stop offset="1" stop-color="#A1B454"/>
</linearGradient>
<linearGradient id="paint34_linear_0_1" x1="1195.43" y1="1187.33" x2="1249.64" y2="1670.74" gradientUnits="userSpaceOnUse">
<stop offset="0.600962" stop-color="#5F8343"/>
<stop offset="0.774038" stop-color="#717A50"/>
<stop offset="1" stop-color="#A1B454"/>
</linearGradient>
<linearGradient id="paint35_diamond_0_1" x1="0" y1="0" x2="500" y2="500" gradientUnits="userSpaceOnUse">
<stop stop-color="#AB7D7D"/>
<stop offset="1" stop-color="white"/>
</linearGradient>
<linearGradient id="paint36_linear_0_1" x1="1181.22" y1="1566.91" x2="1259.12" y2="1857.65" gradientUnits="userSpaceOnUse">
<stop stop-color="#5E6737"/>
<stop offset="0.504808" stop-color="#E6E6C5"/>
<stop offset="0.668269" stop-color="#71623D"/>
</linearGradient>
<linearGradient id="paint37_linear_0_1" x1="1160.83" y1="682.467" x2="1175.86" y2="1589.22" gradientUnits="userSpaceOnUse">
<stop offset="0.466346" stop-color="#8BC163"/>
<stop offset="0.754808" stop-color="#798451"/>
<stop offset="0.879808" stop-color="#9BAD53"/>
</linearGradient>
<linearGradient id="paint38_linear_0_1" x1="848.23" y1="1067.15" x2="1208.27" y2="1575.65" gradientUnits="userSpaceOnUse">
<stop offset="0.600962" stop-color="#5F8343"/>
<stop offset="0.774038" stop-color="#717A50"/>
<stop offset="1" stop-color="#A1B454"/>
</linearGradient>
<linearGradient id="paint39_linear_0_1" x1="965.509" y1="723.469" x2="1061.91" y2="1019.77" gradientUnits="userSpaceOnUse">
<stop offset="0.466346" stop-color="#8BC163"/>
<stop offset="0.754808" stop-color="#798451"/>
<stop offset="0.879808" stop-color="#9BAD53"/>
</linearGradient>
<linearGradient id="paint40_linear_0_1" x1="1208.35" y1="1324.76" x2="1218.93" y2="1564.28" gradientUnits="userSpaceOnUse">
<stop offset="0.600962" stop-color="#5F8343"/>
<stop offset="0.774038" stop-color="#717A50"/>
<stop offset="1" stop-color="#A1B454"/>
</linearGradient>
<linearGradient id="paint41_linear_0_1" x1="1099.6" y1="921.364" x2="1144.41" y2="1579.16" gradientUnits="userSpaceOnUse">
<stop offset="0.466346" stop-color="#8BC163"/>
<stop offset="0.754808" stop-color="#798451"/>
<stop offset="0.879808" stop-color="#9BAD53"/>
</linearGradient>
<linearGradient id="paint42_linear_0_1" x1="1099.6" y1="921.364" x2="1144.41" y2="1579.16" gradientUnits="userSpaceOnUse">
<stop offset="0.600962" stop-color="#5F8343"/>
<stop offset="0.774038" stop-color="#717A50"/>
<stop offset="1" stop-color="#A1B454"/>
</linearGradient>
<linearGradient id="paint43_linear_0_1" x1="881.986" y1="852.985" x2="1082.5" y2="1311.14" gradientUnits="userSpaceOnUse">
<stop offset="0.600962" stop-color="#5F8343"/>
<stop offset="0.774038" stop-color="#717A50"/>
<stop offset="1" stop-color="#A1B454"/>
</linearGradient>
<linearGradient id="paint44_diamond_0_1" x1="0" y1="0" x2="500" y2="500" gradientUnits="userSpaceOnUse">
<stop stop-color="#AB7D7D"/>
<stop offset="1" stop-color="white"/>
</linearGradient>
<linearGradient id="paint45_linear_0_1" x1="1377.44" y1="1774.88" x2="1303" y2="2052.71" gradientUnits="userSpaceOnUse">
<stop stop-color="#5E6737"/>
<stop offset="0.504808" stop-color="#E6E6C5"/>
<stop offset="0.668269" stop-color="#71623D"/>
</linearGradient>
<linearGradient id="paint46_linear_0_1" x1="1387.95" y1="927.312" x2="1364.43" y2="1795.82" gradientUnits="userSpaceOnUse">
<stop offset="0.466346" stop-color="#8BC163"/>
<stop offset="0.754808" stop-color="#798451"/>
<stop offset="0.879808" stop-color="#9BAD53"/>
</linearGradient>
<linearGradient id="paint47_linear_0_1" x1="1703.89" y1="1299.53" x2="1365.16" y2="1792.97" gradientUnits="userSpaceOnUse">
<stop offset="0.600962" stop-color="#5F8343"/>
<stop offset="0.774038" stop-color="#717A50"/>
<stop offset="1" stop-color="#A1B454"/>
</linearGradient>
<linearGradient id="paint48_linear_0_1" x1="1583.14" y1="968.784" x2="1491.67" y2="1252.18" gradientUnits="userSpaceOnUse">
<stop offset="0.466346" stop-color="#8BC163"/>
<stop offset="0.754808" stop-color="#798451"/>
<stop offset="0.879808" stop-color="#9BAD53"/>
</linearGradient>
<linearGradient id="paint49_linear_0_1" x1="1347.7" y1="1542.46" x2="1335.42" y2="1771.7" gradientUnits="userSpaceOnUse">
<stop offset="0.600962" stop-color="#5F8343"/>
<stop offset="0.774038" stop-color="#717A50"/>
<stop offset="1" stop-color="#A1B454"/>
</linearGradient>
<linearGradient id="paint50_linear_0_1" x1="1451.64" y1="1156.99" x2="1403.46" y2="1786.21" gradientUnits="userSpaceOnUse">
<stop offset="0.466346" stop-color="#8BC163"/>
<stop offset="0.754808" stop-color="#798451"/>
<stop offset="0.879808" stop-color="#9BAD53"/>
</linearGradient>
<linearGradient id="paint51_linear_0_1" x1="1451.64" y1="1156.99" x2="1403.46" y2="1786.21" gradientUnits="userSpaceOnUse">
<stop offset="0.600962" stop-color="#5F8343"/>
<stop offset="0.774038" stop-color="#717A50"/>
<stop offset="1" stop-color="#A1B454"/>
</linearGradient>
<linearGradient id="paint52_linear_0_1" x1="1667.85" y1="1093.86" x2="1478.96" y2="1533.36" gradientUnits="userSpaceOnUse">
<stop offset="0.600962" stop-color="#5F8343"/>
<stop offset="0.774038" stop-color="#717A50"/>
<stop offset="1" stop-color="#A1B454"/>
</linearGradient>
<linearGradient id="paint53_diamond_0_1" x1="0" y1="0" x2="500" y2="500" gradientUnits="userSpaceOnUse">
<stop stop-color="#AB7D7D"/>
<stop offset="1" stop-color="white"/>
</linearGradient>
<linearGradient id="paint54_linear_0_1" x1="1015.41" y1="1729.4" x2="1051.22" y2="2024.78" gradientUnits="userSpaceOnUse">
<stop stop-color="#5E6737"/>
<stop offset="0.504808" stop-color="#E6E6C5"/>
<stop offset="0.668269" stop-color="#71623D"/>
</linearGradient>
<linearGradient id="paint55_linear_0_1" x1="1120.84" y1="860.666" x2="1011.78" y2="1751.1" gradientUnits="userSpaceOnUse">
<stop offset="0.466346" stop-color="#8BC163"/>
<stop offset="0.754808" stop-color="#798451"/>
<stop offset="0.879808" stop-color="#9BAD53"/>
</linearGradient>
<linearGradient id="paint56_linear_0_1" x1="756.829" y1="1194.24" x2="1036.83" y2="1743.79" gradientUnits="userSpaceOnUse">
<stop offset="0.600962" stop-color="#5F8343"/>
<stop offset="0.774038" stop-color="#717A50"/>
<stop offset="1" stop-color="#A1B454"/>
</linearGradient>
<linearGradient id="paint57_linear_0_1" x1="921.707" y1="873.907" x2="974.672" y2="1177.35" gradientUnits="userSpaceOnUse">
<stop offset="0.466346" stop-color="#8BC163"/>
<stop offset="0.754808" stop-color="#798451"/>
<stop offset="0.879808" stop-color="#9BAD53"/>
</linearGradient>
<linearGradient id="paint58_linear_0_1" x1="1076.66" y1="1496.06" x2="1054.26" y2="1732.13" gradientUnits="userSpaceOnUse">
<stop offset="0.600962" stop-color="#5F8343"/>
<stop offset="0.774038" stop-color="#717A50"/>
<stop offset="1" stop-color="#A1B454"/>
</linearGradient>
<linearGradient id="paint59_linear_0_1" x1="1026.32" y1="1086.13" x2="980.08" y2="1736.53" gradientUnits="userSpaceOnUse">
<stop offset="0.466346" stop-color="#8BC163"/>
<stop offset="0.754808" stop-color="#798451"/>
<stop offset="0.879808" stop-color="#9BAD53"/>
</linearGradient>
<linearGradient id="paint60_linear_0_1" x1="1026.32" y1="1086.13" x2="980.08" y2="1736.53" gradientUnits="userSpaceOnUse">
<stop offset="0.600962" stop-color="#5F8343"/>
<stop offset="0.774038" stop-color="#717A50"/>
<stop offset="1" stop-color="#A1B454"/>
</linearGradient>
<linearGradient id="paint61_linear_0_1" x1="820.652" y1="989.207" x2="952.402" y2="1465.84" gradientUnits="userSpaceOnUse">
<stop offset="0.600962" stop-color="#5F8343"/>
<stop offset="0.774038" stop-color="#717A50"/>
<stop offset="1" stop-color="#A1B454"/>
</linearGradient>
<linearGradient id="paint62_diamond_0_1" x1="0" y1="0" x2="500" y2="500" gradientUnits="userSpaceOnUse">
<stop stop-color="#AB7D7D"/>
<stop offset="1" stop-color="white"/>
</linearGradient>
<linearGradient id="paint63_linear_0_1" x1="1581.14" y1="1935.69" x2="1656.59" y2="2217.26" gradientUnits="userSpaceOnUse">
<stop stop-color="#5E6737"/>
<stop offset="0.504808" stop-color="#E6E6C5"/>
<stop offset="0.668269" stop-color="#71623D"/>
</linearGradient>
<linearGradient id="paint64_linear_0_1" x1="1163.59" y1="1185.71" x2="1585.11" y2="1958.08" gradientUnits="userSpaceOnUse">
<stop offset="0.466346" stop-color="#8BC163"/>
<stop offset="0.754808" stop-color="#798451"/>
<stop offset="0.879808" stop-color="#9BAD53"/>
</linearGradient>
<linearGradient id="paint65_linear_0_1" x1="1624.28" y1="1353.71" x2="1574.54" y2="1957.35" gradientUnits="userSpaceOnUse">
<stop offset="0.600962" stop-color="#5F8343"/>
<stop offset="0.774038" stop-color="#717A50"/>
<stop offset="1" stop-color="#A1B454"/>
</linearGradient>
<linearGradient id="paint66_linear_0_1" x1="1353.33" y1="1123.89" x2="1416.45" y2="1419.02" gradientUnits="userSpaceOnUse">
<stop offset="0.466346" stop-color="#8BC163"/>
<stop offset="0.754808" stop-color="#798451"/>
<stop offset="0.879808" stop-color="#9BAD53"/>
</linearGradient>
<linearGradient id="paint67_linear_0_1" x1="1438.42" y1="1746.45" x2="1544.31" y2="1953.48" gradientUnits="userSpaceOnUse">
<stop offset="0.600962" stop-color="#5F8343"/>
<stop offset="0.774038" stop-color="#717A50"/>
<stop offset="1" stop-color="#A1B454"/>
</linearGradient>
<linearGradient id="paint68_linear_0_1" x1="1334.31" y1="1355.45" x2="1612.15" y2="1931.19" gradientUnits="userSpaceOnUse">
<stop offset="0.466346" stop-color="#8BC163"/>
<stop offset="0.754808" stop-color="#798451"/>
<stop offset="0.879808" stop-color="#9BAD53"/>
</linearGradient>
<linearGradient id="paint69_linear_0_1" x1="1334.31" y1="1355.45" x2="1612.15" y2="1931.19" gradientUnits="userSpaceOnUse">
<stop offset="0.600962" stop-color="#5F8343"/>
<stop offset="0.774038" stop-color="#717A50"/>
<stop offset="1" stop-color="#A1B454"/>
</linearGradient>
<linearGradient id="paint70_linear_0_1" x1="1489.58" y1="1191.15" x2="1545.55" y2="1672.59" gradientUnits="userSpaceOnUse">
<stop offset="0.600962" stop-color="#5F8343"/>
<stop offset="0.774038" stop-color="#717A50"/>
<stop offset="1" stop-color="#A1B454"/>
</linearGradient>
<linearGradient id="paint71_diamond_0_1" x1="0" y1="0" x2="500" y2="500" gradientUnits="userSpaceOnUse">
<stop stop-color="#AB7D7D"/>
<stop offset="1" stop-color="white"/>
</linearGradient>
</defs>
</svg>
