<svg width="2544" height="2348" viewBox="0 0 2544 2348" fill="none" xmlns="http://www.w3.org/2000/svg">
<path d="M42 40V41H2502V40V39H42V40ZM2504 42H2503V2306H2504H2505V42H2504ZM2502 2308V2307H42V2308V2309H2502V2308ZM40 2306H41V42H40H39V2306H40ZM42 2308V2307C41.4477 2307 41 2306.55 41 2306H40H39C39 2307.66 40.3432 2309 42 2309V2308ZM2504 2306H2503C2503 2306.55 2502.55 2307 2502 2307V2308V2309C2503.66 2309 2505 2307.66 2505 2306H2504ZM2502 40V41C2502.55 41 2503 41.4477 2503 42H2504H2505C2505 40.3431 2503.66 39 2502 39V40ZM42 40V39C40.3431 39 39 40.3432 39 42H40H41C41 41.4477 41.4477 41 42 41V40Z" fill="white" fill-opacity="0.1"/>
<g opacity="0.31">
<path d="M1125.61 1599.04L1108.31 1599.28C1108.31 1599.28 1124.65 1715.38 1097.49 1794.72C1077.72 1852.46 1047.94 1942.4 1047.94 1942.4L1069.53 1944.67C1069.53 1944.67 1103.16 1865.51 1115.07 1811.46C1132.92 1730.49 1125.61 1599.04 1125.61 1599.04Z" fill="url(#paint0_linear_0_1)" stroke="#7D8B44" stroke-width="6.3774"/>
<path d="M1166.56 1503.28C1146.22 1595.54 1117.71 1626.4 1117.71 1626.4C1117.71 1626.4 1085.25 1642.64 1119 1439.21C1139.03 1318.46 1242.89 579.307 1242.89 579.307C1242.89 579.307 1209.34 1309.18 1166.56 1503.28Z" fill="url(#paint1_linear_0_1)"/>
<path d="M1235.59 656.184C1234.97 668.336 1234.27 681.702 1233.5 696.121C1229.69 767.569 1224.16 864.854 1217.29 968.199C1203.55 1175.04 1184.47 1405.72 1163.15 1502.45C1153.04 1548.33 1140.92 1578.83 1131.39 1597.8C1126.62 1607.29 1122.5 1613.89 1119.6 1618.1C1118.15 1620.2 1117.01 1621.7 1116.24 1622.66C1116.08 1622.86 1115.94 1623.03 1115.82 1623.18C1115.62 1623.14 1115.36 1623.06 1115.03 1622.84C1113.79 1622.02 1111.03 1618.97 1109.12 1608.53C1105.35 1587.83 1105.56 1541.58 1122.44 1439.86C1132.46 1379.43 1163.44 1164.4 1191.91 964.548C1206.14 864.605 1219.75 768.435 1229.8 697.251C1231.89 682.413 1233.83 668.659 1235.59 656.184Z" stroke="black" stroke-opacity="0.33" stroke-width="6.99457"/>
<path d="M1145.89 1494.83C1147.83 1582.9 1128.83 1618.88 1128.83 1618.88C1128.83 1618.88 1103.03 1643.04 1088.7 1452.19C1080.2 1338.91 1011.15 651.082 1011.15 651.082C1011.15 651.082 1141.79 1309.56 1145.89 1494.83Z" fill="url(#paint2_linear_0_1)"/>
<path d="M1022.17 726.181C1024.04 735.925 1026.06 746.475 1028.21 757.738C1040.52 822.356 1056.98 910.44 1073.56 1004.31C1106.75 1192.19 1140.37 1402.83 1142.41 1495.13C1143.38 1538.9 1139.14 1569.62 1134.7 1589.31C1132.48 1599.15 1130.21 1606.24 1128.52 1610.83C1127.67 1613.13 1126.97 1614.8 1126.49 1615.88C1126.41 1616.05 1126.34 1616.2 1126.28 1616.34C1126.12 1616.35 1125.92 1616.34 1125.66 1616.27C1124.45 1615.94 1121.31 1614.12 1117.3 1605.45C1109.34 1588.24 1099.33 1547.13 1092.17 1451.7C1087.91 1395.01 1068.51 1194.68 1050.19 1008.59C1041.03 915.528 1032.13 826.009 1025.52 759.755C1024.33 747.762 1023.2 736.532 1022.17 726.181Z" stroke="black" stroke-opacity="0.33" stroke-width="6.99457"/>
<path d="M1136.87 1217.82C1136.51 1265.37 1147.04 1283.77 1147.04 1283.77C1147.04 1283.77 1148.4 1261 1163.57 1159.99C1172.11 1103.15 1222.22 924.96 1222.22 924.96C1222.22 924.96 1137.62 1117.79 1136.87 1217.82Z" fill="url(#paint3_linear_0_1)"/>
<path d="M1203.49 979.951C1197.23 996.039 1190.18 1014.82 1183.13 1034.98C1161.87 1095.72 1140.74 1168.43 1140.37 1217.79C1140.19 1241.16 1142.68 1257.3 1145.17 1267.55C1145.45 1265.16 1145.77 1262.45 1146.14 1259.39C1148.39 1241.03 1152.53 1210.05 1160.11 1159.53C1164.42 1130.88 1179.13 1071.92 1192.71 1020.32C1196.47 1006.06 1200.14 992.343 1203.49 979.951Z" stroke="black" stroke-opacity="0.33" stroke-width="6.99457"/>
<path d="M1135.24 1552.91C1128.98 1589.01 1134.56 1604.8 1134.56 1604.8C1134.56 1604.8 1138.46 1587.73 1162.57 1513.52C1176.14 1471.76 1236.21 1344.86 1236.21 1344.86C1236.21 1344.86 1148.41 1476.98 1135.24 1552.91Z" fill="url(#paint4_linear_0_1)"/>
<path d="M1208.19 1396.86C1203.56 1404.75 1198.66 1413.28 1193.69 1422.24C1170.08 1464.79 1145.12 1516.34 1138.65 1553.66C1136.13 1568.2 1135.57 1579.32 1135.77 1587.35C1135.91 1586.86 1136.06 1586.36 1136.21 1585.85C1140.21 1572.27 1147.22 1549.41 1159.29 1512.29C1166.14 1491.19 1184.64 1448.84 1201.33 1411.95C1203.66 1406.79 1205.96 1401.74 1208.19 1396.86Z" stroke="black" stroke-opacity="0.33" stroke-width="6.99457"/>
<path fill-rule="evenodd" clip-rule="evenodd" d="M1109.04 1607.89C1109.04 1607.89 1134.03 1552.12 1149.99 1459.73C1152.55 1444.88 1153.11 1425.8 1153.75 1403.79C1154.21 1387.98 1154.72 1370.66 1156.04 1352.32C1144.04 1387.84 1136.14 1420.06 1130.56 1442.78C1128.48 1451.26 1126.72 1458.42 1125.2 1463.94C1082.95 1616.81 1109.04 1607.89 1109.04 1607.89Z" fill="url(#paint5_linear_0_1)"/>
<path d="M1190.6 1269.9C1256.62 1148.05 1240.36 849.288 1240.36 849.288C1240.36 849.288 1237.62 1097.84 1164.31 1289.08C1160.06 1309.77 1157.49 1332.36 1156.04 1352.32C1165.03 1325.71 1176.46 1295.99 1190.6 1269.9Z" fill="url(#paint6_linear_0_1)"/>
<path d="M1151.11 1379.31C1150.78 1387.71 1150.54 1395.8 1150.31 1403.51C1149.67 1425.61 1149.11 1444.4 1146.6 1458.94C1138.66 1504.95 1128.46 1541.83 1120.27 1567.18C1116.17 1579.86 1112.57 1589.66 1110 1596.27C1108.8 1599.36 1107.82 1601.76 1107.12 1603.43C1106.32 1602.17 1105.16 1599.31 1104.71 1593.15C1103.51 1576.96 1107.38 1541.51 1128.51 1465.07C1130.05 1459.49 1131.82 1452.28 1133.9 1443.81C1138.09 1426.74 1143.57 1404.38 1151.11 1379.31ZM1238.64 943.428C1238.49 964.776 1237.97 988.58 1236.8 1013.56C1234.71 1058.43 1230.57 1107.04 1222.84 1151.99C1215.11 1196.99 1203.82 1238.07 1187.58 1268.05C1177.84 1286.03 1169.39 1305.68 1162.14 1324.83C1163.53 1313.22 1165.33 1301.45 1167.62 1290.25C1204.36 1194.3 1223.39 1084.14 1233.24 998.057C1235.48 978.46 1237.25 960.1 1238.64 943.428Z" stroke="black" stroke-opacity="0.33" stroke-width="6.99457"/>
<path fill-rule="evenodd" clip-rule="evenodd" d="M1131.04 1335.29C1125.09 1357.51 1121.61 1380.39 1119.55 1401.78C1117.18 1386.97 1115.35 1371.34 1114.94 1355.34C1136.16 1199.57 1095.44 1018.75 1095.44 1018.75C1095.44 1018.75 1158.82 1231.52 1131.04 1335.29Z" fill="#8BC162"/>
<path d="M1128.96 1599.37C1128.96 1599.37 1137.81 1553.1 1133.71 1482.39C1132.57 1462.87 1124.76 1434.33 1119.55 1401.78C1115.77 1441 1116.78 1475.22 1116.13 1491.24C1111.24 1611.94 1128.96 1599.37 1128.96 1599.37Z" fill="url(#paint7_linear_0_1)"/>
<path d="M1121.04 1429.52C1122.3 1435.87 1123.56 1441.96 1124.72 1447.74C1127.48 1461.42 1129.66 1473.2 1130.21 1482.67C1132.26 1517.84 1131.07 1546.92 1129.39 1567.19C1128.54 1577.32 1127.57 1585.25 1126.81 1590.63C1126.6 1592.13 1126.41 1593.44 1126.24 1594.54C1125.61 1593.52 1124.84 1591.93 1124.05 1589.43C1120.43 1578.13 1117.18 1551.65 1119.63 1491.3C1120.13 1478.91 1119.67 1456.59 1121.04 1429.52ZM1114.24 1108.95C1116.27 1118.49 1118.29 1128.5 1120.22 1138.83C1126.39 1171.82 1131.68 1207.99 1133.7 1242.34C1135.73 1276.74 1134.46 1309.05 1127.66 1334.46C1124.18 1347.47 1121.53 1360.69 1119.52 1373.69C1118.99 1367.67 1118.61 1361.58 1118.44 1355.43C1129.06 1277.21 1124.16 1192.86 1116.62 1128.15C1115.85 1121.53 1115.05 1115.13 1114.24 1108.95Z" stroke="black" stroke-opacity="0.33" stroke-width="6.99457"/>
</g>
<g opacity="0.68">
<path d="M1317.81 1843.22L1334.65 1839.26C1334.65 1839.26 1346.69 1955.33 1392.09 2025.35C1425.14 2076.31 1475.63 2155.92 1475.63 2155.92L1455.24 2163.35C1455.24 2163.35 1403.6 2095.07 1379.06 2045.77C1342.29 1971.92 1317.81 1843.22 1317.81 1843.22Z" fill="url(#paint8_linear_0_1)" stroke="#7D8B44" stroke-width="6.3774"/>
<path d="M1255.09 1760.69C1296.98 1844.85 1332.05 1867.73 1332.05 1867.73C1332.05 1867.73 1367.44 1875.54 1285.83 1687.3C1237.4 1575.57 959.106 887.063 959.106 887.063C959.106 887.063 1166.97 1583.65 1255.09 1760.69Z" fill="url(#paint9_linear_0_1)"/>
<path d="M984.653 959.528C988.18 971.108 992.066 983.845 996.276 997.58C1017.14 1065.64 1045.87 1158.23 1077.35 1256.35C1140.37 1452.73 1214.28 1670.84 1258.19 1759.06C1279.02 1800.91 1298.1 1827.42 1311.9 1843.43C1318.81 1851.43 1324.39 1856.81 1328.21 1860.16C1330.12 1861.84 1331.59 1863.01 1332.57 1863.75C1332.76 1863.9 1332.94 1864.03 1333.1 1864.15C1333.28 1864.06 1333.52 1863.91 1333.79 1863.62C1334.8 1862.53 1336.74 1858.91 1336.08 1848.38C1334.77 1827.49 1323.46 1782.89 1282.66 1688.76C1258.42 1632.85 1176.71 1432.74 1101.1 1246.67C1063.28 1153.62 1026.98 1064.06 1000.13 997.77C994.539 983.953 989.355 971.145 984.653 959.528Z" stroke="black" stroke-opacity="0.33" stroke-width="6.99457"/>
<path d="M1273.11 1747.53C1292.38 1833.03 1319.46 1863.16 1319.46 1863.16C1319.46 1863.16 1350.29 1880.24 1318.35 1692.49C1299.39 1581.05 1201.17 900.187 1201.17 900.187C1201.17 900.187 1232.59 1567.65 1273.11 1747.53Z" fill="url(#paint10_linear_0_1)"/>
<path d="M1208.51 975.392C1209.03 985.249 1209.61 995.919 1210.23 1007.31C1213.81 1072.68 1219 1161.72 1225.46 1256.38C1238.39 1445.83 1256.36 1657.36 1276.56 1746.97C1286.13 1789.46 1297.62 1818.09 1306.65 1836.02C1311.17 1844.99 1315.07 1851.29 1317.82 1855.31C1319.19 1857.32 1320.27 1858.76 1321 1859.69C1321.11 1859.83 1321.22 1859.96 1321.31 1860.08C1321.47 1860.05 1321.66 1859.99 1321.9 1859.85C1323 1859.24 1325.61 1856.73 1327.41 1847.39C1331 1828.85 1330.84 1786.74 1314.87 1692.86C1305.38 1637.09 1276.08 1438.96 1249.16 1254.84C1235.69 1162.76 1222.82 1074.17 1213.32 1008.6C1211.6 996.739 1209.99 985.631 1208.51 975.392Z" stroke="black" stroke-opacity="0.33" stroke-width="6.99457"/>
<path d="M1215.32 1477.87C1227.09 1523.7 1221.3 1544.01 1221.3 1544.01C1221.3 1544.01 1214.51 1522.36 1175.53 1428.51C1153.59 1375.7 1062.18 1215.79 1062.18 1215.79C1062.18 1215.79 1190.57 1381.47 1215.32 1477.87Z" fill="url(#paint11_linear_0_1)"/>
<path d="M1093.57 1264.37C1103.51 1278.38 1114.85 1294.8 1126.54 1312.56C1161.75 1366.05 1199.71 1431.12 1211.92 1478.69C1217.7 1501.21 1219.17 1517.4 1219.21 1527.9C1218.37 1525.66 1217.41 1523.12 1216.31 1520.26C1209.73 1503.07 1198.27 1474.17 1178.77 1427.22C1167.72 1400.6 1139.27 1347.24 1113.71 1300.71C1106.65 1287.86 1099.79 1275.51 1093.57 1264.37Z" stroke="black" stroke-opacity="0.33" stroke-width="6.99457"/>
<path d="M1297.39 1801.03C1312.13 1834.36 1310.51 1850.96 1310.51 1850.96C1310.51 1850.96 1302.63 1835.42 1261.41 1769.61C1238.22 1732.59 1149.46 1624.62 1149.46 1624.62C1149.46 1624.62 1266.38 1730.9 1297.39 1801.03Z" fill="url(#paint12_linear_0_1)"/>
<path d="M1189.16 1668.06C1195.54 1674.55 1202.34 1681.6 1209.31 1689.03C1242.43 1724.39 1279.03 1768.11 1294.26 1802.57C1300.2 1815.99 1303.41 1826.6 1305.14 1834.39C1304.89 1833.96 1304.63 1833.52 1304.36 1833.06C1297.22 1820.91 1284.93 1800.55 1264.31 1767.63C1252.59 1748.92 1224.46 1712.5 1199.41 1680.93C1195.92 1676.53 1192.49 1672.22 1189.16 1668.06Z" stroke="black" stroke-opacity="0.33" stroke-width="6.99457"/>
<path fill-rule="evenodd" clip-rule="evenodd" d="M1336.01 1847.76C1336.01 1847.76 1298.38 1799.97 1260.7 1714.62C1254.65 1700.91 1249.52 1682.62 1243.62 1661.53C1239.37 1646.38 1234.72 1629.78 1229.03 1612.38C1249.2 1643.78 1264.61 1672.97 1275.48 1693.55C1279.54 1701.24 1282.96 1707.72 1285.76 1712.68C1363.47 1850.05 1336.01 1847.76 1336.01 1847.76Z" fill="url(#paint13_linear_0_1)"/>
<path d="M1175.71 1541.18C1082.39 1439.54 1026.41 1147.13 1026.41 1147.13C1026.41 1147.13 1088.77 1386.45 1205.82 1553.33C1214.92 1572.28 1222.84 1593.46 1229.03 1612.38C1213.92 1588.87 1195.69 1562.95 1175.71 1541.18Z" fill="url(#paint14_linear_0_1)"/>
<path d="M1240.3 1637.26C1242.64 1645.29 1244.82 1653.04 1246.89 1660.43C1252.82 1681.62 1257.87 1699.62 1263.8 1713.04C1282.56 1755.54 1301.3 1788.68 1315.35 1811.17C1322.37 1822.42 1328.21 1831 1332.29 1836.76C1334.2 1839.46 1335.72 1841.53 1336.8 1842.97C1337.28 1841.56 1337.71 1838.52 1336.67 1832.46C1333.94 1816.55 1321.68 1783.26 1282.82 1714.57C1279.99 1709.56 1276.54 1703.02 1272.49 1695.36C1264.33 1679.89 1253.63 1659.63 1240.3 1637.26ZM1050.7 1237.65C1055.98 1258.22 1062.2 1281.06 1069.32 1304.88C1082.12 1347.7 1097.82 1393.63 1116.11 1435.15C1134.42 1476.73 1155.24 1513.65 1178.19 1538.66C1191.96 1553.65 1204.88 1570.58 1216.51 1587.31C1212.37 1576.44 1207.8 1565.52 1202.89 1555.27C1144.2 1471.52 1099.28 1369.77 1069.05 1289.04C1062.17 1270.68 1056.06 1253.4 1050.7 1237.65Z" stroke="black" stroke-opacity="0.33" stroke-width="6.99457"/>
<path fill-rule="evenodd" clip-rule="evenodd" d="M1249.2 1589.88C1260.3 1609.89 1269.18 1631.14 1276.31 1651.29C1275.05 1636.42 1273.07 1620.88 1269.63 1605.33C1211.63 1460.07 1207.7 1275.62 1207.7 1275.62C1207.7 1275.62 1197.32 1496.42 1249.2 1589.88Z" fill="#8BC162"/>
<path d="M1314.64 1844.36C1314.64 1844.36 1294.94 1801.83 1281.94 1732.56C1278.35 1713.43 1279.08 1683.99 1276.31 1651.29C1289.39 1688.24 1296.64 1721.53 1301.12 1736.84C1334.86 1852.2 1314.64 1844.36 1314.64 1844.36Z" fill="url(#paint15_linear_0_1)"/>
<path d="M1281.53 1678.44C1281.83 1684.89 1282.07 1691.07 1282.33 1696.93C1282.95 1710.81 1283.66 1722.71 1285.4 1731.99C1291.86 1766.44 1299.99 1794.23 1306.5 1813.39C1309.75 1822.96 1312.6 1830.38 1314.62 1835.39C1315.19 1836.79 1315.69 1838 1316.12 1839.02C1316.49 1837.89 1316.85 1836.16 1317.02 1833.56C1317.81 1821.78 1314.61 1795.43 1297.74 1737.75C1294.27 1725.91 1289.36 1704.24 1281.53 1678.44ZM1211.13 1367.29C1211.45 1376.99 1211.9 1387.14 1212.51 1397.57C1214.45 1430.93 1218 1467.13 1224.29 1500.78C1230.58 1534.48 1239.57 1565.38 1252.27 1588.25C1258.78 1599.97 1264.52 1612.09 1269.59 1624.16C1268.66 1618.22 1267.57 1612.25 1266.26 1606.28C1237.17 1533.32 1221.66 1450.69 1213.42 1386.37C1212.58 1379.82 1211.82 1373.45 1211.13 1367.29Z" stroke="black" stroke-opacity="0.33" stroke-width="6.99457"/>
</g>
<g opacity="0.71">
<path d="M997.035 1713.67L980.853 1719.77C980.853 1719.77 1035.38 1821.12 1036.6 1903.41C1037.49 1963.3 1039.83 2056.23 1039.83 2056.23L1060.89 2050.98C1060.89 2050.98 1065.81 1966.66 1058.78 1912.84C1048.25 1832.22 997.035 1713.67 997.035 1713.67Z" fill="url(#paint16_linear_0_1)" stroke="#7D8B44" stroke-width="6.3774"/>
<path d="M1003.23 1611.58C1015.24 1703.45 998.836 1741.56 998.836 1741.56C998.836 1741.56 973.803 1767.54 936.916 1568.76C915.021 1450.77 763.349 734.867 763.349 734.867C763.349 734.867 977.986 1418.31 1003.23 1611.58Z" fill="url(#paint17_linear_0_1)"/>
<path d="M782.423 808.153C785.932 819.554 789.785 832.097 793.925 845.633C814.438 912.716 842.052 1004.17 870.454 1101.66C927.3 1296.78 987.173 1515.66 999.755 1611.96C1005.72 1657.63 1004.61 1689.83 1002.05 1710.53C1000.77 1720.88 999.129 1728.36 997.821 1733.21C997.167 1735.63 996.597 1737.4 996.199 1738.55C996.12 1738.78 996.045 1738.98 995.98 1739.16C995.777 1739.2 995.482 1739.21 995.078 1739.12C993.635 1738.79 990.021 1736.92 984.724 1727.97C974.208 1710.22 958.81 1667.58 940.366 1568.18C929.409 1509.14 886.004 1300.61 845.355 1106.91C825.028 1010.05 805.384 916.874 790.823 847.914C787.789 833.547 784.975 820.232 782.423 808.153Z" stroke="black" stroke-opacity="0.33" stroke-width="6.99457"/>
<path d="M980.952 1610.83C1012.49 1691.26 1006.75 1730.85 1006.75 1730.85C1006.75 1730.85 990.651 1761.86 912.805 1591.01C866.599 1489.59 569.675 879.755 569.675 879.755C569.675 879.755 914.611 1441.63 980.952 1610.83Z" fill="url(#paint18_linear_0_1)"/>
<path d="M605.418 945.243C610.452 953.557 615.898 962.559 621.698 972.172C655.067 1027.48 700.248 1102.99 747.502 1183.78C842.083 1345.5 944.734 1528 977.782 1612.28C993.451 1652.24 999.821 1681.96 1002.29 1701.58C1003.52 1711.4 1003.78 1718.69 1003.74 1723.49C1003.72 1725.89 1003.62 1727.67 1003.53 1728.82C1003.52 1729 1003.5 1729.16 1003.49 1729.31C1003.34 1729.37 1003.13 1729.44 1002.85 1729.46C1001.59 1729.57 998.049 1728.97 991.365 1722.36C978.094 1709.24 954.825 1674.81 915.901 1589.38C892.776 1538.63 806.969 1360.76 726.974 1195.65C686.97 1113.08 648.41 1033.68 619.851 974.922C614.699 964.323 609.868 954.397 605.418 945.243Z" stroke="black" stroke-opacity="0.33" stroke-width="6.99457"/>
<path d="M879.039 1358.83C894.744 1402.74 910.842 1416.1 910.842 1416.1C910.842 1416.1 904.449 1394.67 884.641 1296.5C873.495 1241.27 860.502 1060.16 860.502 1060.16C860.502 1060.16 846.002 1266.47 879.039 1358.83Z" fill="url(#paint19_linear_0_1)"/>
<path d="M861.447 1117.25C860.987 1134.18 860.698 1153.85 860.865 1174.79C861.37 1237.95 866.024 1312.06 882.317 1357.61C890.037 1379.19 897.817 1393.2 903.617 1401.78C903.07 1399.49 902.455 1396.89 901.776 1393.95C897.692 1376.28 891.135 1346.35 881.226 1297.24C875.607 1269.39 869.558 1210.09 864.922 1157.97C863.644 1143.61 862.475 1129.77 861.447 1117.25Z" stroke="black" stroke-opacity="0.33" stroke-width="6.99457"/>
<path d="M990.534 1667.93C996.825 1703.29 1007.4 1715.93 1007.4 1715.93C1007.4 1715.93 1005.3 1698.89 1002.95 1622.36C1001.62 1579.3 1015.29 1442.02 1015.29 1442.02C1015.29 1442.02 977.3 1593.53 990.534 1667.93Z" fill="url(#paint20_linear_0_1)"/>
<path d="M1006.47 1499.56C1004.78 1508.37 1003.06 1517.87 1001.41 1527.77C993.565 1574.98 987.491 1630.91 993.991 1667.45C996.524 1681.68 999.751 1692.11 1002.64 1699.42C1002.62 1698.93 1002.58 1698.43 1002.55 1697.92C1001.73 1684.05 1000.61 1660.62 999.436 1622.33C998.765 1600.57 1001.87 1555.27 1005.12 1515.63C1005.57 1510.15 1006.02 1504.76 1006.47 1499.56Z" stroke="black" stroke-opacity="0.33" stroke-width="6.99457"/>
<path fill-rule="evenodd" clip-rule="evenodd" d="M984.448 1727.46C984.448 1727.46 989.129 1667.61 972.968 1577.11C970.371 1562.57 964.459 1544.81 957.639 1524.33C952.741 1509.61 947.374 1493.5 942.431 1476.15C943.132 1512.94 946.565 1545.3 948.986 1568.12C949.89 1576.63 950.653 1583.82 951.08 1589.42C962.925 1744.54 984.448 1727.46 984.448 1727.46Z" fill="url(#paint21_linear_0_1)"/>
<path d="M947.119 1388.52C968.099 1253.88 852.03 984.316 852.03 984.316C852.03 984.316 933.29 1214.1 928.877 1415.11C931.854 1435.62 937.055 1457.29 942.431 1476.15C941.907 1448.6 942.626 1417.35 947.119 1388.52Z" fill="url(#paint22_linear_0_1)"/>
<path d="M946.906 1502.72C949.423 1510.57 951.928 1518.1 954.316 1525.27C961.166 1545.84 966.975 1563.32 969.516 1577.55C977.562 1622.61 980.418 1660.02 981.263 1686.15C981.686 1699.22 981.606 1709.46 981.422 1716.42C981.336 1719.65 981.226 1722.18 981.135 1723.95C979.956 1723.08 977.904 1720.85 975.389 1715.31C968.819 1700.83 960.499 1666.9 954.576 1589.33C954.144 1583.67 953.374 1576.42 952.473 1567.93C950.654 1550.79 948.274 1528.35 946.906 1502.72ZM882.225 1071.76C889.268 1091.43 896.786 1113.47 904.1 1136.81C917.27 1178.83 929.766 1224.99 937.662 1269C945.567 1313.06 948.812 1354.71 943.653 1387.81C940.558 1407.68 939.24 1428.64 938.883 1448.73C936.281 1437.59 934.007 1426.15 932.388 1415.08C934.56 1314.22 915.292 1206.32 895.517 1123.7C891.035 1104.97 886.522 1087.53 882.225 1071.76Z" stroke="black" stroke-opacity="0.33" stroke-width="6.99457"/>
<path fill-rule="evenodd" clip-rule="evenodd" d="M913.178 1468.97C915.08 1491.46 919.523 1513.71 924.802 1534.1C917.583 1521.28 910.59 1507.5 904.803 1492.91C872.212 1342.27 772.944 1189.62 772.944 1189.62C772.944 1189.62 904.298 1363.98 913.178 1468.97Z" fill="#8BC162"/>
<path d="M1000.3 1712.84C1000.3 1712.84 993.016 1667.22 965.303 1603.51C957.652 1585.92 940.679 1562.31 924.802 1534.1C934.482 1571.5 946.973 1602.67 951.767 1617.64C987.876 1730.44 1000.3 1712.84 1000.3 1712.84Z" fill="url(#paint23_linear_0_1)"/>
<path d="M935.567 1559.16C938.902 1564.58 942.141 1569.77 945.182 1574.69C952.386 1586.35 958.408 1596.44 962.119 1604.97C975.9 1636.66 984.596 1663.83 989.843 1683.06C992.466 1692.67 994.227 1700.29 995.33 1705.51C995.636 1706.95 995.891 1708.21 996.1 1709.28C995.169 1708.56 993.908 1707.35 992.309 1705.32C985.111 1696.16 973.13 1672.91 955.075 1616.5C951.366 1604.92 943.404 1584.53 935.567 1559.16ZM821.084 1266.35C826.2 1274.43 831.461 1282.95 836.75 1291.79C853.68 1320.07 870.854 1351.57 884.337 1382.5C897.842 1413.47 907.543 1443.65 909.715 1469.33C910.829 1482.5 912.805 1495.58 915.302 1508.24C912.77 1502.88 910.36 1497.41 908.135 1491.81C891.726 1416.17 858.662 1340.16 829.75 1283.13C827.034 1277.77 824.354 1272.58 821.727 1267.57L821.084 1266.35Z" stroke="black" stroke-opacity="0.33" stroke-width="6.99457"/>
</g>
<g opacity="0.38">
<path d="M924.821 1664.95L941.977 1662.75C941.977 1662.75 941.552 1778.4 979.205 1852.03C1006.61 1905.62 1048.29 1989.23 1048.29 1989.23L1027.23 1994.48C1027.23 1994.48 983.202 1921.94 964.071 1870.84C935.415 1794.31 924.821 1664.95 924.821 1664.95Z" fill="url(#paint24_linear_0_1)" stroke="#7D8B44" stroke-width="6.3774"/>
<path d="M871.295 1577.22C903.943 1664.44 936.358 1690.56 936.358 1690.56C936.358 1690.56 970.684 1701.84 909.676 1507.99C873.465 1392.93 670.371 685.942 670.371 685.942C670.371 685.942 802.614 1393.76 871.295 1577.22Z" fill="url(#paint25_linear_0_1)"/>
<path d="M938.557 1687.8C938.557 1687.8 938.556 1687.8 938.555 1687.79L938.553 1687.79C938.555 1687.8 938.557 1687.8 938.557 1687.8ZM688.029 759.98C690.298 771.754 692.801 784.705 695.519 798.672C708.988 867.886 727.662 962.081 748.48 1062C790.148 1262 840.324 1484.51 874.548 1575.93C890.779 1619.29 906.915 1647.36 918.919 1664.53C924.922 1673.12 929.894 1678.99 933.332 1682.68C935.051 1684.53 936.387 1685.83 937.278 1686.66C937.456 1686.82 937.618 1686.97 937.76 1687.1C937.954 1687.04 938.216 1686.91 938.526 1686.64C939.643 1685.67 941.956 1682.31 942.422 1671.87C943.347 1651.15 936.867 1606.04 906.362 1509.11C888.241 1451.53 828.398 1245.96 773.106 1054.86C745.456 959.291 718.938 867.32 699.332 799.241C695.246 785.056 691.462 771.907 688.029 759.98Z" stroke="black" stroke-opacity="0.33" stroke-width="6.99457"/>
<path d="M890.61 1566.07C900.633 1652.33 924.328 1684.77 924.328 1684.77C924.328 1684.77 953.14 1704.73 941.43 1516.4C934.48 1404.61 909.513 723.419 909.513 723.419C909.513 723.419 869.526 1384.63 890.61 1566.07Z" fill="url(#paint26_linear_0_1)"/>
<path d="M908.789 798.353C908.258 808.112 907.688 818.677 907.093 829.952C903.675 894.765 899.336 983.071 895.656 1077.04C888.291 1265.13 883.588 1475.48 894.091 1565.87C899.071 1608.73 907.435 1638.11 914.496 1656.7C918.027 1666 921.233 1672.6 923.531 1676.84C924.68 1678.96 925.602 1680.49 926.224 1681.48C926.32 1681.63 926.41 1681.76 926.491 1681.89C926.651 1681.88 926.858 1681.84 927.115 1681.73C928.276 1681.23 931.127 1679.03 933.917 1670.01C939.455 1652.11 943.788 1610.58 937.933 1516.41C934.455 1460.47 926.473 1262.17 919.364 1077.92C915.808 985.783 912.471 897.139 910.021 831.53C909.579 819.681 909.169 808.584 908.789 798.353Z" stroke="black" stroke-opacity="0.33" stroke-width="6.99457"/>
<path d="M861.952 1294.37C868.755 1340.74 860.834 1360.18 860.834 1360.18C860.834 1360.18 856.393 1338.15 827.67 1241.67C811.509 1187.38 737.73 1020.47 737.73 1020.47C737.73 1020.47 847.639 1196.82 861.952 1294.37Z" fill="url(#paint27_linear_0_1)"/>
<path d="M763.759 1071.59C772.135 1086.4 781.652 1103.73 791.364 1122.41C820.646 1178.72 851.421 1246.71 858.481 1294.83C861.826 1317.62 861.555 1333.73 860.474 1344.08C859.877 1341.78 859.196 1339.18 858.412 1336.25C853.7 1318.65 845.4 1288.98 831.032 1240.72C822.885 1213.36 800.312 1157.86 779.871 1109.4C774.234 1096.04 768.747 1083.19 763.759 1071.59Z" stroke="black" stroke-opacity="0.33" stroke-width="6.99457"/>
<path d="M909.029 1621.28C920.122 1655.64 916.738 1671.84 916.738 1671.84C916.738 1671.84 910.566 1655.72 876.626 1586.66C857.528 1547.81 780.848 1432.37 780.848 1432.37C780.848 1432.37 885.695 1549 909.029 1621.28Z" fill="url(#paint28_linear_0_1)"/>
<path d="M815.693 1479.27C821.339 1486.3 827.331 1493.93 833.451 1501.95C862.6 1540.17 894.291 1586.98 905.753 1622.48C910.22 1636.32 912.28 1647.09 913.168 1654.95C912.963 1654.5 912.755 1654.04 912.539 1653.56C906.736 1640.86 896.692 1619.54 879.713 1584.99C870.06 1565.36 845.997 1526.6 824.473 1492.94C821.486 1488.27 818.544 1483.69 815.693 1479.27Z" stroke="black" stroke-opacity="0.33" stroke-width="6.99457"/>
<path fill-rule="evenodd" clip-rule="evenodd" d="M942.42 1671.26C942.42 1671.26 910.12 1620.33 881.786 1532.38C877.234 1518.24 874.094 1499.7 870.472 1478.3C867.871 1462.93 865.021 1446.1 861.22 1428.37C877.92 1461.37 890.117 1491.71 898.721 1513.11C901.932 1521.09 904.642 1527.83 906.899 1533C969.46 1676.3 942.42 1671.26 942.42 1671.26Z" fill="url(#paint29_linear_0_1)"/>
<path d="M815.833 1352.77C733.941 1243.11 709.51 949.152 709.51 949.152C709.51 949.152 745.945 1191.41 844.454 1367.8C851.477 1387.4 857.085 1409.09 861.22 1428.37C848.712 1403.66 833.369 1376.26 815.833 1352.77Z" fill="url(#paint30_linear_0_1)"/>
<path d="M869.773 1454.06C871.247 1462.21 872.577 1470.07 873.845 1477.56C877.483 1499.06 880.582 1517.31 885.037 1531.14C899.145 1574.93 914.236 1609.5 925.79 1633.1C931.566 1644.89 936.457 1653.95 939.897 1660.04C941.499 1662.88 942.786 1665.08 943.701 1666.61C944.329 1665.27 945.092 1662.33 944.703 1656.23C943.688 1640.28 935.055 1606.22 903.773 1534.57C901.491 1529.34 898.758 1522.55 895.555 1514.58C889.093 1498.51 880.631 1477.46 869.773 1454.06ZM724.006 1040.95C727.05 1061.74 730.792 1084.86 735.324 1109.04C743.48 1152.55 754.179 1199.42 767.924 1242.21C781.685 1285.05 798.424 1323.55 818.563 1350.52C830.645 1366.7 841.675 1384.69 851.449 1402.37C848.498 1391.24 845.124 1380.02 841.337 1369.42C791.951 1280.9 758.167 1176.03 736.733 1093.37C731.869 1074.61 727.641 1056.99 724.006 1040.95Z" stroke="black" stroke-opacity="0.33" stroke-width="6.99457"/>
<path fill-rule="evenodd" clip-rule="evenodd" d="M883.662 1408.23C892.566 1429.09 899.116 1450.93 904.056 1471.52C904.391 1456.74 904.08 1441.22 902.32 1425.54C860.18 1276.45 875.95 1094.21 875.95 1094.21C875.95 1094.21 842.081 1310.84 883.662 1408.23Z" fill="#8BC162"/>
<path d="M921.547 1665.75C921.547 1665.75 906.506 1621.82 900.979 1552.21C899.453 1533 903.319 1504.04 904.056 1471.52C913.113 1509.28 916.759 1542.83 919.576 1558.38C940.798 1675.53 921.547 1665.75 921.547 1665.75Z" fill="url(#paint31_linear_0_1)"/>
<path d="M906.347 1498.83C905.957 1505.21 905.539 1511.34 905.172 1517.14C904.302 1530.89 903.738 1542.69 904.478 1552.01C907.226 1586.62 912.34 1614.84 916.76 1634.38C918.969 1644.16 921.005 1651.76 922.484 1656.9C922.895 1658.33 923.265 1659.57 923.582 1660.62C924.067 1659.54 924.61 1657.88 925.062 1655.32C927.104 1643.79 926.734 1617.51 916.123 1558.93C913.943 1546.9 911.375 1525.05 906.347 1498.83ZM869.575 1184.97C868.864 1194.55 868.228 1204.6 867.718 1214.94C866.088 1248.02 865.758 1284.07 868.414 1317.87C871.075 1351.73 876.714 1383.09 886.888 1406.93C892.104 1419.14 896.514 1431.68 900.268 1444.09C899.983 1438.14 899.531 1432.14 898.862 1426.13C877.74 1351.25 871.15 1268.21 869.824 1203.97C869.689 1197.43 869.611 1191.09 869.575 1184.97Z" stroke="black" stroke-opacity="0.33" stroke-width="6.99457"/>
</g>
<g opacity="0.38">
<path d="M1373.07 1623.03L1356.26 1618.99C1356.26 1618.99 1345.89 1730.48 1301.68 1797.2C1269.51 1845.76 1220.37 1921.65 1220.37 1921.65L1240.77 1929.07C1240.77 1929.07 1291.2 1864.11 1314.94 1817.03C1350.49 1746.49 1373.07 1623.03 1373.07 1623.03Z" fill="url(#paint32_linear_0_1)" stroke="#7D8B44" stroke-width="6.3774"/>
<path d="M1434.33 1544.51C1393.82 1624.89 1359.24 1646.41 1359.24 1646.41C1359.24 1646.41 1324.14 1653.44 1402.72 1473.49C1449.37 1366.68 1716.72 708.231 1716.72 708.231C1716.72 708.231 1519.56 1375.43 1434.33 1544.51Z" fill="url(#paint33_linear_0_1)"/>
<path d="M1692.29 777.621C1688.94 788.711 1685.25 800.908 1681.26 814.059C1661.44 879.241 1634.14 967.908 1604.17 1061.86C1544.2 1249.9 1473.69 1458.65 1431.23 1542.89C1411.1 1582.83 1392.49 1608.05 1378.99 1623.24C1372.25 1630.83 1366.78 1635.92 1363.03 1639.09C1361.15 1640.67 1359.71 1641.77 1358.75 1642.47C1358.57 1642.61 1358.4 1642.72 1358.25 1642.83C1358.04 1642.75 1357.77 1642.59 1357.47 1642.27C1356.44 1641.2 1354.48 1637.72 1354.99 1627.65C1356 1607.62 1366.62 1564.91 1405.91 1474.94C1429.25 1421.49 1507.77 1230.12 1580.43 1052.18C1616.77 963.196 1651.64 877.549 1677.44 814.149C1682.81 800.953 1687.78 788.72 1692.29 777.621Z" stroke="black" stroke-opacity="0.33" stroke-width="6.99457"/>
<path d="M1416.21 1531.6C1398.23 1613.59 1371.7 1642.19 1371.7 1642.19C1371.7 1642.19 1341.27 1658.19 1370.45 1478.03C1387.77 1371.09 1476.06 717.501 1476.06 717.501C1476.06 717.501 1454.05 1359.13 1416.21 1531.6Z" fill="url(#paint34_linear_0_1)"/>
<path d="M1469.78 789.949C1469.39 799.374 1468.98 809.572 1468.52 820.452C1465.86 883.289 1461.93 968.865 1456.81 1059.83C1446.57 1241.9 1431.62 1445.1 1412.78 1531C1403.85 1571.72 1392.82 1599.08 1384.09 1616.18C1379.72 1624.73 1375.93 1630.73 1373.26 1634.55C1371.93 1636.46 1370.87 1637.83 1370.16 1638.71C1370.06 1638.84 1369.96 1638.95 1369.87 1639.06C1369.7 1639.03 1369.48 1638.97 1369.21 1638.82C1368.1 1638.21 1365.5 1635.78 1363.58 1626.82C1359.76 1608.98 1359.33 1568.52 1373.92 1478.44C1382.59 1424.91 1409 1234.72 1433.24 1057.99C1445.36 969.602 1456.93 884.56 1465.48 821.614C1467.02 810.31 1468.45 799.719 1469.78 789.949Z" stroke="black" stroke-opacity="0.33" stroke-width="6.99457"/>
<path d="M1469.98 1273.01C1458.91 1316.93 1464.95 1336.55 1464.95 1336.55C1464.95 1336.55 1471.41 1315.82 1508.89 1226.07C1529.98 1175.58 1618.72 1023.02 1618.72 1023.02C1618.72 1023.02 1493.27 1180.62 1469.98 1273.01Z" fill="url(#paint35_linear_0_1)"/>
<path d="M1588.05 1069.49C1578.38 1082.81 1567.34 1098.41 1555.99 1115.29C1521.7 1166.27 1484.86 1228.29 1473.38 1273.82C1467.94 1295.42 1466.71 1310.96 1466.82 1321.03C1467.62 1318.9 1468.54 1316.47 1469.59 1313.75C1475.9 1297.3 1486.9 1269.65 1505.65 1224.76C1516.29 1199.29 1543.86 1148.34 1568.65 1103.94C1575.45 1091.77 1582.05 1080.07 1588.05 1069.49Z" stroke="black" stroke-opacity="0.33" stroke-width="6.99457"/>
<path d="M1392.8 1582.72C1378.6 1614.59 1380.44 1630.58 1380.44 1630.58C1380.44 1630.58 1388.06 1615.74 1428.16 1553.01C1450.73 1517.71 1537.54 1415.08 1537.54 1415.08C1537.54 1415.08 1422.68 1515.7 1392.8 1582.72Z" fill="url(#paint36_linear_0_1)"/>
<path d="M1498.47 1456.52C1492.24 1462.64 1485.63 1469.28 1478.85 1476.28C1446.37 1509.84 1410.61 1551.36 1395.95 1584.24C1390.23 1597.07 1387.18 1607.21 1385.57 1614.67C1385.82 1614.27 1386.06 1613.85 1386.31 1613.43C1393.25 1601.84 1405.2 1582.41 1425.27 1551.03C1436.68 1533.18 1464.17 1498.53 1488.65 1468.51C1491.99 1464.41 1495.28 1460.4 1498.47 1456.52Z" stroke="black" stroke-opacity="0.33" stroke-width="6.99457"/>
<path fill-rule="evenodd" clip-rule="evenodd" d="M1355.02 1627.14C1355.02 1627.14 1391.81 1581.69 1428.11 1500.12C1433.94 1487.01 1438.79 1469.49 1444.37 1449.28C1448.39 1434.77 1452.78 1418.86 1458.21 1402.21C1438.57 1432.13 1423.64 1459.99 1413.11 1479.65C1409.18 1486.98 1405.87 1493.18 1403.15 1497.9C1327.74 1628.97 1355.02 1627.14 1355.02 1627.14Z" fill="url(#paint37_linear_0_1)"/>
<path d="M1510.27 1334.46C1601.71 1237.98 1653.36 957.466 1653.36 957.466C1653.36 957.466 1594.63 1186.82 1480.48 1345.72C1471.69 1363.83 1464.1 1384.09 1458.21 1402.21C1472.92 1379.8 1490.69 1355.12 1510.27 1334.46Z" fill="url(#paint38_linear_0_1)"/>
<path d="M1447.3 1426.06C1445.08 1433.75 1443.03 1441.17 1441.07 1448.24C1435.46 1468.55 1430.69 1485.77 1424.99 1498.58C1406.92 1539.18 1388.73 1570.79 1375.08 1592.22C1368.25 1602.94 1362.56 1611.11 1358.58 1616.59C1356.75 1619.11 1355.28 1621.07 1354.24 1622.44C1353.73 1621.1 1353.23 1618.2 1354.19 1612.33C1356.68 1597.11 1368.4 1565.3 1406.1 1499.77C1408.86 1494.98 1412.2 1488.74 1416.12 1481.42C1424.02 1466.67 1434.37 1447.36 1447.3 1426.06ZM1630.33 1044.58C1625.39 1064.21 1619.54 1085.98 1612.82 1108.68C1600.67 1149.68 1585.7 1193.64 1568.08 1233.31C1550.44 1273.04 1530.26 1308.24 1507.8 1331.94C1494.3 1346.17 1481.69 1362.27 1470.35 1378.2C1474.31 1367.83 1478.69 1357.41 1483.43 1347.64C1540.67 1267.87 1583.96 1170.6 1612.93 1093.35C1619.45 1075.94 1625.26 1059.54 1630.33 1044.58Z" stroke="black" stroke-opacity="0.33" stroke-width="6.99457"/>
<path fill-rule="evenodd" clip-rule="evenodd" d="M1437.83 1380.28C1427.05 1399.38 1418.52 1419.69 1411.7 1438.98C1412.75 1424.7 1414.5 1409.78 1417.71 1394.87C1473.41 1255.94 1474.76 1078.56 1474.76 1078.56C1474.76 1078.56 1488.15 1291.1 1437.83 1380.28Z" fill="#8BC162"/>
<path d="M1376.24 1624.17C1376.24 1624.17 1395.25 1583.53 1407.22 1517.08C1410.53 1498.73 1409.4 1470.4 1411.7 1438.98C1399.2 1474.35 1392.45 1506.27 1388.21 1520.94C1356.23 1631.43 1376.24 1624.17 1376.24 1624.17Z" fill="url(#paint39_linear_0_1)"/>
<path d="M1406.87 1465.07C1406.66 1471.27 1406.5 1477.23 1406.33 1482.87C1405.91 1496.21 1405.37 1507.63 1403.77 1516.51C1397.81 1549.55 1390.12 1576.15 1383.91 1594.48C1380.81 1603.64 1378.09 1610.73 1376.14 1615.52C1375.61 1616.84 1375.13 1617.98 1374.72 1618.94C1374.34 1617.86 1373.94 1616.19 1373.73 1613.65C1372.79 1602.36 1375.59 1577.1 1391.58 1521.85C1394.87 1510.49 1399.45 1489.75 1406.87 1465.07ZM1472.61 1166.89C1472.42 1176.17 1472.12 1185.89 1471.66 1195.87C1470.19 1227.92 1467.16 1262.69 1461.37 1294.95C1455.58 1327.27 1447.06 1356.83 1434.77 1378.61C1428.45 1389.81 1422.9 1401.4 1418.02 1412.95C1418.86 1407.26 1419.86 1401.54 1421.08 1395.83C1449.02 1326.02 1463.3 1246.73 1470.61 1184.97C1471.35 1178.76 1472.01 1172.72 1472.61 1166.89Z" stroke="black" stroke-opacity="0.33" stroke-width="6.99457"/>
</g>
<g opacity="0.5">
<path d="M1607.16 1807.5L1590.6 1812.53C1590.6 1812.53 1638.61 1921.35 1634.59 2006.33C1631.66 2068.17 1628.07 2164.22 1628.07 2164.22L1649.44 2160.46C1649.44 2160.46 1659.73 2073.86 1656.14 2017.79C1650.77 1933.8 1607.16 1807.5 1607.16 1807.5Z" fill="url(#paint40_linear_0_1)" stroke="#7D8B44" stroke-width="6.3774"/>
<path d="M1619.86 1702.67C1625.99 1798.38 1607.18 1836.41 1607.18 1836.41C1607.18 1836.41 1580.51 1861.26 1556.33 1653.31C1541.98 1529.88 1436.1 779.522 1436.1 779.522C1436.1 779.522 1606.96 1501.33 1619.86 1702.67Z" fill="url(#paint41_linear_0_1)"/>
<path d="M1450.48 856.578C1453.25 868.615 1456.31 881.859 1459.58 896.15C1475.8 966.956 1497.55 1063.46 1519.71 1166.25C1564.06 1371.97 1609.93 1602.46 1616.36 1702.81C1619.41 1750.41 1616.25 1783.56 1612.37 1804.73C1610.43 1815.31 1608.31 1822.91 1606.69 1827.82C1605.88 1830.27 1605.19 1832.06 1604.72 1833.21C1604.62 1833.45 1604.53 1833.66 1604.46 1833.84C1604.27 1833.86 1604 1833.84 1603.63 1833.73C1602.22 1833.27 1598.7 1831.05 1593.97 1821.37C1584.57 1802.19 1571.9 1756.97 1559.81 1652.99C1552.63 1591.23 1522.57 1372.73 1494.31 1169.73C1480.17 1068.22 1466.49 970.569 1456.34 898.293C1454.22 883.219 1452.26 869.249 1450.48 856.578Z" stroke="black" stroke-opacity="0.33" stroke-width="6.99457"/>
<path d="M1597.65 1700.16C1624.02 1785.59 1615.77 1825.98 1615.77 1825.98C1615.77 1825.98 1597.7 1856.72 1530.83 1674.38C1491.13 1566.15 1233.37 913.832 1233.37 913.832C1233.37 913.832 1542.15 1520.43 1597.65 1700.16Z" fill="url(#paint42_linear_0_1)"/>
<path d="M1264.83 984.015C1269.35 993.025 1274.24 1002.78 1279.45 1013.21C1309.26 1072.88 1349.58 1154.3 1391.64 1241.34C1475.82 1415.55 1566.75 1611.86 1594.4 1701.42C1607.51 1743.88 1611.98 1775.05 1613.2 1795.51C1613.8 1805.74 1613.6 1813.3 1613.25 1818.25C1613.07 1820.73 1612.86 1822.56 1612.7 1823.75C1612.67 1823.93 1612.64 1824.11 1612.62 1824.26C1612.48 1824.31 1612.29 1824.35 1612.04 1824.35C1610.78 1824.37 1607.25 1823.46 1600.97 1816.1C1588.52 1801.49 1567.46 1764.12 1534.02 1672.95C1514.15 1618.78 1439.77 1428.6 1370.37 1252.01C1335.67 1163.71 1302.21 1078.78 1277.42 1015.94C1272.93 1004.53 1268.71 993.854 1264.83 984.015Z" stroke="black" stroke-opacity="0.33" stroke-width="6.99457"/>
<path d="M1511.9 1432.23C1524.79 1478.75 1540.02 1493.79 1540.02 1493.79C1540.02 1493.79 1535 1471.19 1521.47 1368.38C1513.85 1310.52 1512.42 1122.68 1512.42 1122.68C1512.42 1122.68 1484.78 1334.37 1511.9 1432.23Z" fill="url(#paint43_linear_0_1)"/>
<path d="M1509.73 1181.48C1508.19 1198.93 1506.64 1219.24 1505.47 1240.9C1501.95 1306.08 1501.87 1382.93 1515.25 1431.24C1521.59 1454.1 1528.46 1469.17 1533.72 1478.49C1533.32 1476.08 1532.87 1473.34 1532.38 1470.25C1529.42 1451.71 1524.78 1420.32 1518.01 1368.89C1514.18 1339.74 1511.91 1278.11 1510.61 1223.98C1510.24 1208.98 1509.96 1194.53 1509.73 1181.48Z" stroke="black" stroke-opacity="0.33" stroke-width="6.99457"/>
<path d="M1603.58 1759.81C1607.61 1796.78 1617.37 1810.65 1617.37 1810.65C1617.37 1810.65 1616.36 1792.9 1618.88 1713.77C1620.3 1669.25 1642.71 1528.71 1642.71 1528.71C1642.71 1528.71 1595.1 1682.03 1603.58 1759.81Z" fill="url(#paint44_linear_0_1)"/>
<path d="M1630.27 1587.15C1628.01 1596.16 1625.67 1605.87 1623.39 1616.01C1612.53 1664.1 1602.89 1721.35 1607.06 1759.6C1608.68 1774.49 1611.24 1785.51 1613.67 1793.29C1613.67 1792.78 1613.67 1792.25 1613.67 1791.7C1613.74 1777.33 1614.12 1753.08 1615.38 1713.5C1616.1 1691.01 1622.09 1644.54 1627.86 1603.89C1628.67 1598.18 1629.48 1592.57 1630.27 1587.15Z" stroke="black" stroke-opacity="0.33" stroke-width="6.99457"/>
<path fill-rule="evenodd" clip-rule="evenodd" d="M1593.7 1820.74C1593.7 1820.74 1602.19 1759.37 1591.82 1664.75C1590.15 1649.55 1585.38 1630.76 1579.87 1609.1C1575.91 1593.54 1571.58 1576.49 1567.75 1558.22C1566.1 1596.22 1567.47 1629.87 1568.43 1653.6C1568.79 1662.45 1569.1 1669.93 1569.17 1675.73C1571.11 1836.68 1593.7 1820.74 1593.7 1820.74Z" fill="url(#paint45_linear_0_1)"/>
<path d="M1578.02 1468.18C1607.56 1330.93 1508.79 1043.78 1508.79 1043.78C1508.79 1043.78 1575.32 1287.18 1558.1 1494.19C1559.76 1515.57 1563.58 1538.33 1567.75 1558.22C1568.98 1529.75 1571.69 1497.57 1578.02 1468.18Z" fill="url(#paint46_linear_0_1)"/>
<path d="M1570.52 1585.9C1572.53 1594.2 1574.56 1602.16 1576.49 1609.76C1582.02 1631.51 1586.71 1650.01 1588.35 1664.91C1593.51 1712.03 1593.98 1750.86 1593.16 1777.89C1592.75 1791.41 1592.02 1801.97 1591.39 1809.14C1591.09 1812.51 1590.82 1815.13 1590.61 1816.96C1589.48 1815.94 1587.58 1813.45 1585.43 1807.58C1579.78 1792.09 1573.63 1756.4 1572.66 1675.92C1572.59 1670.05 1572.28 1662.52 1571.92 1653.68C1571.2 1635.84 1570.25 1612.48 1570.52 1585.9ZM1533.31 1136.03C1539.11 1156.94 1545.25 1180.36 1551.09 1205.11C1561.57 1249.5 1571.11 1298.1 1576.2 1344.13C1581.28 1390.21 1581.87 1433.45 1574.6 1467.23C1570.24 1487.48 1567.59 1509.01 1565.95 1529.72C1564.06 1517.99 1562.51 1506 1561.6 1494.42C1570.2 1390.58 1557.84 1277.77 1543.35 1191C1540.04 1171.19 1536.62 1152.73 1533.31 1136.03Z" stroke="black" stroke-opacity="0.33" stroke-width="6.99457"/>
<path fill-rule="evenodd" clip-rule="evenodd" d="M1538.98 1548.52C1539.45 1571.86 1542.47 1595.16 1546.44 1616.62C1540.05 1602.82 1533.94 1588.06 1529.09 1572.56C1506.13 1414.61 1416.69 1249.38 1416.69 1249.38C1416.69 1249.38 1536.8 1439.52 1538.98 1548.52Z" fill="#8BC162"/>
<path d="M1610.47 1806.9C1610.47 1806.9 1606.1 1759.28 1582.48 1691.39C1575.96 1672.64 1560.5 1646.95 1546.44 1616.62C1553.73 1655.95 1564.22 1689.08 1568.05 1704.9C1596.94 1824.08 1610.47 1806.9 1610.47 1806.9Z" fill="url(#paint47_linear_0_1)"/>
<path d="M1555.59 1643.27C1558.57 1649.12 1561.47 1654.72 1564.19 1660.03C1570.65 1672.62 1576.03 1683.52 1579.2 1692.62C1590.95 1726.39 1597.91 1755.11 1601.93 1775.37C1603.93 1785.5 1605.21 1793.51 1605.98 1798.97C1606.19 1800.5 1606.37 1801.84 1606.51 1802.96C1605.62 1802.14 1604.45 1800.79 1603 1798.59C1596.37 1788.54 1585.87 1763.58 1571.43 1703.99C1568.47 1691.76 1561.8 1670.08 1555.59 1643.27ZM1459.83 1332.16C1464.44 1340.93 1469.17 1350.15 1473.9 1359.71C1489.02 1390.22 1504.17 1424.07 1515.67 1457.04C1527.19 1490.06 1534.97 1521.97 1535.5 1548.67C1535.78 1562.34 1536.92 1575.97 1538.6 1589.22C1536.41 1583.49 1534.35 1577.64 1532.48 1571.68C1520.92 1492.39 1492.74 1411.41 1467.49 1350.32C1464.9 1344.05 1462.34 1337.99 1459.83 1332.16Z" stroke="black" stroke-opacity="0.33" stroke-width="6.99457"/>
</g>
<g opacity="0.37">
<path d="M1368.87 1801.45L1385.15 1807.33C1385.15 1807.33 1331.58 1913.16 1331.2 1998C1330.93 2059.75 1329.55 2155.6 1329.55 2155.6L1308.4 2150.71C1308.4 2150.71 1302.61 2063.93 1309.09 2008.28C1318.8 1924.92 1368.87 1801.45 1368.87 1801.45Z" fill="url(#paint48_linear_0_1)" stroke="#7D8B44" stroke-width="6.3774"/>
<path d="M1361.61 1696.39C1350.54 1791.38 1367.36 1830.25 1367.36 1830.25C1367.36 1830.25 1392.7 1856.4 1427.59 1650.59C1448.31 1528.43 1592.83 786.751 1592.83 786.751C1592.83 786.751 1384.9 1496.56 1361.61 1696.39Z" fill="url(#paint49_linear_0_1)"/>
<path d="M1574.49 862.733C1571.09 874.573 1567.36 887.601 1563.35 901.66C1543.5 971.317 1516.78 1066.27 1489.34 1167.47C1434.42 1370 1376.71 1597.12 1365.1 1696.71C1359.59 1743.95 1361.03 1777.13 1363.81 1798.42C1365.2 1809.06 1366.93 1816.74 1368.29 1821.71C1368.97 1824.2 1369.56 1826.01 1369.98 1827.18C1370.06 1827.42 1370.14 1827.64 1370.21 1827.82C1370.4 1827.85 1370.67 1827.85 1371.04 1827.75C1372.48 1827.38 1376.1 1825.35 1381.33 1815.97C1391.7 1797.37 1406.69 1753 1424.13 1650.09C1434.5 1588.96 1475.82 1372.94 1514.53 1172.28C1533.89 1071.93 1552.6 975.404 1566.48 903.962C1569.37 889.064 1572.05 875.256 1574.49 862.733Z" stroke="black" stroke-opacity="0.33" stroke-width="6.99457"/>
<path d="M1383.92 1695.06C1353.16 1778.75 1359.32 1819.41 1359.32 1819.41C1359.32 1819.41 1375.77 1850.98 1451.97 1672.92C1497.21 1567.23 1788.31 931.216 1788.31 931.216C1788.31 931.216 1448.62 1519.01 1383.92 1695.06Z" fill="url(#paint50_linear_0_1)"/>
<path d="M1753.26 999.461C1748.29 1008.19 1742.9 1017.65 1737.16 1027.75C1704.31 1085.6 1659.84 1164.56 1613.34 1249.02C1520.28 1418.07 1419.34 1608.77 1387.1 1696.49C1371.81 1738.08 1365.74 1768.89 1363.46 1789.2C1362.33 1799.35 1362.15 1806.88 1362.24 1811.84C1362.29 1814.31 1362.4 1816.15 1362.5 1817.34C1362.52 1817.53 1362.54 1817.7 1362.55 1817.85C1362.69 1817.91 1362.88 1817.96 1363.14 1817.98C1364.39 1818.06 1367.96 1817.35 1374.61 1810.34C1387.79 1796.45 1410.76 1760.36 1448.86 1671.32C1471.5 1618.43 1555.61 1432.96 1634.02 1260.77C1673.24 1174.66 1711.04 1091.85 1739.04 1030.57C1744.12 1019.46 1748.88 1009.05 1753.26 999.461Z" stroke="black" stroke-opacity="0.33" stroke-width="6.99457"/>
<path d="M1483.39 1432.77C1468.12 1478.42 1452.13 1492.59 1452.13 1492.59C1452.13 1492.59 1458.31 1470.35 1477.14 1368.67C1487.73 1311.46 1498.88 1124.47 1498.88 1124.47C1498.88 1124.47 1515.53 1336.75 1483.39 1432.77Z" fill="url(#paint51_linear_0_1)"/>
<path d="M1498.52 1183.19C1499.16 1200.65 1499.66 1220.94 1499.71 1242.56C1499.85 1307.67 1495.96 1384.2 1480.1 1431.6C1472.59 1454.03 1464.94 1468.68 1459.21 1477.68C1459.74 1475.3 1460.33 1472.6 1460.98 1469.55C1464.89 1451.24 1471.15 1420.23 1480.56 1369.37C1485.9 1340.54 1491.35 1279.27 1495.45 1225.44C1496.59 1210.53 1497.62 1196.17 1498.52 1183.19Z" stroke="black" stroke-opacity="0.33" stroke-width="6.99457"/>
<path d="M1374.91 1754.16C1368.98 1790.76 1358.52 1804.06 1358.52 1804.06C1358.52 1804.06 1360.44 1786.43 1362.01 1707.5C1362.89 1663.08 1347.78 1521.94 1347.78 1521.94C1347.78 1521.94 1387.4 1677.15 1374.91 1754.16Z" fill="url(#paint52_linear_0_1)"/>
<path d="M1357.18 1580.81C1358.98 1589.9 1360.81 1599.69 1362.57 1609.91C1370.92 1658.37 1377.59 1715.9 1371.45 1753.76C1369.06 1768.5 1365.93 1779.34 1363.1 1786.96C1363.13 1786.45 1363.16 1785.92 1363.18 1785.38C1363.86 1771.07 1364.74 1746.9 1365.52 1707.41C1365.97 1684.97 1362.39 1638.37 1358.73 1597.6C1358.21 1591.87 1357.69 1586.24 1357.18 1580.81Z" stroke="black" stroke-opacity="0.33" stroke-width="6.99457"/>
<path fill-rule="evenodd" clip-rule="evenodd" d="M1381.62 1815.35C1381.62 1815.35 1376.32 1753.79 1391.57 1660.11C1394.02 1645.05 1399.76 1626.6 1406.38 1605.32C1411.13 1590.03 1416.34 1573.28 1421.11 1555.28C1420.79 1593.22 1417.69 1626.65 1415.5 1650.23C1414.68 1659.04 1413.99 1666.46 1413.62 1672.24C1403.36 1832.43 1381.62 1815.35 1381.62 1815.35Z" fill="url(#paint53_linear_0_1)"/>
<path d="M1415.51 1465.08C1393.11 1326.83 1506.58 1046.08 1506.58 1046.08C1506.58 1046.08 1427.56 1284.97 1434.06 1492.03C1431.29 1513.24 1426.3 1535.7 1421.11 1555.28C1421.35 1526.87 1420.31 1494.68 1415.51 1465.08Z" fill="url(#paint54_linear_0_1)"/>
<path d="M1416.91 1582.72C1414.47 1590.87 1412.04 1598.7 1409.72 1606.16C1403.07 1627.53 1397.43 1645.7 1395.03 1660.45C1387.43 1707.11 1384.96 1745.75 1384.38 1772.71C1384.09 1786.19 1384.28 1796.75 1384.54 1803.93C1384.66 1807.3 1384.79 1809.92 1384.9 1811.75C1386.09 1810.79 1388.11 1808.42 1390.56 1802.68C1397.01 1787.56 1404.99 1752.34 1410.12 1672.24C1410.5 1666.4 1411.19 1658.92 1412.01 1650.13C1413.65 1632.41 1415.81 1609.2 1416.91 1582.72ZM1477.32 1136.68C1470.45 1157.19 1463.12 1180.18 1456 1204.51C1443.24 1248.17 1431.2 1296.07 1423.75 1341.63C1416.28 1387.25 1413.46 1430.29 1418.97 1464.31C1422.28 1484.71 1423.81 1506.29 1424.38 1527C1426.87 1515.42 1429.04 1503.55 1430.55 1492.07C1427.33 1388.2 1445.51 1276.51 1464.46 1190.87C1468.79 1171.32 1473.16 1153.13 1477.32 1136.68Z" stroke="black" stroke-opacity="0.33" stroke-width="6.99457"/>
<path fill-rule="evenodd" clip-rule="evenodd" d="M1450.34 1547.15C1448.67 1570.37 1444.45 1593.41 1439.37 1614.57C1446.47 1601.17 1453.33 1586.79 1458.97 1571.61C1490.06 1415.53 1587.91 1255.7 1587.91 1255.7C1587.91 1255.7 1458.15 1438.71 1450.34 1547.15Z" fill="#8BC162"/>
<path d="M1365.59 1800.69C1365.59 1800.69 1372.42 1753.49 1399.52 1687.13C1407 1668.81 1423.76 1644.04 1439.37 1614.57C1430.06 1653.35 1417.87 1685.79 1413.22 1701.35C1378.22 1818.52 1365.59 1800.69 1365.59 1800.69Z" fill="url(#paint55_linear_0_1)"/>
<path d="M1428.86 1640.63C1425.57 1646.3 1422.39 1651.72 1419.39 1656.87C1412.3 1669.06 1406.37 1679.63 1402.73 1688.53C1389.25 1721.54 1380.82 1749.78 1375.76 1769.74C1373.23 1779.72 1371.54 1787.63 1370.49 1793.03C1370.2 1794.54 1369.95 1795.86 1369.75 1796.97C1370.68 1796.2 1371.93 1794.92 1373.49 1792.8C1380.63 1783.15 1392.4 1758.85 1409.9 1700.26C1413.49 1688.24 1421.26 1667.01 1428.86 1640.63ZM1540.55 1335.88C1535.5 1344.36 1530.3 1353.29 1525.08 1362.56C1508.41 1392.14 1491.53 1425.05 1478.34 1457.27C1465.13 1489.55 1455.71 1520.92 1453.8 1547.48C1452.82 1561.07 1450.98 1574.59 1448.61 1587.69C1451.1 1582.1 1453.46 1576.39 1455.63 1570.56C1471.28 1492.2 1503.6 1413.04 1531.97 1353.54C1534.88 1347.44 1537.75 1341.55 1540.55 1335.88Z" stroke="black" stroke-opacity="0.33" stroke-width="6.99457"/>
</g>
<defs>
<linearGradient id="paint0_linear_0_1" x1="1112.06" y1="1597.61" x2="1075.51" y2="1945.3" gradientUnits="userSpaceOnUse">
<stop stop-color="#5E6737"/>
<stop offset="0.504808" stop-color="#E6E6C5"/>
<stop offset="0.668269" stop-color="#71623D"/>
</linearGradient>
<linearGradient id="paint1_linear_0_1" x1="1280.63" y1="586.422" x2="1085.54" y2="1621.03" gradientUnits="userSpaceOnUse">
<stop offset="0.466346" stop-color="#8BC163"/>
<stop offset="0.754808" stop-color="#798451"/>
<stop offset="0.879808" stop-color="#9BAD53"/>
</linearGradient>
<linearGradient id="paint2_linear_0_1" x1="1046.88" y1="646.079" x2="1182.12" y2="1612.05" gradientUnits="userSpaceOnUse">
<stop offset="0.600962" stop-color="#5F8343"/>
<stop offset="0.774038" stop-color="#717A50"/>
<stop offset="1" stop-color="#A1B454"/>
</linearGradient>
<linearGradient id="paint3_linear_0_1" x1="1188.29" y1="923.484" x2="1172.57" y2="1284.88" gradientUnits="userSpaceOnUse">
<stop offset="0.466346" stop-color="#8BC163"/>
<stop offset="0.754808" stop-color="#798451"/>
<stop offset="0.879808" stop-color="#9BAD53"/>
</linearGradient>
<linearGradient id="paint4_linear_0_1" x1="1210.93" y1="1337.92" x2="1137.49" y2="1605.6" gradientUnits="userSpaceOnUse">
<stop offset="0.600962" stop-color="#5F8343"/>
<stop offset="0.774038" stop-color="#717A50"/>
<stop offset="1" stop-color="#A1B454"/>
</linearGradient>
<linearGradient id="paint5_linear_0_1" x1="1278.09" y1="862.163" x2="1032.37" y2="1582.28" gradientUnits="userSpaceOnUse">
<stop offset="0.466346" stop-color="#8BC163"/>
<stop offset="0.754808" stop-color="#798451"/>
<stop offset="0.879808" stop-color="#9BAD53"/>
</linearGradient>
<linearGradient id="paint6_linear_0_1" x1="1278.09" y1="862.163" x2="1032.37" y2="1582.28" gradientUnits="userSpaceOnUse">
<stop offset="0.600962" stop-color="#5F8343"/>
<stop offset="0.774038" stop-color="#717A50"/>
<stop offset="1" stop-color="#A1B454"/>
</linearGradient>
<linearGradient id="paint7_linear_0_1" x1="1125.51" y1="1019.26" x2="1115.69" y2="1599.54" gradientUnits="userSpaceOnUse">
<stop offset="0.600962" stop-color="#5F8343"/>
<stop offset="0.774038" stop-color="#717A50"/>
<stop offset="1" stop-color="#A1B454"/>
</linearGradient>
<linearGradient id="paint8_linear_0_1" x1="1330.62" y1="1838.56" x2="1449.58" y2="2165.41" gradientUnits="userSpaceOnUse">
<stop stop-color="#5E6737"/>
<stop offset="0.504808" stop-color="#E6E6C5"/>
<stop offset="0.668269" stop-color="#71623D"/>
</linearGradient>
<linearGradient id="paint9_linear_0_1" x1="924.207" y1="903.082" x2="1361.18" y2="1855.11" gradientUnits="userSpaceOnUse">
<stop offset="0.466346" stop-color="#8BC163"/>
<stop offset="0.754808" stop-color="#798451"/>
<stop offset="0.879808" stop-color="#9BAD53"/>
</linearGradient>
<linearGradient id="paint10_linear_0_1" x1="1165.3" y1="904.019" x2="1268.43" y2="1869.24" gradientUnits="userSpaceOnUse">
<stop offset="0.600962" stop-color="#5F8343"/>
<stop offset="0.774038" stop-color="#717A50"/>
<stop offset="1" stop-color="#A1B454"/>
</linearGradient>
<linearGradient id="paint11_linear_0_1" x1="1094.74" y1="1206.14" x2="1197.01" y2="1551.21" gradientUnits="userSpaceOnUse">
<stop offset="0.466346" stop-color="#8BC163"/>
<stop offset="0.754808" stop-color="#798451"/>
<stop offset="0.879808" stop-color="#9BAD53"/>
</linearGradient>
<linearGradient id="paint12_linear_0_1" x1="1172.33" y1="1611.79" x2="1307.47" y2="1852.67" gradientUnits="userSpaceOnUse">
<stop offset="0.600962" stop-color="#5F8343"/>
<stop offset="0.774038" stop-color="#717A50"/>
<stop offset="1" stop-color="#A1B454"/>
</linearGradient>
<linearGradient id="paint13_linear_0_1" x1="992.9" y1="1168.71" x2="1402.83" y2="1805.35" gradientUnits="userSpaceOnUse">
<stop offset="0.466346" stop-color="#8BC163"/>
<stop offset="0.754808" stop-color="#798451"/>
<stop offset="0.879808" stop-color="#9BAD53"/>
</linearGradient>
<linearGradient id="paint14_linear_0_1" x1="992.9" y1="1168.71" x2="1402.83" y2="1805.35" gradientUnits="userSpaceOnUse">
<stop offset="0.600962" stop-color="#5F8343"/>
<stop offset="0.774038" stop-color="#717A50"/>
<stop offset="1" stop-color="#A1B454"/>
</linearGradient>
<linearGradient id="paint15_linear_0_1" x1="1178.66" y1="1283.4" x2="1328.05" y2="1841.17" gradientUnits="userSpaceOnUse">
<stop offset="0.600962" stop-color="#5F8343"/>
<stop offset="0.774038" stop-color="#717A50"/>
<stop offset="1" stop-color="#A1B454"/>
</linearGradient>
<linearGradient id="paint16_linear_0_1" x1="983.813" y1="1716.97" x2="1066.73" y2="2049.52" gradientUnits="userSpaceOnUse">
<stop stop-color="#5E6737"/>
<stop offset="0.504808" stop-color="#E6E6C5"/>
<stop offset="0.668269" stop-color="#71623D"/>
</linearGradient>
<linearGradient id="paint17_linear_0_1" x1="801.228" y1="728.588" x2="970.059" y2="1747" gradientUnits="userSpaceOnUse">
<stop offset="0.466346" stop-color="#8BC163"/>
<stop offset="0.754808" stop-color="#798451"/>
<stop offset="0.879808" stop-color="#9BAD53"/>
</linearGradient>
<linearGradient id="paint18_linear_0_1" x1="601.582" y1="862.999" x2="1046.68" y2="1710.57" gradientUnits="userSpaceOnUse">
<stop offset="0.600962" stop-color="#5F8343"/>
<stop offset="0.774038" stop-color="#717A50"/>
<stop offset="1" stop-color="#A1B454"/>
</linearGradient>
<linearGradient id="paint19_linear_0_1" x1="828.104" y1="1070.34" x2="934.406" y2="1408.69" gradientUnits="userSpaceOnUse">
<stop offset="0.466346" stop-color="#8BC163"/>
<stop offset="0.754808" stop-color="#798451"/>
<stop offset="0.879808" stop-color="#9BAD53"/>
</linearGradient>
<linearGradient id="paint20_linear_0_1" x1="989.177" y1="1444.23" x2="1012.15" y2="1715.53" gradientUnits="userSpaceOnUse">
<stop offset="0.600962" stop-color="#5F8343"/>
<stop offset="0.774038" stop-color="#717A50"/>
<stop offset="1" stop-color="#A1B454"/>
</linearGradient>
<linearGradient id="paint21_linear_0_1" x1="891.848" y1="983.341" x2="910.135" y2="1729.79" gradientUnits="userSpaceOnUse">
<stop offset="0.466346" stop-color="#8BC163"/>
<stop offset="0.754808" stop-color="#798451"/>
<stop offset="0.879808" stop-color="#9BAD53"/>
</linearGradient>
<linearGradient id="paint22_linear_0_1" x1="891.848" y1="983.341" x2="910.135" y2="1729.79" gradientUnits="userSpaceOnUse">
<stop offset="0.600962" stop-color="#5F8343"/>
<stop offset="0.774038" stop-color="#717A50"/>
<stop offset="1" stop-color="#A1B454"/>
</linearGradient>
<linearGradient id="paint23_linear_0_1" x1="801.38" y1="1179.87" x2="986.021" y2="1718.15" gradientUnits="userSpaceOnUse">
<stop offset="0.600962" stop-color="#5F8343"/>
<stop offset="0.774038" stop-color="#717A50"/>
<stop offset="1" stop-color="#A1B454"/>
</linearGradient>
<linearGradient id="paint24_linear_0_1" x1="938.044" y1="1661.65" x2="1021.39" y2="1995.94" gradientUnits="userSpaceOnUse">
<stop stop-color="#5E6737"/>
<stop offset="0.504808" stop-color="#E6E6C5"/>
<stop offset="0.668269" stop-color="#71623D"/>
</linearGradient>
<linearGradient id="paint25_linear_0_1" x1="633.981" y1="698.197" x2="965.132" y2="1681.57" gradientUnits="userSpaceOnUse">
<stop offset="0.466346" stop-color="#8BC163"/>
<stop offset="0.754808" stop-color="#798451"/>
<stop offset="0.879808" stop-color="#9BAD53"/>
</linearGradient>
<linearGradient id="paint26_linear_0_1" x1="873.463" y1="723.561" x2="877.249" y2="1685.58" gradientUnits="userSpaceOnUse">
<stop offset="0.600962" stop-color="#5F8343"/>
<stop offset="0.774038" stop-color="#717A50"/>
<stop offset="1" stop-color="#A1B454"/>
</linearGradient>
<linearGradient id="paint27_linear_0_1" x1="771.117" y1="1014.26" x2="836.334" y2="1364.74" gradientUnits="userSpaceOnUse">
<stop offset="0.466346" stop-color="#8BC163"/>
<stop offset="0.754808" stop-color="#798451"/>
<stop offset="0.879808" stop-color="#9BAD53"/>
</linearGradient>
<linearGradient id="paint28_linear_0_1" x1="804.937" y1="1422.04" x2="912.768" y2="1673.54" gradientUnits="userSpaceOnUse">
<stop offset="0.600962" stop-color="#5F8343"/>
<stop offset="0.774038" stop-color="#717A50"/>
<stop offset="1" stop-color="#A1B454"/>
</linearGradient>
<linearGradient id="paint29_linear_0_1" x1="673.905" y1="967.028" x2="1010.59" y2="1637.61" gradientUnits="userSpaceOnUse">
<stop offset="0.466346" stop-color="#8BC163"/>
<stop offset="0.754808" stop-color="#798451"/>
<stop offset="0.879808" stop-color="#9BAD53"/>
</linearGradient>
<linearGradient id="paint30_linear_0_1" x1="673.905" y1="967.028" x2="1010.59" y2="1637.61" gradientUnits="userSpaceOnUse">
<stop offset="0.600962" stop-color="#5F8343"/>
<stop offset="0.774038" stop-color="#717A50"/>
<stop offset="1" stop-color="#A1B454"/>
</linearGradient>
<linearGradient id="paint31_linear_0_1" x1="846.26" y1="1098.93" x2="936.149" y2="1663.82" gradientUnits="userSpaceOnUse">
<stop offset="0.600962" stop-color="#5F8343"/>
<stop offset="0.774038" stop-color="#717A50"/>
<stop offset="1" stop-color="#A1B454"/>
</linearGradient>
<linearGradient id="paint32_linear_0_1" x1="1360.26" y1="1618.37" x2="1246.43" y2="1931.13" gradientUnits="userSpaceOnUse">
<stop stop-color="#5E6737"/>
<stop offset="0.504808" stop-color="#E6E6C5"/>
<stop offset="0.668269" stop-color="#71623D"/>
</linearGradient>
<linearGradient id="paint33_linear_0_1" x1="1751.67" y1="724.124" x2="1336.59" y2="1636.82" gradientUnits="userSpaceOnUse">
<stop offset="0.466346" stop-color="#8BC163"/>
<stop offset="0.754808" stop-color="#798451"/>
<stop offset="0.879808" stop-color="#9BAD53"/>
</linearGradient>
<linearGradient id="paint34_linear_0_1" x1="1511.8" y1="721.684" x2="1403.55" y2="1646.52" gradientUnits="userSpaceOnUse">
<stop offset="0.600962" stop-color="#5F8343"/>
<stop offset="0.774038" stop-color="#717A50"/>
<stop offset="1" stop-color="#A1B454"/>
</linearGradient>
<linearGradient id="paint35_linear_0_1" x1="1586.19" y1="1013.29" x2="1487.45" y2="1343.28" gradientUnits="userSpaceOnUse">
<stop offset="0.466346" stop-color="#8BC163"/>
<stop offset="0.754808" stop-color="#798451"/>
<stop offset="0.879808" stop-color="#9BAD53"/>
</linearGradient>
<linearGradient id="paint36_linear_0_1" x1="1514.61" y1="1402.42" x2="1386.74" y2="1634.06" gradientUnits="userSpaceOnUse">
<stop offset="0.600962" stop-color="#5F8343"/>
<stop offset="0.774038" stop-color="#717A50"/>
<stop offset="1" stop-color="#A1B454"/>
</linearGradient>
<linearGradient id="paint37_linear_0_1" x1="1687" y1="978.687" x2="1299.63" y2="1592.79" gradientUnits="userSpaceOnUse">
<stop offset="0.466346" stop-color="#8BC163"/>
<stop offset="0.754808" stop-color="#798451"/>
<stop offset="0.879808" stop-color="#9BAD53"/>
</linearGradient>
<linearGradient id="paint38_linear_0_1" x1="1687" y1="978.687" x2="1299.63" y2="1592.79" gradientUnits="userSpaceOnUse">
<stop offset="0.600962" stop-color="#5F8343"/>
<stop offset="0.774038" stop-color="#717A50"/>
<stop offset="1" stop-color="#A1B454"/>
</linearGradient>
<linearGradient id="paint39_linear_0_1" x1="1503.77" y1="1086.44" x2="1358.77" y2="1619.81" gradientUnits="userSpaceOnUse">
<stop offset="0.600962" stop-color="#5F8343"/>
<stop offset="0.774038" stop-color="#717A50"/>
<stop offset="1" stop-color="#A1B454"/>
</linearGradient>
<linearGradient id="paint40_linear_0_1" x1="1593.74" y1="1809.87" x2="1655.37" y2="2159.41" gradientUnits="userSpaceOnUse">
<stop stop-color="#5E6737"/>
<stop offset="0.504808" stop-color="#E6E6C5"/>
<stop offset="0.668269" stop-color="#71623D"/>
</linearGradient>
<linearGradient id="paint41_linear_0_1" x1="1474.34" y1="776.008" x2="1572.15" y2="1840.32" gradientUnits="userSpaceOnUse">
<stop offset="0.466346" stop-color="#8BC163"/>
<stop offset="0.754808" stop-color="#798451"/>
<stop offset="0.879808" stop-color="#9BAD53"/>
</linearGradient>
<linearGradient id="paint42_linear_0_1" x1="1266.32" y1="899.043" x2="1671.49" y2="1801.67" gradientUnits="userSpaceOnUse">
<stop offset="0.600962" stop-color="#5F8343"/>
<stop offset="0.774038" stop-color="#717A50"/>
<stop offset="1" stop-color="#A1B454"/>
</linearGradient>
<linearGradient id="paint43_linear_0_1" x1="1479.4" y1="1130.65" x2="1565.53" y2="1487.64" gradientUnits="userSpaceOnUse">
<stop offset="0.466346" stop-color="#8BC163"/>
<stop offset="0.754808" stop-color="#798451"/>
<stop offset="0.879808" stop-color="#9BAD53"/>
</linearGradient>
<linearGradient id="paint44_linear_0_1" x1="1616.48" y1="1528.95" x2="1619.04" y2="1810.63" gradientUnits="userSpaceOnUse">
<stop offset="0.600962" stop-color="#5F8343"/>
<stop offset="0.774038" stop-color="#717A50"/>
<stop offset="1" stop-color="#A1B454"/>
</linearGradient>
<linearGradient id="paint45_linear_0_1" x1="1548.63" y1="1045.89" x2="1507.83" y2="1816.72" gradientUnits="userSpaceOnUse">
<stop offset="0.466346" stop-color="#8BC163"/>
<stop offset="0.754808" stop-color="#798451"/>
<stop offset="0.879808" stop-color="#9BAD53"/>
</linearGradient>
<linearGradient id="paint46_linear_0_1" x1="1548.63" y1="1045.89" x2="1507.83" y2="1816.72" gradientUnits="userSpaceOnUse">
<stop offset="0.600962" stop-color="#5F8343"/>
<stop offset="0.774038" stop-color="#717A50"/>
<stop offset="1" stop-color="#A1B454"/>
</linearGradient>
<linearGradient id="paint47_linear_0_1" x1="1445.72" y1="1241.55" x2="1599.27" y2="1810.34" gradientUnits="userSpaceOnUse">
<stop offset="0.600962" stop-color="#5F8343"/>
<stop offset="0.774038" stop-color="#717A50"/>
<stop offset="1" stop-color="#A1B454"/>
</linearGradient>
<linearGradient id="paint48_linear_0_1" x1="1382.15" y1="1804.51" x2="1302.54" y2="2149.36" gradientUnits="userSpaceOnUse">
<stop stop-color="#5E6737"/>
<stop offset="0.504808" stop-color="#E6E6C5"/>
<stop offset="0.668269" stop-color="#71623D"/>
</linearGradient>
<linearGradient id="paint49_linear_0_1" x1="1554.82" y1="781.231" x2="1401.64" y2="1835.92" gradientUnits="userSpaceOnUse">
<stop offset="0.466346" stop-color="#8BC163"/>
<stop offset="0.754808" stop-color="#798451"/>
<stop offset="0.879808" stop-color="#9BAD53"/>
</linearGradient>
<linearGradient id="paint50_linear_0_1" x1="1756.18" y1="914.748" x2="1306.13" y2="1792.87" gradientUnits="userSpaceOnUse">
<stop offset="0.600962" stop-color="#5F8343"/>
<stop offset="0.774038" stop-color="#717A50"/>
<stop offset="1" stop-color="#A1B454"/>
</linearGradient>
<linearGradient id="paint51_linear_0_1" x1="1531.43" y1="1134.14" x2="1427.1" y2="1485.15" gradientUnits="userSpaceOnUse">
<stop offset="0.466346" stop-color="#8BC163"/>
<stop offset="0.754808" stop-color="#798451"/>
<stop offset="0.879808" stop-color="#9BAD53"/>
</linearGradient>
<linearGradient id="paint52_linear_0_1" x1="1373.96" y1="1523.56" x2="1356.59" y2="1803.94" gradientUnits="userSpaceOnUse">
<stop offset="0.600962" stop-color="#5F8343"/>
<stop offset="0.774038" stop-color="#717A50"/>
<stop offset="1" stop-color="#A1B454"/>
</linearGradient>
<linearGradient id="paint53_linear_0_1" x1="1466.69" y1="1046.08" x2="1466.6" y2="1815.89" gradientUnits="userSpaceOnUse">
<stop offset="0.466346" stop-color="#8BC163"/>
<stop offset="0.754808" stop-color="#798451"/>
<stop offset="0.879808" stop-color="#9BAD53"/>
</linearGradient>
<linearGradient id="paint54_linear_0_1" x1="1466.69" y1="1046.08" x2="1466.6" y2="1815.89" gradientUnits="userSpaceOnUse">
<stop offset="0.600962" stop-color="#5F8343"/>
<stop offset="0.774038" stop-color="#717A50"/>
<stop offset="1" stop-color="#A1B454"/>
</linearGradient>
<linearGradient id="paint55_linear_0_1" x1="1559.33" y1="1246.36" x2="1376.88" y2="1804.8" gradientUnits="userSpaceOnUse">
<stop offset="0.600962" stop-color="#5F8343"/>
<stop offset="0.774038" stop-color="#717A50"/>
<stop offset="1" stop-color="#A1B454"/>
</linearGradient>
</defs>
</svg>
