<svg width="152" height="166" viewBox="0 0 152 166" fill="none" xmlns="http://www.w3.org/2000/svg">
<path d="M84.1297 34.4007C88.4887 28.1479 50.8336 137.77 50.4884 135.458C50.1431 133.146 49.5108 135.616 51.0539 127.157C52.5971 118.698 79.7706 40.6535 84.1297 34.4007Z" fill="#9D9D9D" stroke="#696767" stroke-width="2.10663"/>
<ellipse cx="23.8264" cy="7.29909" rx="23.8264" ry="7.29909" transform="matrix(0.44656 0.901445 -0.942842 0.309615 70.8545 49.8423)" fill="#D9D9D9" fill-opacity="0.25"/>
<ellipse cx="21.4147" cy="8.03537" rx="21.4147" ry="8.03537" transform="matrix(-0.409958 0.914915 -0.889617 -0.450791 92.208 48.1891)" fill="#D9D9D9" fill-opacity="0.25"/>
<ellipse cx="22.8905" cy="7.60272" rx="22.8905" ry="7.60272" transform="matrix(0.207086 0.985767 -0.990862 0.0519163 73.3271 45.3396)" fill="#D9D9D9" fill-opacity="0.25"/>
<ellipse cx="21.8325" cy="7.91817" rx="21.8325" ry="7.91817" transform="matrix(-0.143928 0.995525 -0.96225 -0.251316 82.6279 44.5399)" fill="#D9D9D9" fill-opacity="0.25"/>
<ellipse cx="21.3754" cy="8.04619" rx="21.3754" ry="8.04619" transform="matrix(-0.482231 0.877617 -0.861773 -0.503728 81.9717 71.0837)" fill="#D9D9D9" fill-opacity="0.25"/>
<ellipse cx="21.8325" cy="7.91817" rx="21.8325" ry="7.91817" transform="matrix(-0.143928 0.995525 -0.96225 -0.251316 88.0576 52.3392)" fill="#D9D9D9" fill-opacity="0.25"/>
<ellipse cx="21.7487" cy="7.94199" rx="21.7487" ry="7.94199" transform="matrix(-0.182402 0.988824 -0.954338 -0.281132 83.291 47.5714)" fill="#D9D9D9" fill-opacity="0.25"/>
<ellipse cx="21.7487" cy="7.94199" rx="21.7487" ry="7.94199" transform="matrix(-0.182402 0.988824 -0.954338 -0.281132 83.4219 48.278)" fill="#D9D9D9" fill-opacity="0.25"/>
<ellipse cx="23.7672" cy="7.31906" rx="23.7672" ry="7.31906" transform="matrix(0.431896 0.908715 -0.948288 0.292249 68.1426 68.1118)" fill="#D9D9D9" fill-opacity="0.25"/>
<ellipse cx="22.2866" cy="7.78615" rx="22.2866" ry="7.78615" transform="matrix(0.0269975 1.00665 -0.986826 -0.111959 62.3144 99.4327)" fill="#D9D9D9" fill-opacity="0.25"/>
<ellipse cx="23.7071" cy="7.33918" rx="23.7071" ry="7.33918" transform="matrix(0.41704 0.915772 -0.953396 0.274882 63.6348 74.2251)" fill="#D9D9D9" fill-opacity="0.25"/>
<ellipse cx="21.637" cy="7.97351" rx="21.637" ry="7.97351" transform="matrix(-0.240085 0.97578 -0.940886 -0.325044 94.4082 20.489)" fill="#D9D9D9" fill-opacity="0.25"/>
<ellipse cx="21.6723" cy="7.96358" rx="21.6723" ry="7.96358" transform="matrix(-0.220876 0.98053 -0.945578 -0.310516 81.5283 59.2101)" fill="#D9D9D9" fill-opacity="0.25"/>
<ellipse cx="22.4013" cy="7.75203" rx="22.4013" ry="7.75203" transform="matrix(0.0640554 1.00511 -0.989695 -0.0798933 60.7851 94.5741)" fill="#D9D9D9" fill-opacity="0.25"/>
<ellipse cx="22.7649" cy="7.64164" rx="22.7649" ry="7.64164" transform="matrix(0.1722 0.992484 -0.992178 0.0184703 62.6406 88.0715)" fill="#D9D9D9" fill-opacity="0.25"/>
<ellipse cx="21.637" cy="7.97351" rx="21.637" ry="7.97351" transform="matrix(-0.240085 0.97578 -0.940886 -0.325044 78.5517 69.3673)" fill="#D9D9D9" fill-opacity="0.25"/>
<ellipse cx="21.3884" cy="8.04261" rx="21.3884" ry="8.04261" transform="matrix(-0.584643 0.8107 -0.814339 -0.579621 98.8594 52.9441)" fill="#D9D9D9" fill-opacity="0.25"/>
<ellipse cx="22.0708" cy="7.8495" rx="22.0708" ry="7.8495" transform="matrix(-0.0482981 1.00546 -0.978198 -0.174919 72.2256 92.8691)" fill="#D9D9D9" fill-opacity="0.25"/>
<path d="M46.6315 110.636C49.8114 121.493 55.0316 124.773 55.0316 124.773C55.0316 124.773 53.9571 119.472 52.5972 95.1617C51.832 81.483 58.1709 36.5826 58.1709 36.5826C58.1709 36.5826 39.942 87.7952 46.6315 110.636Z" fill="#8BC163"/>
<path d="M56.9169 41.9634C56.6141 42.9016 56.2798 43.9499 55.9236 45.0952C54.3215 50.2455 52.2549 57.3497 50.3978 65.1642C48.5404 72.9803 46.8944 81.4984 46.1293 89.4791C45.3632 97.4705 45.4853 104.876 47.1297 110.49C48.7016 115.857 50.7723 119.332 52.4333 121.456C53.1618 122.387 53.8155 123.057 54.3129 123.517C54.1907 122.625 54.0176 121.227 53.8074 119.136C53.3678 114.762 52.7589 107.35 52.0787 95.1904C51.6931 88.2969 53.094 73.6029 54.5813 60.6833C55.3262 54.2125 56.0946 48.1697 56.6772 43.7448C56.7598 43.1173 56.8424 42.5224 56.9169 41.9634Z" stroke="black" stroke-opacity="0.33" stroke-width="1.03899"/>
<ellipse cx="21.8475" cy="7.93024" rx="21.8475" ry="7.93024" transform="matrix(0.436564 0.906434 -0.937608 0.325363 47.8848 97.0787)" fill="#D9D9D9" fill-opacity="0.25"/>
<ellipse cx="23.2717" cy="7.48201" rx="23.2717" ry="7.48201" transform="matrix(0.307766 0.958798 -0.980028 0.153872 61.8681 75.869)" fill="#D9D9D9" fill-opacity="0.25"/>
<ellipse cx="21.4013" cy="8.03906" rx="21.4013" ry="8.03906" transform="matrix(-0.428273 0.906165 -0.882942 -0.464198 85.0049 80.8927)" fill="#D9D9D9" fill-opacity="0.25"/>
<ellipse cx="22.1763" cy="7.81869" rx="22.1763" ry="7.81869" transform="matrix(-0.0104747 1.00678 -0.982985 -0.143638 70.1933 70.8188)" fill="#D9D9D9" fill-opacity="0.25"/>
<path d="M71.8218 126.116C59.0408 136.157 50.1506 135.589 50.1506 135.589C50.1506 135.589 55.8262 130.283 77.6408 102.934C89.9155 87.5451 119.756 29.5509 119.756 29.5509C119.756 29.5509 98.7085 104.994 71.8218 126.116Z" fill="#8BC163"/>
<path d="M117.731 34.5749C117.157 36.4613 116.426 38.8056 115.552 41.509C113.161 48.9041 109.694 58.9832 105.389 69.7197C101.082 80.4577 95.9411 91.8447 90.2034 101.859C84.4601 111.883 78.1434 120.49 71.5009 125.708C65.1616 130.688 59.8031 133.026 56.0481 134.12C54.1699 134.667 52.6905 134.903 51.6876 135.004C51.6006 135.013 51.5167 135.016 51.4369 135.023C51.5343 134.921 51.6416 134.811 51.7562 134.69C52.6347 133.759 54.0302 132.236 56.1064 129.859C60.2587 125.107 67.1367 116.936 78.0472 103.258C84.2186 95.5209 94.7697 77.13 103.757 60.7215C108.256 52.5073 112.371 44.7744 115.361 39.0954C116.259 37.3893 117.056 35.8678 117.731 34.5749Z" stroke="black" stroke-opacity="0.33" stroke-width="1.03899"/>
<ellipse cx="21.7096" cy="7.95307" rx="21.7096" ry="7.95307" transform="matrix(-0.201645 0.984878 -0.950063 -0.295879 67.9199 101.646)" fill="#D9D9D9" fill-opacity="0.25"/>
<ellipse cx="21.3711" cy="8.04738" rx="21.3711" ry="8.04738" transform="matrix(-0.534456 0.845735 -0.8389 -0.542208 78.8418 106.279)" fill="#D9D9D9" fill-opacity="0.25"/>
<ellipse cx="21.5433" cy="7.99973" rx="21.5433" ry="7.99973" transform="matrix(-0.297456 0.959109 -0.925585 -0.367967 72.873 96.7661)" fill="#D9D9D9" fill-opacity="0.25"/>
<ellipse cx="21.6037" cy="7.9612" rx="21.6037" ry="7.9612" transform="matrix(-0.259259 0.970627 -0.935989 -0.339463 68.0703 101.141)" fill="#D9D9D9" fill-opacity="0.25"/>
<ellipse cx="21.6723" cy="7.96358" rx="21.6723" ry="7.96358" transform="matrix(-0.220876 0.98053 -0.945578 -0.310516 79.4062 86.2603)" fill="#D9D9D9" fill-opacity="0.25"/>
<ellipse cx="22.58" cy="7.69819" rx="22.58" ry="7.69819" transform="matrix(0.118742 1.00025 -0.992113 -0.0311013 89.7256 22.8263)" fill="#D9D9D9" fill-opacity="0.25"/>
<ellipse cx="21.3711" cy="8.04738" rx="21.3711" ry="8.04738" transform="matrix(-0.534456 0.845735 -0.8389 -0.542208 80.9004 98.9773)" fill="#D9D9D9" fill-opacity="0.25"/>
</svg>
