<svg width="89" height="84" viewBox="0 0 89 84" fill="none" xmlns="http://www.w3.org/2000/svg">
<path d="M58.2901 77.3699C64.7659 72.5522 67.6082 62.3428 67.6082 53.5573L23.2694 53.0789C20.1179 62.6668 23.522 72.0394 32.092 77.3699C40.662 82.7005 51.8143 82.1877 58.2901 77.3699Z" fill="#6B802A" stroke="#53631F" stroke-width="5.39652"/>
<path d="M73.3828 11.5163L57.9308 16.7094L51.7686 5.09879L40.7634 16.5242L30.9743 4.87445L30.8498 16.4173L20.1075 10.9416L19.9748 23.2402L5.54199 16.1442C9.41996 20.309 14.8158 29.2315 5.37521 31.6034C-4.06533 33.9753 7.4211 36.2293 14.3444 37.0599L5.18471 49.2611L14.2117 49.3585L19.6175 56.357L25.0924 49.4759L30.4177 56.4736C31.9471 54.1766 36.0711 50.9824 40.3312 56.5805C45.6564 63.5782 44.9196 49.6898 51.212 56.6979C56.2459 62.3044 57.5504 54.4529 57.5735 49.8263L65.639 56.8535L65.7139 49.9141L79.2544 50.0602L73.0337 43.8774L84.8677 37.8207L73.1582 32.3346L79.5368 23.8827L65.9963 23.7367L73.3828 11.5163Z" fill="#D8D6F2" stroke="#D0C1EA" stroke-width="3.59768"/>
</svg>
