<svg width="200" height="250" viewBox="0 0 100 125" xmlns="http://www.w3.org/2000/svg">
  <rect width="100%" height="100%" fill="#f0f8ff" />
  
  <path d="M20,110 Q50,105 80,110 L80,125 L20,125 Z" fill="#5D3A1A"/>
  
  <path d="M50,85 L50,110" stroke="#228B22" stroke-width="2.5" stroke-linecap="round"/>
  
  <ellipse cx="43" cy="85" rx="7" ry="4" fill="#32CD32" transform="rotate(-20 43 85)"/>
  <ellipse cx="57" cy="85" rx="7" ry="4" fill="#32CD32" transform="rotate(20 57 85)"/>
  
  <path d="M50,85 C40,75 35,80 38,70 C42,65 50,75 50,85" fill="#2E8B57" stroke="#228B22" stroke-width="0.5"/>
  <path d="M50,85 C60,75 65,80 62,70 C58,65 50,75 50,85" fill="#2E8B57" stroke="#228B22" stroke-width="0.5"/>
</svg>
