<svg width="200" height="250" viewBox="0 0 100 125" xmlns="http://www.w3.org/2000/svg">
  <rect width="100%" height="100%" fill="#f0f8ff" />

  <path d="M50,70 L50,110" stroke="#228B22" stroke-width="3" stroke-linecap="round"/>
  <path d="M50,85 C40,85 35,95 40,100 C45,105 50,95 50,90" fill="#32CD32" stroke="#228B22" stroke-width="1"/>
  <path d="M50,90 C60,90 65,100 60,105 C55,110 50,100 50,95" fill="#32CD32" stroke="#228B22" stroke-width="1"/>

  <g fill="#FFD700" stroke="#DAA520" stroke-width="0.5">
    <ellipse cx="50" cy="35" rx="5" ry="15" transform="rotate(0 50 50)"/>
    <ellipse cx="50" cy="35" rx="5" ry="15" transform="rotate(30 50 50)"/>
    <ellipse cx="50" cy="35" rx="5" ry="15" transform="rotate(60 50 50)"/>
    <ellipse cx="50" cy="35" rx="5" ry="15" transform="rotate(90 50 50)"/>
    <ellipse cx="50" cy="35" rx="5" ry="15" transform="rotate(120 50 50)"/>
    <ellipse cx="50" cy="35" rx="5" ry="15" transform="rotate(150 50 50)"/>
    <ellipse cx="50" cy="35" rx="5" ry="15" transform="rotate(180 50 50)"/>
    <ellipse cx="50" cy="35" rx="5" ry="15" transform="rotate(210 50 50)"/>
    <ellipse cx="50" cy="35" rx="5" ry="15" transform="rotate(240 50 50)"/>
    <ellipse cx="50" cy="35" rx="5" ry="15" transform="rotate(270 50 50)"/>
    <ellipse cx="50" cy="35" rx="5" ry="15" transform="rotate(300 50 50)"/>
    <ellipse cx="50" cy="35" rx="5" ry="15" transform="rotate(330 50 50)"/>

    <ellipse cx="50" cy="38" rx="4" ry="12" transform="rotate(15 50 50)" fill="#FFC125"/>
    <ellipse cx="50" cy="38" rx="4" ry="12" transform="rotate(45 50 50)" fill="#FFC125"/>
    <ellipse cx="50" cy="38" rx="4" ry="12" transform="rotate(75 50 50)" fill="#FFC125"/>
    <ellipse cx="50" cy="38" rx="4" ry="12" transform="rotate(105 50 50)" fill="#FFC125"/>
    <ellipse cx="50" cy="38" rx="4" ry="12" transform="rotate(135 50 50)" fill="#FFC125"/>
    <ellipse cx="50" cy="38" rx="4" ry="12" transform="rotate(165 50 50)" fill="#FFC125"/>
    <ellipse cx="50" cy="38" rx="4" ry="12" transform="rotate(195 50 50)" fill="#FFC125"/>
    <ellipse cx="50" cy="38" rx="4" ry="12" transform="rotate(225 50 50)" fill="#FFC125"/>
    <ellipse cx="50" cy="38" rx="4" ry="12" transform="rotate(255 50 50)" fill="#FFC125"/>
    <ellipse cx="50" cy="38" rx="4" ry="12" transform="rotate(285 50 50)" fill="#FFC125"/>
    <ellipse cx="50" cy="38" rx="4" ry="12" transform="rotate(315 50 50)" fill="#FFC125"/>
    <ellipse cx="50" cy="38" rx="4" ry="12" transform="rotate(345 50 50)" fill="#FFC125"/>
  </g>

  <circle cx="50" cy="50" r="12" fill="#8B4513" stroke="#5D3A1A" stroke-width="1.5"/>
  <circle cx="50" cy="50" r="1" fill="#CD853F"/>
  <circle cx="46" cy="46" r="1" fill="#CD853F"/>
  <circle cx="54" cy="54" r="1" fill="#CD853F"/>
  <circle cx="46" cy="54" r="1" fill="#CD853F"/>
  <circle cx="54" cy="46" r="1" fill="#CD853F"/>
  <circle cx="50" cy="44" r="1" fill="#CD853F"/>
  <circle cx="50" cy="56" r="1" fill="#CD853F"/>
  <circle cx="44" cy="50" r="1" fill="#CD853F"/>
  <circle cx="56" cy="50" r="1" fill="#CD853F"/>
</svg>
