<svg width="73" height="94" viewBox="0 0 73 94" fill="none" xmlns="http://www.w3.org/2000/svg">
<path d="M34.9884 9.94757L37.7252 6.99135L40.8608 3.60434L41.6081 5.99175L50.0473 3.81922L49.9664 7.27768L59.1529 7.49256L55.5044 10.8676L68.1877 14.1897L63.0332 17.0946L68.0153 21.5602L62.9315 21.4413L67.9083 26.1337L62.8245 26.0147L66.3614 33.1316L61.6716 31.4336L64.3488 39.0598L58.4663 36.8422L64.2171 44.6916L56.5517 42.3945L59.5331 50.3682L54.6503 47.3798L58.0287 55.5519L53.1155 51.9577L52.8918 61.5204L50.0909 55.3662L49.8345 66.3275L46.9777 62.5635L46.7569 72.0038L43.9681 65.3316L43.5066 75.5205L41.364 69.8398L41.1258 80.0236L39.2058 74.3586L38.6552 84.8766L36.6663 79.9193L36.488 88.0025L34.8586 82.8092L34.7524 87.9619L32.8576 85.5201L31.8771 90.7951L30.8252 85.4726L29.2957 87.8342L29.4285 82.6822L27.8061 87.7994L28.0044 79.7167L26.084 84.5825L26.0689 74.0513L24.1084 82.5578L24.4151 69.4434L22.1214 75.8233L22.3786 64.8266L19.698 71.3709L19.9188 61.9306L16.1382 66.7116L17.5627 54.6054L13.6995 59.3179L15.1179 51.0689L10.7498 54.446L14.001 46.429L9.68531 49.2022L12.5876 41.3661L5.91658 43.3279L11.1874 35.7363L6.04831 37.6961L8.6747 30.1939L4.58047 31.6865L7.9217 24.7305L3.55841 24.6284L8.02868 20.157L3.66539 20.055L8.13035 15.8103L3.83779 12.6845L14.855 9.91674L11.874 6.38666L19.7585 6.57109L19.8394 3.11263L26.9796 5.64958L27.724 3.29706L30.2649 6.81684L32.8058 10.3366L34.9884 9.94757Z" fill="url(#paint0_radial_5322_22)"/>
<path d="M34.5896 10.3784L37.7252 6.99135L40.8608 3.60434L41.6081 5.99175L50.0473 3.81922L49.9664 7.27768M34.5896 10.3784L32.8058 10.3366M34.5896 10.3784L55.5044 10.8676M49.9664 7.27768L59.1529 7.49256L55.5044 10.8676M49.9664 7.27768L32.8058 10.3366M55.5044 10.8676L68.1877 14.1897L63.0332 17.0946L68.0153 21.5602L62.9315 21.4413L67.9083 26.1337L62.8245 26.0147M42.9606 31.1472L58.4663 36.8422L64.3488 39.0598L61.6716 31.4336L66.3614 33.1316L62.8245 26.0147M62.8245 26.0147L32.8058 10.3366M58.4663 36.8422L64.2171 44.6916L56.5517 42.3945L59.5331 50.3682L54.6503 47.3798L58.0287 55.5519L53.1155 51.9577M53.1155 51.9577L52.8918 61.5204L50.0909 55.3662L49.8345 66.3275L46.9777 62.5635M32.8058 10.3366L42.9606 31.1472L53.1155 51.9577M32.1507 67.0862L39.2058 74.3586L41.1258 80.0236L41.364 69.8398L43.5066 75.5205L43.9681 65.3316L46.7569 72.0038L46.9777 62.5635M46.9777 62.5635L39.7303 50.439L32.4828 38.3144M26.0689 74.0513L26.084 84.5825L28.0044 79.7167L27.8061 87.7994L29.4285 82.6822L29.2957 87.8342L30.8252 85.4726L31.8771 90.7951L32.8576 85.5201L34.7524 87.9619L34.8586 82.8092L36.488 88.0025L36.6663 79.9193L38.6552 84.8766L39.2058 74.3586M32.8058 10.3366L30.2649 6.81684L27.724 3.29706L26.9796 5.64958L19.8394 3.11263L19.7585 6.57109M32.8058 10.3366L8.02868 20.157M32.8058 10.3366L19.7585 6.57109M32.8058 10.3366L8.13035 15.8103M32.8058 10.3366L32.4828 38.3144M15.1179 51.0689L23.9618 30.7028L32.8058 10.3366M19.7585 6.57109L11.874 6.38666L14.855 9.91674L3.83779 12.6845L8.13035 15.8103M8.13035 15.8103L3.66539 20.055L8.02868 20.157M8.02868 20.157L3.55841 24.6284L7.9217 24.7305L4.58047 31.6865L8.6747 30.1939L6.04831 37.6961L11.1874 35.7363M11.1874 35.7363L5.91658 43.3279L12.5876 41.3661L9.68531 49.2022L14.001 46.429L10.7498 54.446L15.1179 51.0689M11.1874 35.7363L23.9618 30.7028M15.1179 51.0689L13.6995 59.3179L17.5627 54.6054L16.1382 66.7116L19.9188 61.9306M32.1507 67.0862L26.0689 74.0513L24.1084 82.5578L24.4151 69.4434L22.1214 75.8233L22.3786 64.8266L19.698 71.3709L19.9188 61.9306M19.9188 61.9306L24.8057 52.7448L32.4828 38.3144M31.8771 90.7951L32.1507 67.0862M32.4828 38.3144L32.1507 67.0862" stroke="#85E68C" stroke-width="3"/>
<defs>
<radialGradient id="paint0_radial_5322_22" cx="0" cy="0" r="1" gradientTransform="matrix(-1.08231 67.253 -79.1356 -1.43616 33.8111 11.23)" gradientUnits="userSpaceOnUse">
<stop offset="0.0865385" stop-color="#396741"/>
<stop offset="1" stop-color="#76DE87"/>
</radialGradient>
</defs>
</svg>
