<svg width="84" height="78" viewBox="0 0 84 78" fill="none" xmlns="http://www.w3.org/2000/svg">
<rect x="16.0352" y="20.1406" width="48.3478" height="38.2844" fill="#4E45AE"/>
<path d="M17.9069 38.2982C24.1418 38.2982 28.5172 40.279 35.0802 43.658C41.6433 47.037 44.07 59.0709 41.6433 64.6598C39.2166 70.2487 29.3065 73.8074 22.9386 74.8853C16.5707 75.9632 6.72732 73.2564 6.72732 73.2564L4.34331 62.0346C4.34331 62.0346 1.60871 54.1443 4.34331 48.799C7.07791 43.4536 11.672 38.2982 17.9069 38.2982Z" fill="url(#paint0_radial_5278_29)" stroke="#4E45AE" stroke-width="4.37536" stroke-linecap="square"/>
<path d="M59.3868 38.3859C53.68 38.3859 49.6752 36.5627 43.668 33.4526C37.6608 30.3424 35.4396 19.2662 37.6608 14.1221C39.882 8.97791 48.9527 5.70237 54.7813 4.71023C60.6098 3.7181 69.6195 6.20958 69.6195 6.20958L71.8016 16.5384C71.8016 16.5384 74.3046 23.8007 71.8016 28.7207C69.2986 33.6407 65.0936 38.3859 59.3868 38.3859Z" fill="url(#paint1_radial_5278_29)" stroke="#483DB3" stroke-width="4.37536" stroke-linecap="square"/>
<path d="M36.3324 21.4009C35.0211 27.4964 33.8471 27.9434 29.1633 33.649C24.4796 39.3546 12.2046 39.1961 7.25104 35.6483C2.29751 32.1005 3.88434 22.8455 4.16981 16.3934C4.45528 9.9412 9.9099 7.67076 9.9099 7.67076L17.5052 3.80414C17.5052 3.80414 24.4919 1.96676 29.1425 5.76441C33.7932 9.56206 37.6437 15.3055 36.3324 21.4009Z" fill="url(#paint2_radial_5278_29)" stroke="#4B40B7" stroke-width="4.37536" stroke-linecap="square"/>
<path d="M42.3699 55.3317C43.6812 49.2363 43.1263 50.8956 49.539 43.0836C55.9517 35.2716 66.6989 36.8943 71.1837 43.0836C75.6684 49.2729 75.9539 54.4155 75.6684 60.8676C75.383 67.3198 67.0271 74.8688 67.0271 74.8688L59.6983 71.9155C59.6983 71.9155 52.8878 68.962 49.539 66.2274C46.1901 63.4928 41.0586 61.4271 42.3699 55.3317Z" fill="url(#paint3_radial_5278_29)" stroke="#4B40B5" stroke-width="4.37536" stroke-linecap="square"/>
<path d="M45.9401 32.3305C50.2451 35.6798 51.5278 41.232 48.805 44.7317C46.0822 48.2314 40.3851 48.3533 36.0801 45.0039C31.7751 41.6546 30.4924 36.1024 33.2152 32.6027C35.9379 29.1031 41.6351 28.9812 45.9401 32.3305Z" fill="url(#paint4_radial_5278_29)"/>
<path d="M38.4987 33.4762C38.3385 33.9958 38.6315 34.5417 39.153 34.6956C39.6745 34.8495 40.227 34.5531 40.3872 34.0336L39.4429 33.7549L38.4987 33.4762ZM61.566 12.8795L62.5219 12.6225L62.0235 10.7287L61.0677 10.9856L61.3169 11.9326L61.566 12.8795ZM39.4429 33.7549L40.3872 34.0336C44.543 20.5506 56.2797 14.3004 61.566 12.8795L61.3169 11.9326L61.0677 10.9856C55.3433 12.5243 42.9155 19.1464 38.4987 33.4762L39.4429 33.7549Z" fill="#817BBA"/>
<ellipse cx="3.53676" cy="2.14195" rx="3.53676" ry="2.14195" transform="matrix(0.999685 0.0753616 -0.0782303 0.994317 58.8389 9.52148)" fill="#D9D9D9"/>
<path d="M45.7398 35.4022C45.2231 35.5697 44.6663 35.2864 44.4962 34.7694C44.3262 34.2525 44.6072 33.6976 45.1239 33.5302L45.4318 34.4662L45.7398 35.4022ZM74.9558 15.481L75.9364 15.3924L76.1231 17.3522L75.1425 17.4409L75.0492 16.461L74.9558 15.481ZM45.4318 34.4662L45.1239 33.5302C50.8762 31.6658 56.358 27.446 61.4107 23.4851C63.9094 21.5263 66.3124 19.6253 68.5397 18.179C70.7483 16.7449 72.9183 15.6652 74.9558 15.481L75.0492 16.461L75.1425 17.4409C73.607 17.5797 71.775 18.4303 69.6189 19.8304C67.4814 21.2183 65.1569 23.0555 62.6314 25.0353C57.6354 28.9518 51.8816 33.4116 45.7398 35.4022L45.4318 34.4662Z" fill="#817BBA"/>
<ellipse cx="3.53965" cy="2.14014" rx="3.53965" ry="2.14014" transform="matrix(-0.925324 0.375852 0.390807 0.921884 80.4443 13.2408)" fill="#D9D9D9"/>
<path d="M43.3026 42.4031C42.7795 42.2548 42.4805 41.7119 42.6347 41.1905C42.7889 40.6691 43.3379 40.3667 43.8609 40.515L43.5817 41.459L43.3026 42.4031ZM66.1232 37.1415L66.9026 36.5315L68.115 38.0694L67.3356 38.6794L66.7294 37.9105L66.1232 37.1415ZM43.5817 41.459L43.8609 40.515C54.4321 43.512 63.1638 39.4577 66.1232 37.1415L66.7294 37.9105L67.3356 38.6794C63.9725 41.3116 54.5938 45.6044 43.3026 42.4031L43.5817 41.459Z" fill="#817BBA"/>
<ellipse cx="2.396" cy="1.66158" rx="2.396" ry="1.66158" transform="matrix(0.510051 -0.86329 -0.891116 -0.449046 67.3496 40.2365)" fill="#D9D9D9"/>
<defs>
<radialGradient id="paint0_radial_5278_29" cx="0" cy="0" r="1" gradientUnits="userSpaceOnUse" gradientTransform="translate(35.0803 49.8929) rotate(139.258) scale(38.5475 42.8535)">
<stop stop-color="#998FF2"/>
<stop offset="0.846154" stop-color="#382D9A"/>
</radialGradient>
<radialGradient id="paint1_radial_5278_29" cx="0" cy="0" r="1" gradientTransform="matrix(26.732 -23.1563 25.5999 29.8843 43.668 27.7138)" gradientUnits="userSpaceOnUse">
<stop stop-color="#998FF2"/>
<stop offset="0.846154" stop-color="#382D9A"/>
</radialGradient>
<radialGradient id="paint2_radial_5278_29" cx="0" cy="0" r="1" gradientUnits="userSpaceOnUse" gradientTransform="translate(23.0679 32.3377) rotate(-118.602) scale(38.5475 42.8535)">
<stop stop-color="#998FF2"/>
<stop offset="0.692308" stop-color="#382D9A"/>
</radialGradient>
<radialGradient id="paint3_radial_5278_29" cx="0" cy="0" r="1" gradientUnits="userSpaceOnUse" gradientTransform="translate(55.6346 44.3949) rotate(61.3985) scale(38.5475 42.8535)">
<stop stop-color="#998FF2"/>
<stop offset="0.692308" stop-color="#382D9A"/>
</radialGradient>
<radialGradient id="paint4_radial_5278_29" cx="0" cy="0" r="1" gradientUnits="userSpaceOnUse" gradientTransform="translate(40.162 39.1318) rotate(37.8831) scale(9.87617 8.02864)">
<stop stop-color="#DFDFDE"/>
<stop offset="1" stop-color="#BEBE98"/>
</radialGradient>
</defs>
</svg>
