<svg xmlns="http://www.w3.org/2000/svg" width="1953" height="2003" viewBox="0 0 1953 2003" fill="none">
<path d="M42 40V41H1911V40V39H42V40ZM1913 42H1912V1961H1913H1914V42H1913ZM1911 1963V1962H42V1963V1964H1911V1963ZM40 1961H41V42H40H39V1961H40ZM42 1963V1962C41.4477 1962 41 1961.55 41 1961H40H39C39 1962.66 40.3432 1964 42 1964V1963ZM1913 1961H1912C1912 1961.55 1911.55 1962 1911 1962V1963V1964C1912.66 1964 1914 1962.66 1914 1961H1913ZM1911 40V41C1911.55 41 1912 41.4477 1912 42H1913H1914C1914 40.3431 1912.66 39 1911 39V40ZM42 40V39C40.3431 39 39 40.3431 39 42H40H41C41 41.4477 41.4477 41 42 41V40Z" fill="white" fill-opacity="0.1" />
<path d="M807.865 1640.09C831.305 1562.26 944.535 1400.65 932.219 1283.34" stroke="#6C932E" stroke-width="10" stroke-linecap="square" />
<path d="M810.458 1639.72C833.899 1561.88 947.128 1400.28 934.812 1282.97" stroke="#4F6C20" stroke-width="6" stroke-linecap="square" />
<path d="M928.472 1310.97C947.361 1296.59 916.427 1274.81 903.712 1264.01C900.334 1275.66 908.48 1314.16 928.472 1310.97Z" fill="url(#paint0_linear_0_1)" stroke="#1D4722" stroke-width="8.45585" stroke-linecap="square" />
<path d="M942.313 1253.52C939.917 1232.17 976.307 1236.68 992.593 1237.28C986.515 1247.21 953.458 1268.04 942.313 1253.52Z" fill="url(#paint1_linear_0_1)" stroke="#1D4722" stroke-width="8" stroke-linecap="square" />
<path d="M930.288 1312.63C952.289 1321.99 960.056 1290.47 965.041 1276.85C952.329 1278.42 918.616 1298.43 930.288 1312.63Z" fill="url(#paint2_linear_0_1)" stroke="#1D4722" stroke-width="8" stroke-linecap="square" />
<path d="M926.108 1256.49C903.392 1248.74 921.743 1221.27 928.515 1208.33C936.355 1217.76 945.153 1254.04 926.108 1256.49Z" fill="url(#paint3_linear_0_1)" stroke="#1D4722" stroke-width="8" stroke-linecap="square" />
<path d="M921.834 1282.47C942.857 1282.55 935.143 1254.42 933.066 1241.71C923.953 1247.31 906.667 1274.96 921.834 1282.47Z" fill="url(#paint4_linear_0_1)" stroke="#1D4722" stroke-width="8" stroke-linecap="square" />
<path d="M953.681 1293.35C945.181 1270.29 977.274 1264.52 991.21 1260.37C989.088 1273.22 967.496 1306.22 953.681 1293.35Z" fill="url(#paint5_linear_0_1)" stroke="#1D4722" stroke-width="8" stroke-linecap="square" />
<path d="M933.153 1284.51C956.192 1300.97 973.24 1263.21 982.49 1247.25C967.393 1246.47 923.295 1264.23 933.153 1284.51Z" fill="url(#paint6_linear_0_1)" stroke="#1D4722" stroke-width="8" stroke-linecap="square" />
<path d="M944.512 1242.95C922.501 1240.06 934.527 1211.39 938.487 1198.23C947.237 1205.44 961.439 1237.15 944.512 1242.95Z" fill="url(#paint7_linear_0_1)" stroke="#1D4722" stroke-width="8" stroke-linecap="square" />
<path d="M1033.81 1639.86C1053.03 1520.7 1080.4 1507.75 1135.64 1475.71" stroke="#6C932E" stroke-width="6" stroke-linecap="square" />
<path d="M1035.45 1640.35C1054.66 1521.19 1082.04 1508.23 1137.27 1476.2" stroke="#4F6C20" stroke-width="3" stroke-linecap="square" />
<path d="M1146.38 1486.01C1158.61 1475.92 1137.76 1462.92 1129.16 1456.37C1127.13 1464.09 1133.21 1488.85 1146.38 1486.01Z" fill="url(#paint8_linear_0_1)" stroke="#1D4722" stroke-width="6.42225" stroke-linecap="square" />
<path d="M1152.07 1463.49C1163.22 1474.71 1174.27 1452.68 1180.02 1443.48C1172.15 1442.21 1148.05 1450.66 1152.07 1463.49Z" fill="url(#paint9_linear_0_1)" stroke="#1D4722" stroke-width="6.42225" stroke-linecap="square" />
<path d="M1140.01 1480.95C1141.7 1464.39 1163.1 1473.15 1172.89 1476C1167.74 1482.64 1144.63 1493.62 1140.01 1480.95Z" fill="url(#paint10_linear_0_1)" stroke="#1D4722" stroke-width="6.42225" stroke-linecap="square" />
<path d="M1146.96 1470.53C1129.39 1468.3 1140.88 1444.78 1144.9 1434C1151.51 1439.85 1160.98 1465.69 1146.96 1470.53Z" fill="url(#paint11_linear_0_1)" stroke="#1D4722" stroke-width="6.42225" stroke-linecap="square" />
<path d="M841.411 1642.25C851.408 1519.04 822.472 1434.02 805.868 1333.63" stroke="#6C932E" stroke-width="11" stroke-linecap="square" />
<path d="M844.004 1641.88C854.001 1518.67 825.065 1433.65 808.46 1333.26" stroke="#4F6C20" stroke-width="6" stroke-linecap="square" />
<path d="M817.164 1361.18C804.584 1348.96 829.723 1336.5 840.241 1330.05C841.581 1338.74 831.681 1365.51 817.164 1361.18Z" fill="url(#paint12_linear_0_1)" stroke="#1D4722" stroke-width="8" stroke-linecap="square" />
<path d="M793.845 1367.68C798.43 1351.85 769.43 1350.76 756.63 1349.21C760.117 1357.45 783.293 1377.27 793.845 1367.68Z" fill="url(#paint13_linear_0_1)" stroke="#1D4722" stroke-width="8" stroke-linecap="square" />
<path d="M805.374 1323.75C809.513 1307.83 780.49 1307.34 767.649 1306.05C771.367 1314.22 795.094 1333.56 805.374 1323.75Z" fill="url(#paint14_linear_0_1)" stroke="#1D4722" stroke-width="8" stroke-linecap="square" />
<path d="M808.552 1369.82C790.303 1374.54 787.546 1349.83 785.077 1338.98C794.882 1341.54 819.211 1360.31 808.552 1369.82Z" fill="url(#paint15_linear_0_1)" stroke="#1D4722" stroke-width="8" stroke-linecap="square" />
<path d="M818.376 1347.88C801.876 1345.68 810.903 1325.2 813.877 1315.8C820.434 1321.02 831.068 1343.82 818.376 1347.88Z" fill="url(#paint16_linear_0_1)" stroke="#1D4722" stroke-width="8" stroke-linecap="square" />
<path d="M782.937 1356.55C799.662 1347.05 782.808 1328.05 776.311 1318.83C771.208 1327.45 768.028 1357.44 782.937 1356.55Z" fill="url(#paint17_linear_0_1)" stroke="#1D4722" stroke-width="8" stroke-linecap="square" />
<path d="M796.827 1312.6C810.04 1303.84 790.615 1289.65 782.721 1282.65C779.914 1289.94 783.429 1314.31 796.827 1312.6Z" fill="url(#paint18_linear_0_1)" stroke="#1D4722" stroke-width="8" stroke-linecap="square" />
<path d="M809.28 1348.21C789.466 1358.2 780.087 1327.77 774.521 1314.69C786.446 1315.72 819.159 1333.91 809.28 1348.21Z" fill="url(#paint19_linear_0_1)" stroke="#1D4722" stroke-width="8" stroke-linecap="square" />
<path d="M942.013 1640.15C932.264 1570.97 954.119 1520.72 965.916 1462.63" stroke="#6C932E" stroke-width="4" stroke-linecap="square" />
<path d="M944.532 1639.51C934.783 1570.33 956.637 1520.08 968.435 1461.99" stroke="#4F6C20" stroke-width="3" stroke-linecap="square" />
<path d="M958.136 1488.03C955.799 1475.08 979.073 1476.07 989.436 1475.66C985.956 1482.02 965.766 1496.37 958.136 1488.03Z" fill="url(#paint20_linear_0_1)" stroke="#1D4722" stroke-width="6.42225" stroke-linecap="square" />
<path d="M968.274 1470.67C955.26 1468.85 963.31 1447 966.076 1437C971.061 1442.3 978.53 1466.01 968.274 1470.67Z" fill="url(#paint21_linear_0_1)" stroke="#1D4722" stroke-width="6.42225" stroke-linecap="square" />
<path d="M959.998 1492.69C971.835 1483.43 957.674 1469.25 952.067 1462.22C948.903 1469.76 948.854 1494.71 959.998 1492.69Z" fill="url(#paint22_linear_0_1)" stroke="#1D4722" stroke-width="6.42225" stroke-linecap="square" />
<path d="M967.537 1473.65C982.962 1479.83 986.756 1458.31 989.504 1449C980.924 1450.18 958.917 1464.08 967.537 1473.65Z" fill="url(#paint23_linear_0_1)" stroke="#1D4722" stroke-width="6.42225" stroke-linecap="square" />
<path d="M1167.07 1532.8C1098.77 1587.42 1110.29 1649.13 1081.17 1648.71C1081.17 1648.71 1104.39 1580.19 1127.59 1554.13C1150.8 1528.06 1167.07 1532.8 1167.07 1532.8Z" fill="url(#paint24_linear_0_1)" stroke="#287A34" stroke-width="6.61864" />
<path d="M1110.68 1575.16C1126.94 1547.78 1164.73 1533.21 1164.73 1533.21C1150.78 1530.37 1123.69 1541.19 1102.11 1566.8C1076.68 1596.99 1066.39 1644.31 1081.17 1648.71C1081.17 1648.71 1094.43 1602.54 1110.68 1575.16Z" fill="url(#paint25_linear_0_1)" stroke="#287A34" stroke-width="6.61864" />
<path d="M723.007 1510.08C779.285 1577.49 768.776 1653.54 793.113 1653.06C793.113 1653.06 774.695 1568.57 755.681 1536.42C736.667 1504.26 723.007 1510.08 723.007 1510.08Z" fill="url(#paint26_linear_0_1)" stroke="#287A34" stroke-width="6.61864" />
<path d="M769.507 1562.37C756.321 1528.6 724.956 1510.6 724.956 1510.6C736.646 1507.1 759.126 1520.48 776.785 1552.07C797.601 1589.31 805.52 1647.64 793.113 1653.05C793.113 1653.05 782.693 1596.14 769.507 1562.37Z" fill="url(#paint27_linear_0_1)" stroke="#287A34" stroke-width="6.61864" />
<path d="M1014.95 1565.17C1056.66 1607.38 1039.89 1647.98 1060.93 1650.02C1060.93 1650.02 1053.61 1602.06 1040.47 1582.67C1027.33 1563.28 1014.95 1565.17 1014.95 1565.17Z" fill="url(#paint28_linear_0_1)" stroke="#287A34" stroke-width="6.61864" />
<path d="M1049.76 1598.18C1041.81 1578.46 1016.58 1565.64 1016.58 1565.64C1027.02 1564.83 1045.06 1574.29 1057.09 1593.24C1071.27 1615.58 1072.18 1648.24 1060.93 1650.02C1060.93 1650.02 1057.71 1617.9 1049.76 1598.18Z" fill="url(#paint29_linear_0_1)" stroke="#287A34" stroke-width="6.61864" />
<path d="M885.996 1549.03C824.547 1598.72 845.618 1650.72 815.836 1651.72C815.836 1651.72 829.189 1592.3 848.934 1569.03C868.68 1545.76 885.996 1549.03 885.996 1549.03Z" fill="url(#paint30_linear_0_1)" stroke="#287A34" stroke-width="6.61864" />
<path d="M834.855 1587.73C847.306 1563.66 883.671 1549.5 883.671 1549.5C869.013 1547.72 843 1558.2 824.849 1581.01C803.454 1607.89 800.096 1648.66 815.837 1651.72C815.837 1651.72 822.403 1611.8 834.855 1587.73Z" fill="url(#paint31_linear_0_1)" stroke="#287A34" stroke-width="6.61864" />
<path d="M975.98 1573.02C967.481 1622.95 924.7 1646.65 935.859 1657.2C935.859 1657.2 969.888 1617.6 977.454 1597.24C985.019 1576.87 975.98 1573.02 975.98 1573.02Z" fill="url(#paint32_linear_0_1)" stroke="#287A34" stroke-width="6.61864" />
<path d="M970.665 1613C981.654 1594.6 976.597 1574.07 976.597 1574.07C983.588 1577.92 986.975 1592.82 979.083 1612.37C969.779 1635.42 944.132 1660.65 935.859 1657.2C935.859 1657.2 959.676 1631.39 970.665 1613Z" fill="url(#paint33_linear_0_1)" stroke="#287A34" stroke-width="6.61864" />
<path d="M925.014 1564.02C915.745 1616.22 950.218 1633.83 935.263 1647.26C935.263 1647.26 915.236 1610.91 914.903 1590.37C914.57 1569.84 925.014 1564.02 925.014 1564.02Z" fill="url(#paint34_linear_0_1)" stroke="#287A34" stroke-width="6.61864" />
<path d="M916.095 1606.1C911.627 1588.32 924.019 1565.26 924.019 1565.26C915.632 1570.71 906.925 1587.38 907.873 1606.98C908.991 1630.09 925.732 1652.51 935.263 1647.26C935.263 1647.26 920.563 1623.88 916.095 1606.1Z" fill="url(#paint35_linear_0_1)" stroke="#287A34" stroke-width="6.61864" />
<defs>
<linearGradient id="paint0_linear_0_1" x1="927.228" y1="1311.93" x2="916.555" y2="1265.02" gradientUnits="userSpaceOnUse">
<stop stop-color="#AB7DC9" />
<stop offset="0.629808" stop-color="#4D388B" />
</linearGradient>
<linearGradient id="paint1_linear_0_1" x1="942.459" y1="1254.94" x2="982.328" y2="1228.64" gradientUnits="userSpaceOnUse">
<stop stop-color="#AB7DC9" />
<stop offset="0.629808" stop-color="#4D388B" />
</linearGradient>
<linearGradient id="paint2_linear_0_1" x1="928.824" y1="1312.02" x2="962.79" y2="1279.89" gradientUnits="userSpaceOnUse">
<stop stop-color="#AB7DC9" />
<stop offset="0.629808" stop-color="#4D388B" />
</linearGradient>
<linearGradient id="paint3_linear_0_1" x1="927.611" y1="1257.01" x2="924.735" y2="1212.17" gradientUnits="userSpaceOnUse">
<stop stop-color="#AB7DC9" />
<stop offset="0.629808" stop-color="#4D388B" />
</linearGradient>
<linearGradient id="paint4_linear_0_1" x1="920.44" y1="1282.47" x2="935.618" y2="1246.18" gradientUnits="userSpaceOnUse">
<stop stop-color="#AB7DC9" />
<stop offset="0.629808" stop-color="#4D388B" />
</linearGradient>
<linearGradient id="paint5_linear_0_1" x1="954.234" y1="1294.88" x2="988.415" y2="1262.85" gradientUnits="userSpaceOnUse">
<stop stop-color="#AB7DC9" />
<stop offset="0.629808" stop-color="#4D388B" />
</linearGradient>
<linearGradient id="paint6_linear_0_1" x1="931.617" y1="1283.43" x2="981.497" y2="1254.72" gradientUnits="userSpaceOnUse">
<stop stop-color="#AB7DC9" />
<stop offset="0.629808" stop-color="#4D388B" />
</linearGradient>
<linearGradient id="paint7_linear_0_1" x1="945.97" y1="1243.16" x2="934.942" y2="1202.67" gradientUnits="userSpaceOnUse">
<stop stop-color="#AB7DC9" />
<stop offset="0.629808" stop-color="#4D388B" />
</linearGradient>
<linearGradient id="paint8_linear_0_1" x1="1145.57" y1="1486.68" x2="1137.08" y2="1456.71" gradientUnits="userSpaceOnUse">
<stop stop-color="#AB7DC9" />
<stop offset="0.629808" stop-color="#4D388B" />
</linearGradient>
<linearGradient id="paint9_linear_0_1" x1="1151.33" y1="1462.76" x2="1180.46" y2="1451.56" gradientUnits="userSpaceOnUse">
<stop stop-color="#AB7DC9" />
<stop offset="0.629808" stop-color="#4D388B" />
</linearGradient>
<linearGradient id="paint10_linear_0_1" x1="1139.89" y1="1482.05" x2="1169.52" y2="1473.31" gradientUnits="userSpaceOnUse">
<stop stop-color="#AB7DC9" />
<stop offset="0.629808" stop-color="#4D388B" />
</linearGradient>
<linearGradient id="paint11_linear_0_1" x1="1148.12" y1="1470.69" x2="1139.16" y2="1438.37" gradientUnits="userSpaceOnUse">
<stop stop-color="#AB7DC9" />
<stop offset="0.629808" stop-color="#4D388B" />
</linearGradient>
<linearGradient id="paint12_linear_0_1" x1="817.991" y1="1362" x2="830.035" y2="1329.26" gradientUnits="userSpaceOnUse">
<stop stop-color="#AB7DC9" />
<stop offset="0.629808" stop-color="#4D388B" />
</linearGradient>
<linearGradient id="paint13_linear_0_1" x1="793.55" y1="1368.73" x2="766.612" y2="1343.04" gradientUnits="userSpaceOnUse">
<stop stop-color="#AB7DC9" />
<stop offset="0.629808" stop-color="#4D388B" />
</linearGradient>
<linearGradient id="paint14_linear_0_1" x1="805.109" y1="1324.81" x2="777.444" y2="1299.7" gradientUnits="userSpaceOnUse">
<stop stop-color="#AB7DC9" />
<stop offset="0.629808" stop-color="#4D388B" />
</linearGradient>
<linearGradient id="paint15_linear_0_1" x1="809.765" y1="1369.51" x2="787.52" y2="1340.76" gradientUnits="userSpaceOnUse">
<stop stop-color="#AB7DC9" />
<stop offset="0.629808" stop-color="#4D388B" />
</linearGradient>
<linearGradient id="paint16_linear_0_1" x1="819.469" y1="1348.03" x2="812.067" y2="1318.74" gradientUnits="userSpaceOnUse">
<stop stop-color="#AB7DC9" />
<stop offset="0.629808" stop-color="#4D388B" />
</linearGradient>
<linearGradient id="paint17_linear_0_1" x1="781.831" y1="1357.19" x2="777.342" y2="1321.58" gradientUnits="userSpaceOnUse">
<stop stop-color="#AB7DC9" />
<stop offset="0.629808" stop-color="#4D388B" />
</linearGradient>
<linearGradient id="paint18_linear_0_1" x1="795.956" y1="1313.19" x2="790.345" y2="1283.64" gradientUnits="userSpaceOnUse">
<stop stop-color="#AB7DC9" />
<stop offset="0.629808" stop-color="#4D388B" />
</linearGradient>
<linearGradient id="paint19_linear_0_1" x1="810.599" y1="1347.56" x2="775.394" y2="1319.35" gradientUnits="userSpaceOnUse">
<stop stop-color="#AB7DC9" />
<stop offset="0.629808" stop-color="#4D388B" />
</linearGradient>
<linearGradient id="paint20_linear_0_1" x1="958.283" y1="1488.88" x2="982.037" y2="1470.16" gradientUnits="userSpaceOnUse">
<stop stop-color="#AB7DC9" />
<stop offset="0.629808" stop-color="#4D388B" />
</linearGradient>
<linearGradient id="paint21_linear_0_1" x1="969.135" y1="1470.8" x2="958.649" y2="1442.31" gradientUnits="userSpaceOnUse">
<stop stop-color="#AB7DC9" />
<stop offset="0.629808" stop-color="#4D388B" />
</linearGradient>
<linearGradient id="paint22_linear_0_1" x1="959.216" y1="1493.31" x2="951.882" y2="1464.7" gradientUnits="userSpaceOnUse">
<stop stop-color="#AB7DC9" />
<stop offset="0.629808" stop-color="#4D388B" />
</linearGradient>
<linearGradient id="paint23_linear_0_1" x1="966.512" y1="1473.24" x2="988.083" y2="1451.06" gradientUnits="userSpaceOnUse">
<stop stop-color="#AB7DC9" />
<stop offset="0.629808" stop-color="#4D388B" />
</linearGradient>
<linearGradient id="paint24_linear_0_1" x1="1121.32" y1="1512.51" x2="1100.22" y2="1651.6" gradientUnits="userSpaceOnUse">
<stop offset="0.302885" stop-color="#309D40" />
<stop offset="1" stop-color="#184F20" />
</linearGradient>
<linearGradient id="paint25_linear_0_1" x1="1105.62" y1="1510.13" x2="1084.52" y2="1649.22" gradientUnits="userSpaceOnUse">
<stop stop-color="#3DB44F" />
<stop offset="1" stop-color="#266830" />
</linearGradient>
<linearGradient id="paint26_linear_0_1" x1="761.518" y1="1485.13" x2="798.498" y2="1651.86" gradientUnits="userSpaceOnUse">
<stop offset="0.302885" stop-color="#309D40" />
<stop offset="1" stop-color="#184F20" />
</linearGradient>
<linearGradient id="paint27_linear_0_1" x1="774.673" y1="1482.21" x2="811.652" y2="1648.94" gradientUnits="userSpaceOnUse">
<stop stop-color="#3DB44F" />
<stop offset="1" stop-color="#266830" />
</linearGradient>
<linearGradient id="paint28_linear_0_1" x1="1050.71" y1="1555.17" x2="1053.55" y2="1650.24" gradientUnits="userSpaceOnUse">
<stop offset="0.302885" stop-color="#309D40" />
<stop offset="1" stop-color="#184F20" />
</linearGradient>
<linearGradient id="paint29_linear_0_1" x1="1062.35" y1="1554.83" x2="1065.19" y2="1649.9" gradientUnits="userSpaceOnUse">
<stop stop-color="#3DB44F" />
<stop offset="1" stop-color="#266830" />
</linearGradient>
<linearGradient id="paint30_linear_0_1" x1="836.251" y1="1533.89" x2="826.847" y2="1652.59" gradientUnits="userSpaceOnUse">
<stop offset="0.302885" stop-color="#309D40" />
<stop offset="1" stop-color="#184F20" />
</linearGradient>
<linearGradient id="paint31_linear_0_1" x1="819.866" y1="1532.59" x2="810.463" y2="1651.29" gradientUnits="userSpaceOnUse">
<stop stop-color="#3DB44F" />
<stop offset="1" stop-color="#266830" />
</linearGradient>
<linearGradient id="paint32_linear_0_1" x1="1005.75" y1="1580.7" x2="950.698" y2="1666.69" gradientUnits="userSpaceOnUse">
<stop offset="0.302885" stop-color="#309D40" />
<stop offset="1" stop-color="#184F20" />
</linearGradient>
<linearGradient id="paint33_linear_0_1" x1="1013.11" y1="1585.41" x2="958.058" y2="1671.41" gradientUnits="userSpaceOnUse">
<stop stop-color="#3DB44F" />
<stop offset="1" stop-color="#266830" />
</linearGradient>
<linearGradient id="paint34_linear_0_1" x1="892.413" y1="1577.8" x2="939.57" y2="1644.2" gradientUnits="userSpaceOnUse">
<stop offset="0.302885" stop-color="#309D40" />
<stop offset="1" stop-color="#184F20" />
</linearGradient>
<linearGradient id="paint35_linear_0_1" x1="883.348" y1="1584.24" x2="930.506" y2="1650.64" gradientUnits="userSpaceOnUse">
<stop stop-color="#3DB44F" />
<stop offset="1" stop-color="#266830" />
</linearGradient>
</defs>
</svg>