<svg xmlns="http://www.w3.org/2000/svg" width="76" height="76" fill="none" viewBox="0 0 76 76"><g stroke="#ffa200" filter="url(#a)"><path fill="#ffcd4e" stroke-width="6" d="M35 3c17.673 0 32 14.327 32 32S52.673 67 35 67 3 52.673 3 35 17.327 3 35 3Z"/><path fill="#ffd49f" stroke-width="2" d="M34.9 13.366c.563 0 1.139.156 1.597.514.477.374.782.939.782 1.606v1.21c4.519.624 7.862 3.346 9.103 7.126l.12.394.011.038.008.039c.04.197.106.511.106.843 0 .687-.25 1.28-.683 1.731-.415.433-.953.69-1.484.83l-.045.01-.045.009c-.22.037-.536.1-.898.1-.528 0-1.098-.117-1.597-.444-.514-.336-.881-.85-1.048-1.506v.001c-.306-1.146-.823-2.047-1.55-2.692-.514-.456-1.168-.815-1.998-1.032v9.432c2.756.641 5.262 1.46 7.123 2.918 2.117 1.66 3.302 4.058 3.302 7.571 0 3.455-1.354 6.09-3.51 7.865-1.892 1.556-4.344 2.404-6.915 2.637v1.99c0 1.474-1.359 2.12-2.379 2.12-.563 0-1.138-.155-1.596-.513a2.01 2.01 0 0 1-.782-1.606v-1.994c-2.692-.249-4.929-1.117-6.656-2.496-1.932-1.541-3.163-3.668-3.702-6.106l.002-.001c-.071-.3-.069-.583-.069-.733 0-.773.283-1.435.766-1.927.46-.469 1.056-.738 1.652-.857.302-.072.587-.068.737-.068.624 0 1.25.165 1.775.55.53.389.892.957 1.05 1.641l.143.552c.356 1.234.85 2.108 1.547 2.73.627.56 1.495.981 2.755 1.224V36.54c-2.814-.643-5.154-1.611-6.837-3.107-1.886-1.677-2.855-3.933-2.855-6.833 0-3.154 1.246-5.61 3.246-7.3 1.75-1.478 4.026-2.33 6.446-2.616v-1.197c0-.642.274-1.212.758-1.6.462-.369 1.045-.52 1.62-.52Zm2.379 33.737c1.432-.238 2.478-.727 3.191-1.392.86-.801 1.357-1.968 1.357-3.604 0-1.866-.588-2.798-1.452-3.42-.757-.543-1.782-.896-3.096-1.243zm-4.757-25.005c-1.16.234-2.057.702-2.69 1.302-.808.766-1.254 1.802-1.254 3.028 0 1.256.288 2.1.946 2.75.566.56 1.49 1.06 2.998 1.464z"/></g><defs><filter id="a" width="76" height="76" x="0" y="0" color-interpolation-filters="sRGB" filterUnits="userSpaceOnUse"><feFlood flood-opacity="0" result="BackgroundImageFix"/><feColorMatrix in="SourceAlpha" result="hardAlpha" values="0 0 0 0 0 0 0 0 0 0 0 0 0 0 0 0 0 0 127 0"/><feOffset dx="6" dy="6"/><feComposite in2="hardAlpha" operator="out"/><feColorMatrix values="0 0 0 0 0 0 0 0 0 0 0 0 0 0 0 0 0 0 0.25 0"/><feBlend in2="BackgroundImageFix" result="effect1_dropShadow_4938_210"/><feBlend in="SourceGraphic" in2="effect1_dropShadow_4938_210" result="shape"/></filter></defs></svg>