<svg width="180" height="155" viewBox="0 0 180 155" fill="none" xmlns="http://www.w3.org/2000/svg">
<path d="M63.5725 18.4292C74.4045 3.85695 105.502 3.85695 116.334 18.4292M12.1589 138.959C1.67579 132.102 12.1589 107.69 12.1589 107.69M167.932 138.959C178.209 131.818 167.932 107.69 167.932 107.69M110.034 125.025L109.926 102.55H89.7362H69.5468L69.6553 125.025M69.7639 70.7277H109.926M36.766 147.5H69.7639H89.9533H110.143H143.141C143.141 147.5 143.437 144.27 143.733 138.959C144.247 129.761 144.76 114.323 143.733 98.621C142.482 79.4884 138.944 59.9654 130.332 50.867C123.893 44.0636 123.443 43.3901 111.88 37.5844C104.541 33.9001 95.8583 33.4946 89.7362 33.4946C83.6141 33.4946 75.3655 33.9001 68.0271 37.5844C56.4637 43.3901 56.0139 44.0636 49.5744 50.867C40.9626 59.9654 37.4244 79.4884 36.1732 98.621C35.1464 114.323 35.6598 129.761 36.1732 138.959C36.4696 144.27 36.766 147.5 36.766 147.5Z" stroke="white" stroke-width="15" stroke-linecap="round" stroke-linejoin="round"/>
</svg>
