<svg width="140" height="140" viewBox="0 0 140 140" fill="none" xmlns="http://www.w3.org/2000/svg">
<path d="M128.333 71.1894V80.0625C128.333 102.817 128.333 114.195 121.499 121.264C114.665 128.333 103.665 128.333 81.6666 128.333H58.3333C36.3344 128.333 25.335 128.333 18.5008 121.264C11.6666 114.195 11.6666 102.817 11.6666 80.0625V71.1894C11.6666 57.8403 11.6666 51.1658 14.6953 45.6326C17.724 40.0995 23.2572 36.6654 34.3235 29.7974L45.9901 22.5567C57.6881 15.2967 63.5372 11.6666 70 11.6666C76.4627 11.6666 82.3118 15.2967 94.01 22.5567L105.677 29.7973C116.743 36.6654 122.276 40.0995 125.305 45.6326" stroke="white" stroke-width="15" stroke-linecap="round"/>
<path d="M88 100H53" stroke="white" stroke-width="15" stroke-linecap="round"/>
</svg>
