<svg width="84" height="76" viewBox="0 0 84 76" fill="none" xmlns="http://www.w3.org/2000/svg">
<path d="M54.4779 23.9131L23.5221 23.9131L38.9454 70L54.4779 23.9131Z" fill="#D0FFF7"/>
<path d="M78 23.9131L54.4779 23.9131L38.9454 70L78 23.9131Z" fill="#54C0CC"/>
<path d="M23.5221 23.9131L-3.60035e-06 23.9131L38.9454 70L23.5221 23.9131Z" fill="#54C0CC"/>
<path d="M54.4779 23.9131L38.9453 4.21513e-06L23.5221 23.9131L54.4779 23.9131Z" fill="#E7FFFB"/>
<path d="M38.9453 4.21513e-06L54.4779 23.9131L64.934 6.48713e-06L38.9453 4.21513e-06Z" fill="#B5FFF2"/>
<path d="M23.5221 23.9131L38.9453 4.21513e-06L13.066 1.95268e-06L23.5221 23.9131Z" fill="#B5FFF2"/>
<path d="M64.934 6.48713e-06L54.4779 23.9131L78 23.9131L64.934 6.48713e-06Z" fill="#51A5AE"/>
<path d="M23.5221 23.9131L13.066 1.95268e-06L-3.60035e-06 23.9131L23.5221 23.9131Z" fill="#51A5AE"/>
</svg>
