<svg width="56" height="76" viewBox="0 0 56 76" fill="none" xmlns="http://www.w3.org/2000/svg">
<path d="M24.8583 0.388889C24.8013 0.449984 1.99969 24.9142 0.0973857 45.1111C-1.8073 65.3333 24.8583 70 24.8583 70V0.388889Z" fill="#F8D28C"/>
<path d="M40.2068 45.1111C40.2068 30.7222 24.8582 0 24.8582 0C24.8582 0 47.9751 24.6369 49.9015 44.9721C51.8279 65.3073 24.8583 70 24.8583 70C24.8583 70 40.2068 59.5 40.2068 45.1111Z" fill="#C29B65"/>
<path fill-rule="evenodd" clip-rule="evenodd" d="M24.8583 70V0.388889L24.8582 0C24.8582 0 40.2068 30.7222 40.2068 45.1111C40.2068 59.5 24.8583 70 24.8583 70Z" fill="#DCB175"/>
<path fill-rule="evenodd" clip-rule="evenodd" d="M24.8583 70V0.388889L24.8582 0C24.8582 0 9.65127 30.7222 9.65127 45.1111C9.65127 59.5 24.8583 70 24.8583 70Z" fill="#FFE3C0"/>
</svg>
