<svg width="251" height="385" viewBox="0 0 251 385" fill="none" xmlns="http://www.w3.org/2000/svg">
<g filter="url(#filter0_d_5242_430)">
<rect x="245" y="36" width="14" height="36" transform="rotate(-180 245 36)" fill="#7c86a9"/>
<rect x="245" y="36" width="14" height="36" transform="rotate(-180 245 36)" fill="#7c86a9"/>
<rect x="231" y="36" width="14" height="36" transform="rotate(-180 231 36)" fill="#7c86a9"/>
<rect x="231" y="36" width="14" height="36" transform="rotate(-180 231 36)" fill="#9fa0ff"/>
<rect x="217" y="36" width="12" height="36" transform="rotate(-180 217 36)" fill="#7c86a9"/>
<rect x="217" y="36" width="12" height="36" transform="rotate(-180 217 36)" fill="#7c86a9"/>
<rect x="205" y="36" width="14" height="36" transform="rotate(-180 205 36)" fill="#7c86a9"/>
<rect x="205" y="36" width="14" height="36" transform="rotate(-180 205 36)" fill="#9fa0ff"/>
<rect x="191" y="36" width="14" height="36" transform="rotate(-180 191 36)" fill="#7c86a9"/>
<rect x="191" y="36" width="14" height="36" transform="rotate(-180 191 36)" fill="#7c86a9"/>
<rect x="177" y="36" width="14" height="36" transform="rotate(-180 177 36)" fill="#7c86a9"/>
<rect x="177" y="36" width="14" height="36" transform="rotate(-180 177 36)" fill="#9fa0ff"/>
<rect x="163" y="36" width="14" height="36" transform="rotate(-180 163 36)" fill="#7c86a9"/>
<rect x="163" y="36" width="14" height="36" transform="rotate(-180 163 36)" fill="#7c86a9"/>
<rect x="136" y="36" width="13" height="36" transform="rotate(-180 136 36)" fill="#7c86a9"/>
<rect x="136" y="36" width="13" height="36" transform="rotate(-180 136 36)" fill="#7c86a9"/>
<rect x="149" y="36" width="13" height="36" transform="rotate(-180 149 36)" fill="#7c86a9"/>
<rect x="149" y="36" width="13" height="36" transform="rotate(-180 149 36)" fill="#9fa0ff"/>
<rect x="123" y="36" width="14" height="36" transform="rotate(-180 123 36)" fill="#7c86a9"/>
<rect x="123" y="36" width="14" height="36" transform="rotate(-180 123 36)" fill="#9fa0ff"/>
<rect x="109" y="36" width="14" height="36" transform="rotate(-180 109 36)" fill="#7c86a9"/>
<rect x="109" y="36" width="14" height="36" transform="rotate(-180 109 36)" fill="#7c86a9"/>
<rect x="95" y="36" width="14" height="36" transform="rotate(-180 95 36)" fill="#7c86a9"/>
<rect x="95" y="36" width="14" height="36" transform="rotate(-180 95 36)" fill="#9fa0ff"/>
<rect x="81" y="36" width="13" height="36" transform="rotate(-180 81 36)" fill="#7c86a9"/>
<rect x="81" y="36" width="13" height="36" transform="rotate(-180 81 36)" fill="#7c86a9"/>
<rect x="68" y="36" width="13" height="36" transform="rotate(-180 68 36)" fill="#7c86a9"/>
<rect x="68" y="36" width="13" height="36" transform="rotate(-180 68 36)" fill="#9fa0ff"/>
<rect x="55" y="36" width="13" height="36" transform="rotate(-180 55 36)" fill="#7c86a9"/>
<rect x="55" y="36" width="13" height="36" transform="rotate(-180 55 36)" fill="#7c86a9"/>
<rect x="27" y="36" width="14" height="36" transform="rotate(-180 27 36)" fill="#7c86a9"/>
<rect x="27" y="36" width="14" height="36" transform="rotate(-180 27 36)" fill="#7c86a9"/>
<rect x="42" y="36" width="15" height="36" transform="rotate(-180 42 36)" fill="#7c86a9"/>
<rect x="42" y="36" width="15" height="36" transform="rotate(-180 42 36)" fill="#9fa0ff"/>
<rect x="14" y="36" width="14" height="36" transform="rotate(-180 14 36)" fill="#7c86a9"/>
<rect x="14" y="36" width="14" height="36" transform="rotate(-180 14 36)" fill="#9fa0ff"/>
<rect x="245" y="379" width="14" height="36" transform="rotate(-180 245 379)" fill="#7c86a9"/>
<rect x="245" y="379" width="14" height="36" transform="rotate(-180 245 379)" fill="#7c86a9"/>
<rect x="231" y="379" width="14" height="36" transform="rotate(-180 231 379)" fill="#7c86a9"/>
<rect x="231" y="379" width="14" height="36" transform="rotate(-180 231 379)" fill="#9fa0ff"/>
<rect x="217" y="379" width="12" height="36" transform="rotate(-180 217 379)" fill="#7c86a9"/>
<rect x="217" y="379" width="12" height="36" transform="rotate(-180 217 379)" fill="#7c86a9"/>
<rect x="205" y="379" width="14" height="36" transform="rotate(-180 205 379)" fill="#7c86a9"/>
<rect x="205" y="379" width="14" height="36" transform="rotate(-180 205 379)" fill="#9fa0ff"/>
<rect x="191" y="379" width="14" height="36" transform="rotate(-180 191 379)" fill="#7c86a9"/>
<rect x="191" y="379" width="14" height="36" transform="rotate(-180 191 379)" fill="#7c86a9"/>
<rect x="177" y="379" width="14" height="36" transform="rotate(-180 177 379)" fill="#7c86a9"/>
<rect x="177" y="379" width="14" height="36" transform="rotate(-180 177 379)" fill="#9fa0ff"/>
<rect x="163" y="379" width="14" height="36" transform="rotate(-180 163 379)" fill="#7c86a9"/>
<rect x="163" y="379" width="14" height="36" transform="rotate(-180 163 379)" fill="#7c86a9"/>
<rect x="136" y="379" width="13" height="36" transform="rotate(-180 136 379)" fill="#7c86a9"/>
<rect x="136" y="379" width="13" height="36" transform="rotate(-180 136 379)" fill="#7c86a9"/>
<rect x="149" y="379" width="13" height="36" transform="rotate(-180 149 379)" fill="#7c86a9"/>
<rect x="149" y="379" width="13" height="36" transform="rotate(-180 149 379)" fill="#9fa0ff"/>
<rect x="123" y="379" width="14" height="36" transform="rotate(-180 123 379)" fill="#7c86a9"/>
<rect x="123" y="379" width="14" height="36" transform="rotate(-180 123 379)" fill="#9fa0ff"/>
<rect x="109" y="379" width="14" height="36" transform="rotate(-180 109 379)" fill="#7c86a9"/>
<rect x="109" y="379" width="14" height="36" transform="rotate(-180 109 379)" fill="#7c86a9"/>
<rect x="95" y="379" width="14" height="36" transform="rotate(-180 95 379)" fill="#7c86a9"/>
<rect x="95" y="379" width="14" height="36" transform="rotate(-180 95 379)" fill="#9fa0ff"/>
<rect x="81" y="379" width="13" height="36" transform="rotate(-180 81 379)" fill="#7c86a9"/>
<rect x="81" y="379" width="13" height="36" transform="rotate(-180 81 379)" fill="#7c86a9"/>
<rect x="68" y="379" width="13" height="36" transform="rotate(-180 68 379)" fill="#7c86a9"/>
<rect x="68" y="379" width="13" height="36" transform="rotate(-180 68 379)" fill="#9fa0ff"/>
<rect x="55" y="379" width="13" height="36" transform="rotate(-180 55 379)" fill="#7c86a9"/>
<rect x="55" y="379" width="13" height="36" transform="rotate(-180 55 379)" fill="#7c86a9"/>
<rect x="27" y="379" width="14" height="36" transform="rotate(-180 27 379)" fill="#7c86a9"/>
<rect x="27" y="379" width="14" height="36" transform="rotate(-180 27 379)" fill="#7c86a9"/>
<rect x="42" y="379" width="15" height="36" transform="rotate(-180 42 379)" fill="#7c86a9"/>
<rect x="42" y="379" width="15" height="36" transform="rotate(-180 42 379)" fill="#9fa0ff"/>
<rect x="14" y="379" width="14" height="36" transform="rotate(-180 14 379)" fill="#7c86a9"/>
<rect x="14" y="379" width="14" height="36" transform="rotate(-180 14 379)" fill="#9fa0ff"/>
<path d="M245 49.3713C220.062 159.721 222.889 220.982 245 329.629V343V36V49.3713Z" fill="#7e85d3"/>
<path d="M0 329.629C24.0702 218.534 25.4383 157.079 0 49.3713V36V343V329.629Z" fill="#7e85d3"/>
<path d="M0 49.3713H245V36L0 36V49.3713Z" fill="#8b93ec"/>
<path d="M245 49.3713H0C25.4383 157.079 24.0702 218.534 0 329.629C0 329.629 159.781 329.629 245 329.629C222.889 220.982 220.062 159.721 245 49.3713Z" fill="#929ef9"/>
<path d="M245 329.629H0V343H245V329.629Z" fill="#8b93ec"/>
<circle cx="122.5" cy="161.5" r="58" fill="#d7bc44" stroke="#6B802A" stroke-width="3"/>
<g filter="url(#filter1_d_5242_430)">
<path d="M121.858 123.389C121.801 123.45 98.9997 147.914 97.0974 168.111C95.1927 188.333 121.858 193 121.858 193V123.389Z" fill="#8cc1f8"/>
<path d="M137.207 168.111C137.207 153.722 121.858 123 121.858 123C121.858 123 144.975 147.637 146.902 167.972C148.828 188.307 121.858 193 121.858 193C121.858 193 137.207 182.5 137.207 168.111Z" fill="#7c86a9"/>
<path fill-rule="evenodd" clip-rule="evenodd" d="M121.858 193V123.389L121.858 123C121.858 123 137.207 153.722 137.207 168.111C137.207 182.5 121.858 193 121.858 193Z" fill="#75a0dc"/>
<path fill-rule="evenodd" clip-rule="evenodd" d="M121.858 193V123.389L121.858 123C121.858 123 106.651 153.722 106.651 168.111C106.651 182.5 121.858 193 121.858 193Z" fill="#c0d8ff"/>
</g>
<g filter="url(#filter2_d_5242_430)">
<mask id="path-40-outside-1_5242_430" maskUnits="userSpaceOnUse" x="35" y="251" width="176" height="59" fill="black">
<rect fill="white" x="35" y="251" width="176" height="59"/>
<path d="M55.712 276.264L60.448 277.224C70.432 279.336 75.872 282.728 75.872 292.008C75.872 300.264 69.536 306.472 58.08 306.472C43.488 306.472 40.48 298.92 38.944 293.736C38.88 293.416 38.816 293.16 38.816 292.904C38.816 291.496 39.904 290.536 41.248 290.216C41.632 290.152 41.952 290.088 42.336 290.088C43.552 290.088 44.768 290.664 45.152 292.008C46.304 296.296 48.416 301.096 57.76 301.096C65.056 301.096 69.6 297.576 69.6 292.072C69.6 286.824 66.72 284.52 59.168 282.984L54.048 281.896C44.448 279.912 40.096 276.264 40.096 267.88C40.096 261.16 45.088 254.632 57.12 254.632C68.64 254.632 72.608 260.776 74.016 265.384C74.144 265.704 74.208 266.024 74.208 266.344C74.208 267.688 73.12 268.648 71.84 268.904C71.52 268.968 71.136 269.032 70.752 269.032C69.6 269.032 68.448 268.52 67.936 267.176C66.912 263.528 64.224 259.944 57.12 259.944C49.696 259.944 46.304 263.656 46.304 267.88C46.304 272.488 48.544 274.856 55.712 276.264ZM90.4575 282.088V297.832C90.4575 299.304 91.4175 299.88 92.8255 299.88H115.738C117.402 299.88 118.298 301.032 118.298 302.632C118.298 304.168 117.402 305.448 115.738 305.448H90.9695C86.4255 305.448 84.4415 303.464 84.4415 298.6V262.504C84.4415 257.576 86.4255 255.592 90.9695 255.592H115.162C116.826 255.592 117.722 256.744 117.722 258.344C117.722 259.944 116.826 261.16 115.162 261.16H92.6335C91.0975 261.16 90.4575 261.864 90.4575 263.4V276.648H112.282C113.882 276.648 114.778 277.8 114.778 279.4C114.778 280.872 113.818 282.088 112.282 282.088H90.4575ZM131.895 282.088V297.832C131.895 299.304 132.855 299.88 134.263 299.88H157.175C158.839 299.88 159.735 301.032 159.735 302.632C159.735 304.168 158.839 305.448 157.175 305.448H132.407C127.863 305.448 125.879 303.464 125.879 298.6V262.504C125.879 257.576 127.863 255.592 132.407 255.592H156.599C158.263 255.592 159.159 256.744 159.159 258.344C159.159 259.944 158.263 261.16 156.599 261.16H134.071C132.535 261.16 131.895 261.864 131.895 263.4V276.648H153.719C155.319 276.648 156.215 277.8 156.215 279.4C156.215 280.872 155.255 282.088 153.719 282.088H131.895ZM167.317 298.6V262.504C167.317 257.576 169.301 255.592 173.845 255.592H185.237C199.381 255.592 207.701 264.552 207.701 279.976C207.701 295.912 199.253 305.448 185.237 305.448H173.845C169.301 305.448 167.317 303.464 167.317 298.6ZM173.397 263.208V297.704C173.397 299.176 174.165 299.88 175.445 299.88H184.917C195.285 299.88 201.365 292.52 201.365 280.04C201.365 267.816 195.669 261.096 185.109 261.096H175.509C174.293 261.096 173.397 261.864 173.397 263.208Z" fill="#000000"/>
</mask>
<path d="M55.712 276.264L60.448 277.224C70.432 279.336 75.872 282.728 75.872 292.008C75.872 300.264 69.536 306.472 58.08 306.472C43.488 306.472 40.48 298.92 38.944 293.736C38.88 293.416 38.816 293.16 38.816 292.904C38.816 291.496 39.904 290.536 41.248 290.216C41.632 290.152 41.952 290.088 42.336 290.088C43.552 290.088 44.768 290.664 45.152 292.008C46.304 296.296 48.416 301.096 57.76 301.096C65.056 301.096 69.6 297.576 69.6 292.072C69.6 286.824 66.72 284.52 59.168 282.984L54.048 281.896C44.448 279.912 40.096 276.264 40.096 267.88C40.096 261.16 45.088 254.632 57.12 254.632C68.64 254.632 72.608 260.776 74.016 265.384C74.144 265.704 74.208 266.024 74.208 266.344C74.208 267.688 73.12 268.648 71.84 268.904C71.52 268.968 71.136 269.032 70.752 269.032C69.6 269.032 68.448 268.52 67.936 267.176C66.912 263.528 64.224 259.944 57.12 259.944C49.696 259.944 46.304 263.656 46.304 267.88C46.304 272.488 48.544 274.856 55.712 276.264ZM90.4575 282.088V297.832C90.4575 299.304 91.4175 299.88 92.8255 299.88H115.738C117.402 299.88 118.298 301.032 118.298 302.632C118.298 304.168 117.402 305.448 115.738 305.448H90.9695C86.4255 305.448 84.4415 303.464 84.4415 298.6V262.504C84.4415 257.576 86.4255 255.592 90.9695 255.592H115.162C116.826 255.592 117.722 256.744 117.722 258.344C117.722 259.944 116.826 261.16 115.162 261.16H92.6335C91.0975 261.16 90.4575 261.864 90.4575 263.4V276.648H112.282C113.882 276.648 114.778 277.8 114.778 279.4C114.778 280.872 113.818 282.088 112.282 282.088H90.4575ZM131.895 282.088V297.832C131.895 299.304 132.855 299.88 134.263 299.88H157.175C158.839 299.88 159.735 301.032 159.735 302.632C159.735 304.168 158.839 305.448 157.175 305.448H132.407C127.863 305.448 125.879 303.464 125.879 298.6V262.504C125.879 257.576 127.863 255.592 132.407 255.592H156.599C158.263 255.592 159.159 256.744 159.159 258.344C159.159 259.944 158.263 261.16 156.599 261.16H134.071C132.535 261.16 131.895 261.864 131.895 263.4V276.648H153.719C155.319 276.648 156.215 277.8 156.215 279.4C156.215 280.872 155.255 282.088 153.719 282.088H131.895ZM167.317 298.6V262.504C167.317 257.576 169.301 255.592 173.845 255.592H185.237C199.381 255.592 207.701 264.552 207.701 279.976C207.701 295.912 199.253 305.448 185.237 305.448H173.845C169.301 305.448 167.317 303.464 167.317 298.6ZM173.397 263.208V297.704C173.397 299.176 174.165 299.88 175.445 299.88H184.917C195.285 299.88 201.365 292.52 201.365 280.04C201.365 267.816 195.669 261.096 185.109 261.096H175.509C174.293 261.096 173.397 261.864 173.397 263.208Z" fill="white"/>
<path d="M55.712 276.264L56.308 273.324L56.2991 273.322L56.2902 273.32L55.712 276.264ZM60.448 277.224L61.0689 274.289L61.0564 274.286L61.044 274.284L60.448 277.224ZM38.944 293.736L36.0023 294.324L36.0289 294.458L36.0676 294.588L38.944 293.736ZM41.248 290.216L40.7548 287.257L40.6533 287.274L40.5531 287.298L41.248 290.216ZM45.152 292.008L48.0493 291.23L48.0431 291.207L48.0366 291.184L45.152 292.008ZM59.168 282.984L58.5444 285.918L58.5572 285.921L58.5701 285.924L59.168 282.984ZM54.048 281.896L54.6716 278.962L54.6634 278.96L54.6552 278.958L54.048 281.896ZM74.016 265.384L71.1469 266.261L71.1838 266.381L71.2306 266.498L74.016 265.384ZM71.84 268.904L72.4283 271.846H72.4283L71.84 268.904ZM67.936 267.176L65.0476 267.987L65.0843 268.117L65.1325 268.244L67.936 267.176ZM55.712 276.264L55.116 279.204L59.852 280.164L60.448 277.224L61.044 274.284L56.308 273.324L55.712 276.264ZM60.448 277.224L59.8271 280.159C64.7165 281.193 67.931 282.446 69.9334 284.19C71.7466 285.77 72.872 288.029 72.872 292.008H75.872H78.872C78.872 286.707 77.2774 282.63 73.8746 279.666C70.661 276.866 66.1635 275.367 61.0689 274.289L60.448 277.224ZM75.872 292.008H72.872C72.872 295.322 71.6255 298.083 69.3201 300.058C66.9769 302.065 63.2827 303.472 58.08 303.472V306.472V309.472C64.3333 309.472 69.5352 307.775 73.2239 304.614C76.9505 301.421 78.872 296.95 78.872 292.008H75.872ZM58.08 306.472V303.472C51.3159 303.472 47.7151 301.735 45.6426 299.836C43.508 297.88 42.5581 295.374 41.8204 292.884L38.944 293.736L36.0676 294.588C36.8659 297.282 38.188 301.144 41.5894 304.26C45.0529 307.433 50.2521 309.472 58.08 309.472V306.472ZM38.944 293.736L41.8857 293.148C41.8678 293.058 41.8467 292.957 41.8356 292.903C41.8219 292.836 41.8148 292.8 41.8104 292.775C41.8012 292.723 41.816 292.786 41.816 292.904H38.816H35.816C35.816 293.546 35.9823 294.225 36.0023 294.324L38.944 293.736ZM38.816 292.904H41.816C41.816 292.947 41.8061 293.018 41.7731 293.096C41.7416 293.171 41.7043 293.217 41.6869 293.235C41.6716 293.251 41.6791 293.238 41.7255 293.213C41.7718 293.188 41.8445 293.158 41.9429 293.134L41.248 290.216L40.5531 287.298C38.3787 287.815 35.816 289.635 35.816 292.904H38.816ZM41.248 290.216L41.7412 293.175C41.7952 293.166 41.8472 293.157 41.8928 293.15C41.9402 293.141 41.9803 293.135 42.0192 293.128C42.0969 293.115 42.1518 293.107 42.1973 293.1C42.281 293.089 42.3162 293.088 42.336 293.088V290.088V287.088C41.6423 287.088 41.0252 287.212 40.7548 287.257L41.248 290.216ZM42.336 290.088V293.088C42.406 293.088 42.4572 293.097 42.4863 293.104C42.5149 293.111 42.5079 293.114 42.4769 293.095C42.4429 293.074 42.3918 293.033 42.3435 292.971C42.2936 292.906 42.2728 292.851 42.2674 292.832L45.152 292.008L48.0366 291.184C47.1659 288.137 44.4034 287.088 42.336 287.088V290.088ZM45.152 292.008L42.2547 292.786C42.8618 295.046 43.8515 298.008 46.3252 300.342C48.8749 302.748 52.5623 304.096 57.76 304.096V301.096V298.096C53.6137 298.096 51.5731 297.044 50.4428 295.978C49.2365 294.84 48.5942 293.258 48.0493 291.23L45.152 292.008ZM57.76 301.096V304.096C61.8518 304.096 65.5196 303.113 68.2397 301.03C71.0425 298.884 72.6 295.741 72.6 292.072H69.6H66.6C66.6 293.907 65.8855 295.276 64.5923 296.266C63.2164 297.319 60.9642 298.096 57.76 298.096V301.096ZM69.6 292.072H72.6C72.6 288.822 71.666 285.996 69.1666 283.857C66.8903 281.909 63.6363 280.831 59.7659 280.044L59.168 282.984L58.5701 285.924C62.2517 286.673 64.2137 287.515 65.2654 288.415C66.094 289.124 66.6 290.074 66.6 292.072H69.6ZM59.168 282.984L59.7916 280.05L54.6716 278.962L54.048 281.896L53.4244 284.83L58.5444 285.918L59.168 282.984ZM54.048 281.896L54.6552 278.958C50.0323 278.003 47.2252 276.741 45.5552 275.129C44.0178 273.646 43.096 271.519 43.096 267.88H40.096H37.096C37.096 272.625 38.3502 276.514 41.3888 279.447C44.2948 282.251 48.4637 283.805 53.4408 284.834L54.048 281.896ZM40.096 267.88H43.096C43.096 265.279 44.0481 262.812 46.1007 260.968C48.166 259.113 51.6381 257.632 57.12 257.632V254.632V251.632C50.5699 251.632 45.53 253.415 42.0913 256.504C38.6399 259.604 37.096 263.761 37.096 267.88H40.096ZM57.12 254.632V257.632C62.321 257.632 65.49 259.006 67.472 260.611C69.4838 262.241 70.5606 264.342 71.1469 266.261L74.016 265.384L76.8851 264.507C76.0634 261.818 74.4522 258.543 71.248 255.949C68.014 253.33 63.439 251.632 57.12 251.632V254.632ZM74.016 265.384L71.2306 266.498C71.2303 266.498 71.2241 266.482 71.2183 266.452C71.2123 266.422 71.208 266.385 71.208 266.344H74.208H77.208C77.208 265.614 77.0602 264.917 76.8014 264.27L74.016 265.384ZM74.208 266.344H71.208C71.208 266.267 71.2253 266.175 71.2631 266.087C71.2991 266.004 71.341 265.953 71.3633 265.93C71.3841 265.909 71.3877 265.912 71.3633 265.925C71.3391 265.937 71.3006 265.952 71.2517 265.962L71.84 268.904L72.4283 271.846C74.6324 271.405 77.208 269.555 77.208 266.344H74.208ZM71.84 268.904L71.2517 265.962C71.1268 265.987 71.0234 266.005 70.932 266.017C70.8397 266.029 70.7817 266.032 70.752 266.032V269.032V272.032C71.4387 272.032 72.0559 271.92 72.4283 271.846L71.84 268.904ZM70.752 269.032V266.032C70.6841 266.032 70.6405 266.024 70.6207 266.019C70.6022 266.015 70.6129 266.015 70.6414 266.032C70.6555 266.04 70.6718 266.052 70.6887 266.066C70.7057 266.08 70.7204 266.095 70.7323 266.11C70.7441 266.124 70.7502 266.134 70.7516 266.136C70.753 266.138 70.748 266.13 70.7395 266.108L67.936 267.176L65.1325 268.244C66.1953 271.034 68.6875 272.032 70.752 272.032V269.032ZM67.936 267.176L70.8244 266.365C70.1992 264.138 69.0014 261.707 66.6834 259.85C64.3477 257.98 61.1892 256.944 57.12 256.944V259.944V262.944C60.1548 262.944 61.8923 263.7 62.9326 264.534C63.9906 265.381 64.6488 266.566 65.0476 267.987L67.936 267.176ZM57.12 259.944V256.944C52.9332 256.944 49.4861 257.991 47.026 260.008C44.5201 262.062 43.304 264.915 43.304 267.88H46.304H49.304C49.304 266.621 49.7839 265.506 50.83 264.648C51.9219 263.753 53.8828 262.944 57.12 262.944V259.944ZM46.304 267.88H43.304C43.304 270.71 44.0176 273.383 46.2852 275.476C48.371 277.402 51.4077 278.476 55.1338 279.208L55.712 276.264L56.2902 273.32C52.8483 272.644 51.181 271.83 50.3548 271.068C49.7105 270.473 49.304 269.658 49.304 267.88H46.304ZM90.4575 282.088V279.088H87.4575V282.088H90.4575ZM90.4575 276.648H87.4575V279.648H90.4575V276.648ZM90.4575 282.088H87.4575V297.832H90.4575H93.4575V282.088H90.4575ZM90.4575 297.832H87.4575C87.4575 299.272 87.965 300.746 89.256 301.764C90.4171 302.679 91.7867 302.88 92.8255 302.88V299.88V296.88C92.6691 296.88 92.6149 296.863 92.6364 296.869C92.6623 296.876 92.7995 296.917 92.971 297.052C93.156 297.198 93.3011 297.391 93.3864 297.59C93.4648 297.773 93.4575 297.877 93.4575 297.832H90.4575ZM92.8255 299.88V302.88H115.738V299.88V296.88H92.8255V299.88ZM115.738 299.88V302.88C115.806 302.88 115.774 302.891 115.682 302.853C115.585 302.812 115.48 302.74 115.395 302.645C115.226 302.453 115.298 302.369 115.298 302.632H118.298H121.298C121.298 301.295 120.921 299.835 119.888 298.667C118.81 297.45 117.307 296.88 115.738 296.88V299.88ZM118.298 302.632H115.298C115.298 302.844 115.235 302.816 115.349 302.681C115.41 302.609 115.499 302.538 115.602 302.491C115.704 302.445 115.763 302.448 115.738 302.448V305.448V308.448C117.41 308.448 118.905 307.771 119.934 306.551C120.912 305.392 121.298 303.956 121.298 302.632H118.298ZM115.738 305.448V302.448H90.9695V305.448V308.448H115.738V305.448ZM90.9695 305.448V302.448C89.057 302.448 88.4074 302.021 88.1616 301.766C87.8897 301.484 87.4415 300.719 87.4415 298.6H84.4415H81.4415C81.4415 301.345 81.9853 304.004 83.8414 305.93C85.7236 307.883 88.338 308.448 90.9695 308.448V305.448ZM84.4415 298.6H87.4415V262.504H84.4415H81.4415V298.6H84.4415ZM84.4415 262.504H87.4415C87.4415 260.344 87.8935 259.562 88.1691 259.274C88.4134 259.019 89.0569 258.592 90.9695 258.592V255.592V252.592C88.3381 252.592 85.7176 253.157 83.8339 255.126C81.9815 257.062 81.4415 259.736 81.4415 262.504H84.4415ZM90.9695 255.592V258.592H115.161V255.592V252.592H90.9695V255.592ZM115.161 255.592V258.592C115.23 258.592 115.198 258.603 115.106 258.565C115.009 258.524 114.904 258.452 114.819 258.357C114.65 258.165 114.721 258.081 114.721 258.344H117.721H120.721C120.721 257.007 120.345 255.547 119.312 254.379C118.234 253.162 116.731 252.592 115.161 252.592V255.592ZM117.721 258.344H114.721C114.721 258.61 114.647 258.563 114.788 258.4C114.861 258.314 114.959 258.241 115.062 258.196C115.162 258.153 115.208 258.16 115.161 258.16V261.16V264.16C116.784 264.16 118.288 263.536 119.343 262.304C120.348 261.133 120.721 259.678 120.721 258.344H117.721ZM115.161 261.16V258.16H92.6335V261.16V264.16H115.161V261.16ZM92.6335 261.16V258.16C91.4715 258.16 89.958 258.421 88.8016 259.63C87.6731 260.81 87.4575 262.301 87.4575 263.4H90.4575H93.4575C93.4575 263.21 93.479 263.183 93.4567 263.258C93.429 263.351 93.3444 263.561 93.1374 263.778C92.685 264.251 92.2595 264.16 92.6335 264.16V261.16ZM90.4575 263.4H87.4575V276.648H90.4575H93.4575V263.4H90.4575ZM90.4575 276.648V279.648H112.282V276.648V273.648H90.4575V276.648ZM112.282 276.648V279.648C112.319 279.648 112.265 279.654 112.16 279.609C112.052 279.562 111.946 279.485 111.865 279.392C111.705 279.208 111.777 279.137 111.777 279.4H114.777H117.777C117.777 278.063 117.402 276.616 116.394 275.456C115.34 274.244 113.855 273.648 112.282 273.648V276.648ZM114.777 279.4H111.777C111.777 279.496 111.748 279.434 111.859 279.307C111.917 279.243 111.997 279.18 112.094 279.137C112.191 279.093 112.263 279.088 112.282 279.088V282.088V285.088C115.808 285.088 117.777 282.175 117.777 279.4H114.777ZM112.282 282.088V279.088H90.4575V282.088V285.088H112.282V282.088ZM131.895 282.088V279.088H128.895V282.088H131.895ZM131.895 276.648H128.895V279.648H131.895V276.648ZM131.895 282.088H128.895V297.832H131.895H134.895V282.088H131.895ZM131.895 297.832H128.895C128.895 299.272 129.402 300.746 130.694 301.764C131.855 302.679 133.224 302.88 134.263 302.88V299.88V296.88C134.107 296.88 134.052 296.863 134.074 296.869C134.1 296.876 134.237 296.917 134.408 297.052C134.593 297.198 134.739 297.391 134.824 297.59C134.902 297.773 134.895 297.877 134.895 297.832H131.895ZM134.263 299.88V302.88H157.175V299.88V296.88H134.263V299.88ZM157.175 299.88V302.88C157.243 302.88 157.211 302.891 157.119 302.853C157.022 302.812 156.918 302.74 156.833 302.645C156.663 302.453 156.735 302.369 156.735 302.632H159.735H162.735C162.735 301.295 162.359 299.835 161.325 298.667C160.248 297.45 158.744 296.88 157.175 296.88V299.88ZM159.735 302.632H156.735C156.735 302.844 156.672 302.816 156.786 302.681C156.848 302.609 156.936 302.538 157.039 302.491C157.142 302.445 157.2 302.448 157.175 302.448V305.448V308.448C158.847 308.448 160.342 307.771 161.372 306.551C162.35 305.392 162.735 303.956 162.735 302.632H159.735ZM157.175 305.448V302.448H132.407V305.448V308.448H157.175V305.448ZM132.407 305.448V302.448C130.495 302.448 129.845 302.021 129.599 301.766C129.327 301.484 128.879 300.719 128.879 298.6H125.879H122.879C122.879 301.345 123.423 304.004 125.279 305.93C127.161 307.883 129.775 308.448 132.407 308.448V305.448ZM125.879 298.6H128.879V262.504H125.879H122.879V298.6H125.879ZM125.879 262.504H128.879C128.879 260.344 129.331 259.562 129.607 259.274C129.851 259.019 130.494 258.592 132.407 258.592V255.592V252.592C129.776 252.592 127.155 253.157 125.271 255.126C123.419 257.062 122.879 259.736 122.879 262.504H125.879ZM132.407 255.592V258.592H156.599V255.592V252.592H132.407V255.592ZM156.599 255.592V258.592C156.667 258.592 156.635 258.603 156.543 258.565C156.446 258.524 156.342 258.452 156.257 258.357C156.087 258.165 156.159 258.081 156.159 258.344H159.159H162.159C162.159 257.007 161.783 255.547 160.749 254.379C159.672 253.162 158.168 252.592 156.599 252.592V255.592ZM159.159 258.344H156.159C156.159 258.61 156.085 258.563 156.225 258.4C156.298 258.314 156.396 258.241 156.499 258.196C156.599 258.153 156.646 258.16 156.599 258.16V261.16V264.16C158.221 264.16 159.725 263.536 160.781 262.304C161.785 261.133 162.159 259.678 162.159 258.344H159.159ZM156.599 261.16V258.16H134.071V261.16V264.16H156.599V261.16ZM134.071 261.16V258.16C132.909 258.16 131.395 258.421 130.239 259.63C129.111 260.81 128.895 262.301 128.895 263.4H131.895H134.895C134.895 263.21 134.916 263.183 134.894 263.258C134.867 263.351 134.782 263.561 134.575 263.778C134.123 264.251 133.697 264.16 134.071 264.16V261.16ZM131.895 263.4H128.895V276.648H131.895H134.895V263.4H131.895ZM131.895 276.648V279.648H153.719V276.648V273.648H131.895V276.648ZM153.719 276.648V279.648C153.756 279.648 153.703 279.654 153.598 279.609C153.489 279.562 153.384 279.485 153.302 279.392C153.143 279.208 153.215 279.137 153.215 279.4H156.215H159.215C159.215 278.063 158.839 276.616 157.832 275.456C156.778 274.244 155.292 273.648 153.719 273.648V276.648ZM156.215 279.4H153.215C153.215 279.496 153.185 279.434 153.297 279.307C153.354 279.243 153.435 279.18 153.531 279.137C153.629 279.093 153.701 279.088 153.719 279.088V282.088V285.088C157.245 285.088 159.215 282.175 159.215 279.4H156.215ZM153.719 282.088V279.088H131.895V282.088V285.088H153.719V282.088ZM167.316 298.6H170.316V262.504H167.316H164.316V298.6H167.316ZM167.316 262.504H170.316C170.316 260.344 170.769 259.562 171.044 259.274C171.288 259.019 171.932 258.592 173.844 258.592V255.592V252.592C171.213 252.592 168.593 253.157 166.709 255.126C164.856 257.062 164.316 259.736 164.316 262.504H167.316ZM173.844 255.592V258.592H185.236V255.592V252.592H173.844V255.592ZM185.236 255.592V258.592C191.656 258.592 196.402 260.606 199.568 264.035C202.764 267.497 204.701 272.782 204.701 279.976H207.701H210.701C210.701 271.746 208.477 264.839 203.977 259.965C199.447 255.058 192.961 252.592 185.236 252.592V255.592ZM207.701 279.976H204.701C204.701 287.439 202.724 293.023 199.476 296.702C196.269 300.333 191.527 302.448 185.236 302.448V305.448V308.448C192.962 308.448 199.452 305.795 203.973 300.674C208.453 295.601 210.701 288.449 210.701 279.976H207.701ZM185.236 305.448V302.448H173.844V305.448V308.448H185.236V305.448ZM173.844 305.448V302.448C171.932 302.448 171.282 302.021 171.037 301.766C170.765 301.484 170.316 300.719 170.316 298.6H167.316H164.316C164.316 301.345 164.86 304.004 166.716 305.93C168.599 307.883 171.213 308.448 173.844 308.448V305.448ZM173.396 263.208H170.396V297.704H173.396H176.396V263.208H173.396ZM173.396 297.704H170.396C170.396 298.936 170.722 300.344 171.795 301.441C172.878 302.548 174.27 302.88 175.445 302.88V299.88V296.88C175.339 296.88 175.707 296.86 176.086 297.247C176.455 297.624 176.396 297.944 176.396 297.704H173.396ZM175.445 299.88V302.88H184.917V299.88V296.88H175.445V299.88ZM184.917 299.88V302.88C190.866 302.88 195.876 300.734 199.339 296.554C202.738 292.449 204.365 286.727 204.365 280.04H201.365H198.365C198.365 285.833 196.951 290.031 194.718 292.726C192.549 295.346 189.335 296.88 184.917 296.88V299.88ZM201.365 280.04H204.365C204.365 273.512 202.848 267.976 199.476 264.034C196.039 260.015 191.056 258.096 185.109 258.096V261.096V264.096C189.721 264.096 192.866 265.537 194.917 267.934C197.033 270.408 198.365 274.344 198.365 280.04H201.365ZM185.109 261.096V258.096H175.508V261.096V264.096H185.109V261.096ZM175.508 261.096V258.096C174.271 258.096 172.952 258.495 171.922 259.481C170.871 260.488 170.396 261.842 170.396 263.208H173.396H176.396C176.396 263.206 176.396 263.285 176.346 263.412C176.294 263.544 176.204 263.688 176.071 263.815C175.793 264.081 175.53 264.096 175.508 264.096V261.096Z" fill="white" mask="url(#path-40-outside-1_5242_430)"/>
</g>
</g>
<defs fill="#000000">
<filter id="filter0_d_5242_430" x="0" y="0" width="251" height="385" filterUnits="userSpaceOnUse" color-interpolation-filters="sRGB" fill="#000000">
<feFlood flood-opacity="0" result="BackgroundImageFix" fill="#000000"/>
<feColorMatrix in="SourceAlpha" type="matrix" values="0 0 0 0 0 0 0 0 0 0 0 0 0 0 0 0 0 0 127 0" result="hardAlpha" fill="#000000"/>
<feOffset dx="6" dy="6" fill="#000000"/>
<feComposite in2="hardAlpha" operator="out" fill="#000000"/>
<feColorMatrix type="matrix" values="0 0 0 0 0 0 0 0 0 0 0 0 0 0 0 0 0 0 0.25 0" fill="#000000"/>
<feBlend mode="normal" in2="BackgroundImageFix" result="effect1_dropShadow_5242_430" fill="#000000"/>
<feBlend mode="normal" in="SourceGraphic" in2="effect1_dropShadow_5242_430" result="shape" fill="#000000"/>
</filter>
<filter id="filter1_d_5242_430" x="97" y="123" width="56" height="76" filterUnits="userSpaceOnUse" color-interpolation-filters="sRGB" fill="#000000">
<feFlood flood-opacity="0" result="BackgroundImageFix" fill="#000000"/>
<feColorMatrix in="SourceAlpha" type="matrix" values="0 0 0 0 0 0 0 0 0 0 0 0 0 0 0 0 0 0 127 0" result="hardAlpha" fill="#000000"/>
<feOffset dx="6" dy="6" fill="#000000"/>
<feComposite in2="hardAlpha" operator="out" fill="#000000"/>
<feColorMatrix type="matrix" values="0 0 0 0 0 0 0 0 0 0 0 0 0 0 0 0 0 0 0.25 0" fill="#000000"/>
<feBlend mode="normal" in2="BackgroundImageFix" result="effect1_dropShadow_5242_430" fill="#000000"/>
<feBlend mode="normal" in="SourceGraphic" in2="effect1_dropShadow_5242_430" result="shape" fill="#000000"/>
</filter>
<filter id="filter2_d_5242_430" x="35.8159" y="251.632" width="178.885" height="61.84" filterUnits="userSpaceOnUse" color-interpolation-filters="sRGB" fill="#000000">
<feFlood flood-opacity="0" result="BackgroundImageFix" fill="#000000"/>
<feColorMatrix in="SourceAlpha" type="matrix" values="0 0 0 0 0 0 0 0 0 0 0 0 0 0 0 0 0 0 127 0" result="hardAlpha" fill="#000000"/>
<feOffset dx="4" dy="4" fill="#000000"/>
<feComposite in2="hardAlpha" operator="out" fill="#000000"/>
<feColorMatrix type="matrix" values="0 0 0 0 0 0 0 0 0 0 0 0 0 0 0 0 0 0 0.25 0" fill="#000000"/>
<feBlend mode="normal" in2="BackgroundImageFix" result="effect1_dropShadow_5242_430" fill="#000000"/>
<feBlend mode="normal" in="SourceGraphic" in2="effect1_dropShadow_5242_430" result="shape" fill="#000000"/>
</filter>
</defs>
</svg>