<svg width="150" height="163" viewBox="0 0 150 163" fill="none" xmlns="http://www.w3.org/2000/svg">
<path d="M135 47.1338C139.142 47.1338 142.5 50.4917 142.5 54.6338V124.17C142.5 141.679 127.452 155 110 155H40C22.5481 155 7.5 141.679 7.5 124.17V54.6338C7.5 50.4917 10.8579 47.1338 15 47.1338H135ZM134 27.0996V19.3174L125.852 23.1523C123.562 24.2299 120.883 24.0803 118.728 22.7539L107.982 16.1416L95.1543 22.9844C92.9485 24.1608 90.3015 24.1608 88.0957 22.9844L74.9434 15.9688L61.2607 23.0312C59.0376 24.1787 56.3888 24.142 54.1982 22.9336L41.6885 16.0312L28.6543 22.9844C26.4485 24.1608 23.8015 24.1608 21.5957 22.9844L16 19.999V27.0996C16 31.2417 12.6421 34.5996 8.5 34.5996C4.35786 34.5996 1 31.2417 1 27.0996V7.5L1.00391 7.25391C1.08702 4.71419 2.45307 2.38148 4.6416 1.06836C6.90057 -0.286815 9.70491 -0.35686 12.0293 0.882812L25.125 7.86621L38.2207 0.882812L38.6455 0.672852C40.7944 -0.304627 43.2899 -0.215741 45.373 0.933594L57.9385 7.86523L71.5605 0.834961L71.9756 0.636719C74.074 -0.288254 76.491 -0.204298 78.5293 0.882812L91.625 7.86621L104.721 0.882812L104.942 0.768555C107.248 -0.364906 109.982 -0.240424 112.181 1.1123L123.134 7.85254L138.307 0.713867C140.63 -0.379356 143.351 -0.207775 145.519 1.16797C147.686 2.54375 149 4.93247 149 7.5V27.0996C149 31.2417 145.642 34.5996 141.5 34.5996C137.358 34.5996 134 31.2417 134 27.0996Z" stroke="white" stroke-width="15" stroke-linecap="round" stroke-linejoin="round"/>
<path d="M95 112L104 82.5" stroke="white" stroke-width="15" stroke-linecap="round" stroke-linejoin="round"/>
<path d="M60.5 128L51 103.5" stroke="white" stroke-width="15" stroke-linecap="round" stroke-linejoin="round"/>
</svg>
