<svg width="140" height="158" viewBox="0 0 140 158" fill="none" xmlns="http://www.w3.org/2000/svg">
<path d="M87.5 80H52.5" stroke="white" stroke-width="15" stroke-linecap="round"/>
<path d="M31.6071 38.5L32.0536 30.8333C32.0536 17.9467 57.0555 7.5 70 7.5C82.9445 7.5 107.946 17.9467 107.946 30.8333L107.5 38.5M57.5 150H82.5C100.002 150 108.752 150 115.438 146.609C121.317 143.626 126.098 138.867 129.094 133.013C132.5 126.358 132.5 117.646 132.5 100.222V81.5556C132.5 72.8437 132.5 68.4873 130.797 65.16C129.299 62.2331 126.909 59.8535 123.969 58.3621C120.627 56.6667 116.251 56.6667 107.5 56.6667H32.5C23.7492 56.6667 19.3737 56.6667 16.0314 58.3621C13.0913 59.8535 10.701 62.2331 9.20305 65.16C7.5 68.4873 7.5 72.8437 7.5 81.5556V100.222C7.5 117.646 7.5 126.358 10.906 133.013C13.9021 138.867 18.6827 143.626 24.5628 146.609C31.2475 150 39.9984 150 57.5 150Z" stroke="white" stroke-width="15" stroke-linecap="round" stroke-linejoin="round"/>
</svg>
